<svg width="154" height="42" viewBox="0 0 154 42" fill="none" xmlns="http://www.w3.org/2000/svg">
    <path d="M13.5509 0.101683L7.43995 34.627H0.5349L5.40296 7.00674H0.224173L1.46708 0.101683H13.5509ZM63.6606 27.6874H68.2524L65.8011 41.5665H58.8961L60.1045 34.6615H35.9368L34.7284 41.5665H27.8234L30.2746 27.6874H34.832L51.0243 0.101683H57.2389L63.6606 27.6874ZM42.4275 27.6874H56.065L52.1982 11.0462L42.4275 27.6874ZM97.2781 0.101683L96.0352 7.00674H82.2251L81.6381 10.4593H95.4482L94.2053 17.3643H80.3952L78.5999 27.7219H92.41L91.1671 34.627H70.4519L76.5629 0.101683H97.2781ZM119.703 0.101683H126.608L120.497 34.627H113.592L116.25 19.7811H104.166L101.508 34.627H94.6028L100.714 0.101683H107.619L105.513 12.1855H117.597L119.703 0.101683ZM144.167 27.7219L145.375 20.8168H133.291L132.083 27.7219H144.167ZM134.5 13.9118H153.489L149.863 34.627H123.969L130.046 0.101683H136.951L134.5 13.9118Z" fill="#4FBBB7"/>
</svg>
