<svg width="39" height="38" viewBox="0 0 39 38" fill="none" xmlns="http://www.w3.org/2000/svg">
    <path d="M3.39362 9.4397C3.94052 8.48743 4.57316 7.5871 5.28363 6.74976L18.0037 17.3698L19.7936 18.8597V18.8098L18.6337 16.8098L10.3436 2.45972C12.2596 1.3516 14.3544 0.586752 16.5336 0.199707L19.4337 16.5198L19.8336 18.7698V18.9098L19.8837 18.6398L23.1136 0.209717C25.296 0.591328 27.3945 1.35287 29.3137 2.45972L21.0436 16.8197L19.8336 18.9198L21.6536 17.3998L34.3336 6.72974C35.7637 8.42396 36.8841 10.3568 37.6436 12.4397L19.9236 18.9198L23.2637 37.5897C21.0805 37.9748 18.8468 37.9748 16.6636 37.5897L19.6036 20.6498L19.9136 18.9198L18.7037 21.0198L10.4136 35.3798H10.5037L10.3936 35.3197C8.47387 34.2104 6.76169 32.7757 5.33362 31.0797L18.0336 20.4198L19.6837 19.0298L19.8737 18.8698H19.7437L17.5936 19.6598L2.02362 25.3297C1.26286 23.254 0.873622 21.0605 0.873657 18.8497H17.4537H19.7637H19.8237L17.6237 18.0498L2.04364 12.3698C2.4263 11.3327 2.89461 10.3292 3.44366 9.36975M19.8936 18.8497H38.8936C38.898 21.073 38.5122 23.2799 37.7537 25.3698L19.8936 18.8497ZM19.8936 18.8497L34.4537 30.9797C33.0317 32.69 31.3186 34.1356 29.3936 35.2498L19.8936 18.8497Z" fill="#4CBBB8"/>
</svg>
