<svg width="167" height="43" viewBox="0 0 167 43" fill="none" xmlns="http://www.w3.org/2000/svg">
    <path d="M6.74409 0.761839H27.4593L25.6294 11.1194L10.1621 28.3821H22.5912L21.3483 35.2871H0.633115L1.87602 28.3821L18.9315 9.70388L19.2768 7.66689H12.4062L11.8193 11.1194H4.91425L6.74409 0.761839ZM76.726 28.3475H81.3179L78.8666 42.2267H71.9615L73.1699 35.3216H49.0022L47.7938 42.2267H40.8888L43.3401 28.3475H47.8974L64.0898 0.761839H70.3043L76.726 28.3475ZM55.493 28.3475H69.1304L65.2636 11.7064L55.493 28.3475ZM110.343 0.761839L109.101 7.66689H95.2905L94.7035 11.1194H108.514L107.271 18.0245H93.4606L91.6653 28.3821H105.475L104.233 35.2871H83.5174L89.6283 0.761839H110.343ZM132.768 0.761839H139.673L133.562 35.2871H126.657L129.316 20.4412H117.232L114.573 35.2871H107.668L113.779 0.761839H120.684L118.578 12.8457H130.662L132.768 0.761839ZM157.232 28.3821L158.441 21.477H146.357L145.148 28.3821H157.232ZM147.565 14.5719H166.554L162.929 35.2871H137.035L143.111 0.761839H150.016L147.565 14.5719Z" fill="#EB5752"/>
</svg>
