<svg width="167" height="42" viewBox="0 0 167 42" fill="none" xmlns="http://www.w3.org/2000/svg">
    <path d="M14.6504 13.832L15.8588 6.9269H5.50118L6.74409 0.0218488H24.0067L21.5554 13.832H25.008L21.3483 34.5471H0.633115L1.87602 27.6421H15.6861L16.8945 20.737H3.08441L4.29279 13.832H14.6504ZM76.6822 27.6075H81.274L78.8227 41.4867H71.9177L73.1261 34.5816H48.9584L47.75 41.4867H40.8449L43.2962 27.6075H47.8536L64.0459 0.0218488H70.2605L76.6822 27.6075ZM55.4491 27.6075H69.0866L65.2198 10.9664L55.4491 27.6075ZM110.3 0.0218488L109.057 6.9269H95.2466L94.6597 10.3794H108.47L107.227 17.2845H93.4168L91.6215 27.6421H105.432L104.189 34.5471H83.4735L89.5845 0.0218488H110.3ZM132.724 0.0218488H139.629L133.518 34.5471H126.613L129.272 19.7013H117.188L114.529 34.5471H107.624L113.735 0.0218488H120.64L118.534 12.1057H130.618L132.724 0.0218488ZM157.188 27.6421L158.397 20.737H146.313L145.105 27.6421H157.188ZM147.521 13.832H166.51L162.885 34.5471H136.991L143.068 0.0218488H149.973L147.521 13.832Z" fill="#00B0EA"/>
</svg>
