<svg width="1342" height="772" viewBox="0 0 1342 772" fill="none" xmlns="http://www.w3.org/2000/svg">
    <path id="rotate" d="M936.83 375.8L1251.83 572.54L1252.06 572.17C1275.29 535.069 1291.81 494.173 1300.87 451.35L937.45 374.2L1305.24 322.42C1299.15 278.928 1285.49 236.84 1264.86 198.07L936.86 372.55L1185.36 96.4299C1152.7 67.078 1115.18 43.6439 1074.47 27.1799L935.48 371.66L948.35 0.399911C904.463 -1.11313 860.65 5.07719 818.9 18.6899L933.76 371.9L705 79.1999C670.494 106.13 640.995 138.919 617.85 176.07L617.62 176.44L932.62 373.18L569.19 296.03C560.04 338.987 558.537 383.221 564.75 426.7L932.54 374.91L604.6 549.39C625.137 588.215 652.4 623.089 685.12 652.39L933.61 376.27L794.54 720.72C835.23 737.261 878.53 746.457 922.43 747.88L935.3 376.63L1050.17 729.84C1091.96 716.346 1131.05 695.584 1165.63 668.51L936.83 375.8Z" fill="#0D7ABF"/>
    <path d="M595.1 737.09C581.797 737.089 568.626 734.443 556.354 729.307C544.083 724.171 532.954 716.647 523.616 707.172C514.278 697.697 506.916 686.46 501.959 674.115C497.002 661.769 494.548 648.562 494.74 635.26C495.51 581.2 539.64 537.1 593.74 536.36C606.98 536.173 620.126 538.608 632.42 543.524C644.715 548.44 655.916 555.74 665.377 565.003C674.838 574.267 682.372 585.311 687.546 597.499C692.721 609.688 695.432 622.779 695.524 636.02C695.617 649.261 693.088 662.389 688.085 674.648C683.081 686.908 675.701 698.056 666.37 707.45C657.039 716.845 645.942 724.301 633.717 729.388C621.492 734.475 608.381 737.092 595.14 737.09" fill="#EB5953"/>
    <path d="M638.86 683.72C631.004 683.722 623.323 681.394 616.79 677.031C610.257 672.668 605.164 666.465 602.156 659.207C599.149 651.949 598.36 643.963 599.892 636.257C601.423 628.552 605.206 621.473 610.76 615.917C616.315 610.361 623.392 606.577 631.097 605.044C638.803 603.511 646.789 604.297 654.048 607.303C661.306 610.309 667.51 615.4 671.875 621.932C676.24 628.464 678.57 636.144 678.57 644C678.57 654.533 674.387 664.634 666.94 672.083C659.493 679.531 649.393 683.717 638.86 683.72Z" fill="white"/>
    <path d="M303.59 690.27C293.291 690.27 283.223 687.216 274.66 681.494C266.097 675.772 259.423 667.639 255.483 658.124C251.542 648.609 250.511 638.139 252.521 628.038C254.531 617.937 259.491 608.659 266.774 601.378C274.058 594.096 283.337 589.137 293.438 587.129C303.539 585.121 314.009 586.154 323.523 590.097C333.038 594.039 341.169 600.715 346.889 609.279C352.61 617.843 355.662 627.911 355.66 638.21C355.66 645.048 354.313 651.818 351.696 658.135C349.079 664.452 345.244 670.191 340.408 675.026C335.573 679.86 329.833 683.695 323.516 686.31C317.198 688.926 310.427 690.271 303.59 690.27Z" fill="#1DAFE6"/>
    <path d="M33.67 499.93C27.1432 499.93 20.763 497.995 15.3362 494.369C9.90936 490.743 5.67967 485.589 3.18198 479.559C0.684288 473.529 0.0307688 466.894 1.30408 460.492C2.57739 454.091 5.72035 448.211 10.3355 443.596C14.9506 438.981 20.8307 435.838 27.232 434.564C33.6334 433.291 40.2686 433.944 46.2986 436.442C52.3285 438.94 57.4824 443.17 61.1085 448.596C64.7346 454.023 66.67 460.403 66.67 466.93C66.67 475.682 63.1932 484.076 57.0045 490.265C50.8158 496.453 42.4222 499.93 33.67 499.93" fill="#4EBBB7"/>
    <path d="M244.28 683.59C239.913 683.59 235.644 682.295 232.013 679.869C228.382 677.443 225.552 673.994 223.881 669.96C222.21 665.925 221.772 661.486 222.624 657.203C223.476 652.919 225.579 648.985 228.667 645.897C231.755 642.809 235.689 640.706 239.972 639.854C244.255 639.002 248.695 639.44 252.73 641.111C256.764 642.782 260.213 645.612 262.639 649.243C265.065 652.874 266.36 657.143 266.36 661.51C266.357 667.365 264.03 672.98 259.89 677.12C255.75 681.26 250.135 683.588 244.28 683.59" fill="#1DAFE6"/>
    <path d="M1135.12 718.96C1127.56 718.962 1120.18 716.723 1113.89 712.527C1107.61 708.331 1102.71 702.365 1099.82 695.386C1096.93 688.406 1096.17 680.724 1097.64 673.314C1099.12 665.903 1102.75 659.095 1108.09 653.752C1113.44 648.409 1120.24 644.77 1127.65 643.295C1135.06 641.82 1142.75 642.576 1149.73 645.467C1156.71 648.358 1162.67 653.254 1166.87 659.536C1171.07 665.818 1173.31 673.204 1173.31 680.76C1173.31 690.89 1169.29 700.604 1162.12 707.768C1154.96 714.932 1145.25 718.957 1135.12 718.96" fill="#EB5953"/>
    <path d="M11.71 540.57L1286.38 277.34L422.3 647.87L11.71 540.57Z" fill="#F28F8A"/>
    <path d="M710.62 771.99L1025.44 466.03L754.91 643.82L710.62 771.99Z" fill="#F18C89"/>
    <path fill-rule="evenodd" clip-rule="evenodd" d="M459.72 535.8C462.346 535.788 464.909 534.999 467.087 533.531C469.265 532.064 470.959 529.984 471.956 527.555C472.952 525.125 473.207 522.455 472.687 519.881C472.168 517.307 470.897 514.944 469.036 513.092C467.175 511.239 464.807 509.979 462.231 509.471C459.654 508.963 456.985 509.23 454.56 510.238C452.135 511.245 450.063 512.949 448.606 515.133C447.148 517.317 446.37 519.884 446.37 522.51C446.374 524.259 446.722 525.991 447.395 527.605C448.068 529.22 449.053 530.686 450.293 531.92C451.532 533.154 453.003 534.132 454.62 534.798C456.238 535.463 457.971 535.804 459.72 535.8Z" fill="#EB5953"/>
    <path fill-rule="evenodd" clip-rule="evenodd" d="M400.43 594.8C403.056 594.788 405.619 593.999 407.797 592.531C409.975 591.064 411.669 588.984 412.665 586.555C413.662 584.125 413.917 581.455 413.397 578.881C412.878 576.307 411.607 573.944 409.746 572.092C407.885 570.239 405.517 568.979 402.941 568.471C400.364 567.963 397.695 568.23 395.27 569.238C392.845 570.245 390.773 571.949 389.316 574.133C387.858 576.317 387.08 578.884 387.08 581.51C387.084 583.259 387.432 584.991 388.105 586.605C388.778 588.22 389.763 589.686 391.003 590.92C392.242 592.154 393.713 593.132 395.33 593.798C396.948 594.463 398.681 594.804 400.43 594.8" fill="#EB5953"/>
    <path fill-rule="evenodd" clip-rule="evenodd" d="M472.17 565.29C474.796 565.278 477.359 564.489 479.537 563.021C481.715 561.554 483.409 559.474 484.406 557.045C485.402 554.615 485.657 551.945 485.137 549.371C484.618 546.797 483.347 544.434 481.486 542.582C479.625 540.729 477.257 539.469 474.681 538.961C472.104 538.453 469.435 538.72 467.01 539.728C464.585 540.735 462.513 542.439 461.056 544.623C459.598 546.807 458.82 549.374 458.82 552C458.824 553.749 459.172 555.481 459.845 557.095C460.518 558.71 461.503 560.176 462.743 561.41C463.982 562.644 465.453 563.622 467.07 564.288C468.688 564.953 470.421 565.294 472.17 565.29" fill="#EB5953"/>
    <path fill-rule="evenodd" clip-rule="evenodd" d="M388 565.29C390.626 565.278 393.19 564.489 395.367 563.021C397.545 561.554 399.239 559.474 400.235 557.045C401.232 554.615 401.487 551.945 400.967 549.371C400.448 546.797 399.177 544.434 397.316 542.582C395.455 540.729 393.087 539.469 390.511 538.961C387.934 538.453 385.265 538.72 382.84 539.728C380.415 540.735 378.343 542.439 376.886 544.623C375.428 546.807 374.65 549.374 374.65 552C374.654 553.749 375.002 555.481 375.675 557.095C376.348 558.71 377.333 560.176 378.573 561.41C379.812 562.644 381.283 563.622 382.9 564.288C384.518 564.953 386.251 565.294 388 565.29" fill="#EB5953"/>
    <path fill-rule="evenodd" clip-rule="evenodd" d="M459.72 594.8C462.346 594.788 464.909 593.999 467.087 592.531C469.265 591.064 470.959 588.984 471.956 586.555C472.952 584.125 473.207 581.455 472.687 578.881C472.168 576.307 470.897 573.944 469.036 572.092C467.175 570.239 464.807 568.979 462.231 568.471C459.654 567.963 456.985 568.23 454.56 569.238C452.135 570.245 450.063 571.949 448.606 574.133C447.148 576.317 446.37 578.884 446.37 581.51C446.374 583.259 446.722 584.991 447.395 586.605C448.068 588.22 449.053 589.686 450.293 590.92C451.532 592.154 453.003 593.132 454.62 593.798C456.238 594.463 457.971 594.804 459.72 594.8" fill="#EB5953"/>
    <path fill-rule="evenodd" clip-rule="evenodd" d="M400.43 535.8C403.056 535.788 405.619 534.999 407.797 533.531C409.975 532.064 411.669 529.984 412.665 527.555C413.662 525.125 413.917 522.455 413.397 519.881C412.878 517.307 411.607 514.944 409.746 513.092C407.885 511.239 405.517 509.979 402.941 509.471C400.364 508.963 397.695 509.23 395.27 510.238C392.845 511.245 390.773 512.949 389.316 515.133C387.858 517.317 387.08 519.884 387.08 522.51C387.084 524.259 387.432 525.991 388.105 527.605C388.778 529.22 389.763 530.686 391.003 531.92C392.242 533.154 393.713 534.132 395.33 534.798C396.948 535.463 398.681 535.804 400.43 535.8Z" fill="#EB5953"/>
    <path fill-rule="evenodd" clip-rule="evenodd" d="M430.08 607.18C432.706 607.166 435.268 606.375 437.444 604.906C439.621 603.438 441.313 601.357 442.308 598.928C443.304 596.498 443.557 593.828 443.036 591.255C442.515 588.681 441.244 586.32 439.383 584.468C437.521 582.617 435.153 581.358 432.577 580.851C430.001 580.343 427.332 580.611 424.908 581.619C422.484 582.627 420.412 584.33 418.955 586.514C417.498 588.698 416.72 591.265 416.72 593.89C416.724 595.64 417.073 597.372 417.746 598.988C418.42 600.603 419.405 602.069 420.646 603.304C421.887 604.538 423.359 605.515 424.977 606.181C426.596 606.846 428.33 607.185 430.08 607.18" fill="#EB5953"/>
    <path fill-rule="evenodd" clip-rule="evenodd" d="M430.08 523.4C432.706 523.386 435.268 522.595 437.444 521.126C439.621 519.658 441.313 517.577 442.308 515.148C443.304 512.718 443.557 510.048 443.036 507.475C442.515 504.901 441.244 502.54 439.383 500.688C437.521 498.837 435.153 497.578 432.577 497.071C430.001 496.563 427.332 496.831 424.908 497.839C422.484 498.847 420.412 500.55 418.955 502.734C417.498 504.918 416.72 507.485 416.72 510.11C416.724 511.86 417.073 513.592 417.746 515.208C418.42 516.823 419.405 518.289 420.646 519.524C421.887 520.758 423.359 521.735 424.977 522.401C426.596 523.066 428.33 523.405 430.08 523.4Z" fill="#EB5953"/>
    <path d="M1286.38 277.34L817.14 371.76L827.15 554.16L1286.38 277.34Z" fill="#1260AA"/>
    <path d="M1286.38 277.34L817.14 371.76L696.97 288.79L1286.38 277.34Z" fill="white"/>
    <path d="M1286.38 277.34L887.95 394.65L827.15 554.16L1286.38 277.34Z" fill="#EB5953"/>
    <path d="M1286.38 277.34L887.95 394.65L1086.81 464.75L1286.38 277.34Z" fill="white"/>
    <path d="M88.88 255.25L105.75 159.53H69.85L53 255.25H29.05L45.92 159.53H34L38.31 135.6H134L112.81 255.25H88.88Z" fill="white"/>
    <path d="M169.16 207.39L160.67 255.25H136.74L153.61 159.53H141.61L146 135.6H241.72L229 207.39H169.16ZM177.54 159.53L173.35 183.46H209.25L213.43 159.53H177.54Z" fill="white"/>
    <path d="M253.63 135.6H349.36L328.18 255.25H232.46L253.63 135.6ZM273.26 159.53L260.7 231.32H308.55L321.12 159.53H273.26Z" fill="white"/>
    <path d="M433.11 135.6L428.8 159.53H380.94L378.94 171.53H426.8L422.49 195.46H374.6L368.38 231.36H416.24L411.93 255.29H340.14L361.32 135.6H433.11Z" fill="white"/>
    <path d="M464.34 207.39H456.34L447.85 255.25H423.9L445.07 135.6H469L460.51 183.46H490.42L498.92 135.6H540.79L536.49 159.53H518.49L510.11 207.39H493.77L519.26 255.25H489.82L464.34 207.39Z" fill="white"/>
    <path d="M608.28 159.53L591.41 255.25H567.48L584.35 159.53H542.47L546.78 135.6H654.46L650.15 159.53H608.28Z" fill="white"/>
    <path d="M660.44 135.6H756.16L735 255.25H639.27L660.44 135.6ZM680.07 159.53L667.5 231.32H715.36L727.92 159.53H680.07Z" fill="white"/>
    <path d="M791.34 207.39L782.84 255.25H758.91L775.78 159.53H763.78L768.09 135.6H863.81L851.12 207.39H791.34ZM799.71 159.53L795.53 183.46H831.42L835.61 159.53H799.71Z" fill="white"/>
    <path d="M941.62 135.6H965.55L944.37 255.25H920.44L931.21 194.25L882.87 231.34L878.57 255.27H854.63L875.81 135.62H899.74L888.97 196.62L937.31 159.53L941.62 135.6Z" fill="white"/>
    <path d="M1073.24 135.6L1052.06 255.25H1028.13L1036.62 207.39H1031L992.11 255.25H962.68L1001.56 207.39H976.8L985.17 159.53H973.17L977.47 135.6H1073.24ZM1009.1 159.53L1004.91 183.46H1040.81L1045 159.53H1009.1Z" fill="white"/>
    <path fill-rule="evenodd" clip-rule="evenodd" d="M1124.48 108.69C1121.59 111.454 1117.72 112.976 1113.72 112.929C1109.72 112.883 1105.9 111.273 1103.07 108.443C1100.24 105.613 1098.63 101.789 1098.58 97.7869C1098.53 93.7852 1100.06 89.9243 1102.82 87.03V87.03C1105.48 84.3704 1109.04 82.7852 1112.79 82.5767C1116.55 82.3683 1120.26 83.5513 1123.2 85.9C1123.65 86.2555 1124.08 86.6361 1124.48 87.04V87.04C1125.9 88.461 1127.03 90.1484 1127.8 92.0059C1128.57 93.8633 1128.97 95.8543 1128.97 97.865C1128.97 99.8757 1128.57 101.867 1127.8 103.724C1127.03 105.582 1125.9 107.269 1124.48 108.69V108.69Z" fill="#D7DCF0"/>
    <path fill-rule="evenodd" clip-rule="evenodd" d="M1199 87.03C1199.37 86.6556 1199.77 86.3018 1200.18 85.97C1202.91 83.7533 1206.32 82.5435 1209.84 82.5435C1213.36 82.5435 1216.77 83.7533 1219.5 85.97C1219.9 86.3 1220.29 86.65 1220.66 87.02C1223.53 89.8924 1225.14 93.7857 1225.14 97.845C1225.14 101.904 1223.53 105.798 1220.66 108.67V108.67C1217.79 111.541 1213.89 113.154 1209.83 113.154C1205.77 113.154 1201.87 111.541 1199 108.67C1196.13 105.798 1194.53 101.907 1194.53 97.8499C1194.53 93.7931 1196.13 89.902 1199 87.03Z" fill="#6A89C4"/>
    <path fill-rule="evenodd" clip-rule="evenodd" d="M1116.76 121.19C1119.41 118.541 1122.95 116.956 1126.69 116.737C1130.43 116.518 1134.13 117.679 1137.07 120C1137.54 120.37 1137.99 120.767 1138.42 121.19V121.19C1141.29 124.063 1142.9 127.958 1142.9 132.02C1142.9 136.082 1141.29 139.977 1138.42 142.85V142.85C1135.53 145.614 1131.66 147.136 1127.66 147.09C1123.66 147.043 1119.84 145.433 1117.01 142.604C1114.18 139.774 1112.57 135.949 1112.52 131.947C1112.47 127.945 1114 124.085 1116.76 121.19V121.19Z" fill="#ADB9DF"/>
    <path fill-rule="evenodd" clip-rule="evenodd" d="M1206.73 74.5402C1203.85 77.4066 1199.96 79.0162 1195.9 79.0162C1191.84 79.0162 1187.95 77.4066 1185.07 74.5402V74.5402C1182.2 71.6674 1180.59 67.7719 1180.59 63.7102C1180.59 59.6485 1182.2 55.753 1185.07 52.8802C1187.72 50.2308 1191.26 48.6464 1195 48.4271C1198.74 48.2078 1202.44 49.3688 1205.38 51.6902C1205.85 52.0597 1206.3 52.4571 1206.73 52.8802V52.8802C1209.6 55.753 1211.21 59.6485 1211.21 63.7102C1211.21 67.7719 1209.6 71.6674 1206.73 74.5402V74.5402Z" fill="#527ABC"/>
    <path fill-rule="evenodd" clip-rule="evenodd" d="M1150.91 135.14C1151.28 134.763 1151.67 134.405 1152.08 134.07C1154.81 131.855 1158.22 130.646 1161.74 130.646C1165.26 130.646 1168.67 131.855 1171.4 134.07C1171.81 134.402 1172.19 134.756 1172.56 135.13V135.13C1175.43 138.003 1177.04 141.898 1177.04 145.96C1177.04 150.022 1175.43 153.917 1172.56 156.79V156.79C1169.69 159.661 1165.79 161.274 1161.73 161.274C1157.67 161.274 1153.77 159.661 1150.9 156.79C1148.03 153.918 1146.42 150.023 1146.42 145.963C1146.42 141.903 1148.04 138.01 1150.91 135.14Z" fill="#98A9D6"/>
    <path fill-rule="evenodd" clip-rule="evenodd" d="M1150.92 38.9401C1153.81 36.1763 1157.68 34.6546 1161.68 34.7007C1165.68 34.7468 1169.5 36.357 1172.33 39.1868C1175.16 42.0167 1176.77 45.8415 1176.82 49.8432C1176.87 53.8449 1175.34 57.7058 1172.58 60.6001V60.6001C1171.17 62.0766 1169.48 63.2564 1167.61 64.0701C1165.73 64.8839 1163.72 65.3152 1161.68 65.3387C1159.64 65.3622 1157.61 64.9775 1155.72 64.2071C1153.83 63.4367 1152.11 62.2962 1150.67 60.8526C1149.22 59.409 1148.08 57.6914 1147.31 55.8008C1146.54 53.9102 1146.16 51.8846 1146.18 49.8432C1146.21 47.8018 1146.64 45.7857 1147.45 43.9133C1148.26 42.0409 1149.44 40.3501 1150.92 38.9401V38.9401Z" fill="white"/>
    <path fill-rule="evenodd" clip-rule="evenodd" d="M1185.06 121.17C1187.96 118.474 1191.8 117.009 1195.76 117.081C1199.72 117.153 1203.5 118.756 1206.31 121.555C1209.11 124.354 1210.72 128.131 1210.8 132.092C1210.88 136.053 1209.42 139.891 1206.73 142.8V142.8C1205.32 144.276 1203.63 145.456 1201.76 146.27C1199.88 147.084 1197.87 147.515 1195.83 147.538C1193.79 147.562 1191.76 147.177 1189.87 146.407C1187.98 145.636 1186.26 144.496 1184.82 143.052C1183.37 141.609 1182.23 139.891 1181.46 138.001C1180.69 136.11 1180.31 134.084 1180.33 132.043C1180.36 130.002 1180.79 127.985 1181.6 126.113C1182.41 124.241 1183.59 122.55 1185.07 121.14L1185.06 121.17Z" fill="#8299CD"/>
    <path fill-rule="evenodd" clip-rule="evenodd" d="M1116.78 52.8899C1118.92 50.7466 1121.65 49.2867 1124.62 48.6949C1127.6 48.1031 1130.68 48.406 1133.48 49.5653C1136.28 50.7246 1138.67 52.6882 1140.35 55.2077C1142.04 57.7273 1142.94 60.6896 1142.94 63.7199C1142.94 66.7503 1142.04 69.7126 1140.35 72.2321C1138.67 74.7516 1136.28 76.7152 1133.48 77.8745C1130.68 79.0338 1127.6 79.3367 1124.62 78.745C1121.65 78.1532 1118.92 76.6933 1116.78 74.5499C1113.91 71.6771 1112.3 67.7816 1112.3 63.7199C1112.3 59.6582 1113.91 55.7627 1116.78 52.8899Z" fill="#D7DCF0"/>
    <path d="M1284.57 674.3H1228.76V674.36C1228.75 680.939 1229.9 687.469 1232.15 693.65L1284.61 674.55L1241.86 710.43C1246.08 715.486 1251.16 719.764 1256.86 723.07L1284.77 674.72L1275.08 729.72C1281.58 730.854 1288.23 730.854 1294.73 729.72L1285.03 674.72L1312.95 723.07C1318.65 719.762 1323.72 715.484 1327.95 710.43L1285.19 674.55L1337.66 693.65C1339.91 687.468 1341.06 680.939 1341.05 674.36V674.3H1285.24L1337.7 655.2C1335.45 648.999 1332.11 643.244 1327.86 638.2L1285.11 674.07L1313.02 625.73C1307.31 622.414 1301.06 620.139 1294.56 619.01L1284.86 674.01L1275.17 619.01C1268.67 620.139 1262.42 622.414 1256.71 625.73L1284.62 674.07L1241.86 638.2C1237.61 643.245 1234.28 648.999 1232.03 655.2L1284.57 674.3Z" fill="#4EBBB7"/>
    <path d="M1135.32 718.36C1127.77 718.36 1120.4 716.122 1114.12 711.93C1107.85 707.738 1102.96 701.779 1100.07 694.807C1097.19 687.836 1096.43 680.164 1097.9 672.764C1099.38 665.363 1103.01 658.565 1108.35 653.23C1113.68 647.895 1120.48 644.263 1127.88 642.792C1135.28 641.321 1142.96 642.078 1149.93 644.967C1156.9 647.856 1162.85 652.747 1167.05 659.022C1171.24 665.297 1173.47 672.674 1173.47 680.22C1173.47 690.336 1169.45 700.037 1162.29 707.19C1155.14 714.342 1145.44 718.36 1135.32 718.36Z" fill="#EB5953"/>
    <path d="M711.39 771.32L1025.79 465.77L755.63 643.32L711.39 771.32Z" fill="#F28F8A"/>
    <path d="M1286.38 277.34L817.78 371.63L827.78 553.79L1286.38 277.34Z" fill="#1260AA"/>
    <path d="M1286.38 277.34L817.78 371.63L697.77 288.77L1286.38 277.34Z" fill="white"/>
    <path d="M1286.38 277.34L888.49 394.49L827.78 553.79L1286.38 277.34Z" fill="#EB5953"/>
    <path d="M1286.38 277.34L888.49 394.49L1087.08 464.5L1286.38 277.34Z" fill="white"/>
    <path d="M65.94 290.08L59 329.22H29.66L36.59 290.08H65.94ZM52.6 321.39L53.97 313.56H40.27L38.9 321.39H52.6ZM56.71 297.9H43L41.63 305.73H55.33L56.71 297.9Z" fill="white"/>
    <path d="M93.69 321.39L92.28 329.22H62.93L69.86 290.08H99.21L97.8 297.9H76.27L72.17 321.39H93.69Z" fill="white"/>
    <path d="M126.61 290.08L125.2 297.9H109.54L108.88 301.82H124.53L123.13 309.65H107.47L105.47 321.39H121.13L119.72 329.22H96.2L103.13 290.08H126.61Z" fill="white"/>
    <path d="M138.12 313.56L135.34 329.22H127.51L133 297.9H129.08L130.49 290.08H161.8L157.66 313.56H138.12ZM140.86 297.9L139.49 305.73H151.23L152.6 297.9H140.86Z" fill="white"/>
    <path d="M165.75 290.08H197.06L190.13 329.22H158.82L165.75 290.08ZM172.17 297.9L168.06 321.39H183.71L187.82 297.9H172.17Z" fill="white"/>
    <path d="M224.81 321.39L223.4 329.22H194.05L201 290.08H230.36L228.95 297.9H207.39L203.28 321.39H224.81Z" fill="white"/>
    <path d="M258.08 321.39L256.67 329.22H227.31L234.24 290.08H263.6L262.19 297.9H240.66L236.55 321.39H258.08Z" fill="white"/>
    <path d="M289 290.08H296.83L289.9 329.22H282.07L285.59 309.22L269.78 321.36L268.37 329.19H260.54L267.47 290.05H275.3L271.78 310.05L287.59 297.91L289 290.08Z" fill="white"/>
    <path d="M322.31 290.08H330.13L323.21 329.22H315.38L318.9 309.22L303.09 321.36L301.68 329.19H293.85L300.78 290.05H308.61L305.08 310.05L320.9 297.9L322.31 290.08ZM311.23 286.16L308 282.25L309 276.38H314.87L314.2 280.29H320.07L320.74 276.38H326.61L325.61 282.25L321 286.16H311.23Z" fill="white"/>
    <path d="M357.88 321.39L356.47 329.22H327.12L334.05 290.08H363.4L362 297.9H340.47L336.36 321.39H357.88Z" fill="white"/>
    <path d="M373.62 313.56H371L368.23 329.22H360.4L367.33 290.08H375.15L372.37 305.73H382.16L384.94 290.08H398.64L397.23 297.9H391.36L388.62 313.56H383.26L391.59 329.22H382L373.62 313.56Z" fill="white"/>
    <path d="M424.07 290.08H431.9L425 329.22H417.17L420.69 309.22L404.88 321.36L403.47 329.19H395.64L402.57 290.05H410.4L406.88 310.05L422.69 297.91L424.07 290.08Z" fill="white"/>
    <path d="M457.34 290.08H465.16L458.24 329.22H450.41L453.93 309.22L438.12 321.36L436.71 329.19H428.88L435.81 290.05H443.64L440.12 310.05L455.93 297.91L457.34 290.08ZM446.26 286.16L443.05 282.25L444.05 276.38H449.92L449.25 280.29H455.13L455.79 276.38H461.66L460.66 282.25L456.05 286.16H446.26Z" fill="white"/>
    <path d="M498.79 321.39H483.13L487.24 297.9H502.9L504.3 290.08H512.13L510.72 297.9H526.38L522.27 321.39H506.61L505.2 329.25H497.38L498.79 321.39ZM500.16 313.56L501.53 305.73H493.7L492.33 313.56H500.16ZM509.35 305.73L508 313.56H515.83L517.2 305.73H509.35Z" fill="white"/>
    <path d="M531.7 290.08H563L556.07 329.22H524.77L531.7 290.08ZM538.12 297.9L534 321.39H549.66L553.77 297.9H538.12Z" fill="white"/>
    <path d="M574.52 313.56L571.74 329.22H563.91L569.43 297.9H565.52L566.93 290.08H598.24L594.09 313.56H574.52ZM577.26 297.9L575.89 305.73H587.63L589 297.9H577.26Z" fill="white"/>
    <path d="M609.59 290.08L615.19 304.75L626 290.08H635.39L606.55 329.22H597.15L609 313.13L603.13 297.9H596.79L598.2 290.08H609.59Z" fill="white"/>
    <path d="M642.08 307.65L638.28 329.22H630.45L637.38 290.08H647.16L652.16 317.24L666.76 290.08H676.55L669.62 329.22H661.79L665.59 307.65L653.96 329.22H646.14L642.08 307.65Z" fill="white"/>
    <path d="M53.14 390.27L58.66 358.96H46.92L41.4 390.27H33.57L39.09 358.96H35.18L36.59 351.13H67.9L61 390.27H53.14Z" fill="white"/>
    <path d="M79.41 374.62L76.63 390.27H68.8L74.32 358.96H70.4L71.81 351.13H103.13L99 374.62H79.41ZM82.15 358.96L80.78 366.8H92.52L93.89 358.97L82.15 358.96Z" fill="white"/>
    <path d="M107 351.13H138.31L131.38 390.27H100.11L107 351.13ZM113.42 358.96L109.31 382.45H125L129.11 358.96H113.42Z" fill="white"/>
    <path d="M152.4 382.45H136.75L140.86 358.96H156.51L157.92 351.13H165.75L164.34 358.96H180L175.89 382.45H160.23L158.82 390.31H151L152.4 382.45ZM153.77 374.62L155.14 366.79H147.31L145.94 374.62H153.77ZM163 366.8L161.63 374.63H169.46L170.8 366.8H163Z" fill="white"/>
    <path d="M185.32 351.13H216.63L209.7 390.27H178.39L185.32 351.13ZM191.74 358.96L187.63 382.45H203.28L207.39 358.96H191.74Z" fill="white"/>
    <path d="M228.14 374.62L225.36 390.27H217.53L223.05 358.96H219.14L220.54 351.13H251.86L247.71 374.62H228.14ZM230.88 358.96L229.51 366.8H241.25L242.62 358.97L230.88 358.96Z" fill="white"/>
    <path d="M277.3 351.13H285.12L278.2 390.27H270.37L273.89 370.27L258.08 382.41L256.67 390.23H248.84L255.77 351.09H263.6L260.07 371.09L275.89 358.96L277.3 351.13Z" fill="white"/>
    <path d="M312.52 351.13L311.11 358.96H295.46L294.79 362.88H310.45L309 370.7H293.38L291.38 382.45H307L305.59 390.27H282.11L289 351.13H312.52Z" fill="white"/>
    <path d="M338 351.13H345.83L338.9 390.27H331L334 373.44H320.3L317.3 390.27H309.47L316.4 351.13H324.22L321.88 364.8H335.58L338 351.13Z" fill="white"/>
    <path d="M367.86 358.96L362.35 390.27H354.52L360 358.96H346.3L347.71 351.13H383L381.59 358.96H367.86Z" fill="white"/>
    <path d="M402.31 374.62H388.61L385.83 390.27H378L384.93 351.13H414.28L407.36 390.27H399.53L402.31 374.62ZM405.05 358.96H391.35L390 366.8H403.7L405.05 358.96Z" fill="white"/>
    <path d="M438.67 390.27H411.27L418.2 351.13H426L420.48 382.45H436.13L441.65 351.13H449.48L444 382.45H447.92L444.43 402.01H436.6L438.67 390.27Z" fill="white"/>
    <path d="M478.86 351.13H486.69L479.77 390.27H471.94L475.46 370.27L459.65 382.41L458.24 390.23H450.41L457.34 351.09H465.17L461.64 371.09L477.46 358.96L478.86 351.13Z" fill="white"/>
    <path d="M512.13 351.13H520L513 390.27H505.18L508.7 370.27L492.89 382.41L491.48 390.23H483.65L490.58 351.09H498.4L494.88 371.09L510.69 358.96L512.13 351.13Z" fill="white"/>
</svg>
