<svg width="1340" height="768" viewBox="0 0 1340 768" fill="none" xmlns="http://www.w3.org/2000/svg">
    <path d="M594.514 732.999C581.221 733 568.062 730.357 555.799 725.226C543.537 720.095 532.418 712.578 523.087 703.111C513.756 693.644 506.4 682.417 501.447 670.082C496.493 657.747 494.041 644.55 494.234 631.259C495.004 577.259 539.094 533.179 593.104 532.439C619.7 532.253 645.28 542.638 664.219 561.312C683.157 579.986 693.902 605.419 694.089 632.015C694.276 658.61 683.89 684.191 665.216 703.13C646.542 722.068 621.11 732.813 594.514 732.999Z" fill="#eb5953"/>
    <path d="M638.224 679.68C630.374 679.678 622.701 677.348 616.175 672.985C609.649 668.622 604.563 662.422 601.561 655.169C598.559 647.916 597.775 639.936 599.308 632.237C600.842 624.538 604.623 617.467 610.176 611.918C615.728 606.368 622.801 602.59 630.5 601.06C638.2 599.531 646.18 600.319 653.432 603.325C660.683 606.331 666.881 611.419 671.24 617.948C675.6 624.476 677.926 632.15 677.924 640C677.925 645.212 676.899 650.374 674.905 655.19C672.911 660.006 669.987 664.382 666.302 668.068C662.616 671.754 658.24 674.677 653.424 676.671C648.608 678.665 643.446 679.691 638.234 679.69" fill="white"/>
    <path d="M33.5636 496C27.0368 496 20.6566 494.064 15.2298 490.438C9.80298 486.812 5.57329 481.658 3.0756 475.628C0.577904 469.598 -0.0756155 462.963 1.1977 456.562C2.47101 450.16 5.61397 444.28 10.2291 439.665C14.8442 435.05 20.7243 431.907 27.1256 430.634C33.527 429.361 40.1622 430.014 46.1922 432.512C52.2221 435.009 57.376 439.239 61.0021 444.666C64.6282 450.093 66.5636 456.473 66.5636 463C66.5636 471.752 63.0868 480.146 56.8981 486.334C50.7094 492.523 42.3158 496 33.5636 496Z" fill="#4FBBB7"/>
    <path d="M303.254 686.22C292.969 686.22 282.915 683.17 274.364 677.456C265.813 671.742 259.148 663.621 255.212 654.119C251.276 644.618 250.246 634.162 252.253 624.075C254.259 613.988 259.212 604.723 266.484 597.45C273.756 590.178 283.022 585.225 293.109 583.219C303.196 581.212 313.651 582.242 323.153 586.178C332.655 590.114 340.776 596.779 346.49 605.33C352.204 613.881 355.254 623.935 355.254 634.22C355.254 648.011 349.775 661.237 340.023 670.989C330.271 680.741 317.045 686.22 303.254 686.22Z" fill="#00B0EA"/>
    <path d="M243.994 679.54C239.631 679.54 235.365 678.246 231.738 675.822C228.11 673.398 225.282 669.953 223.613 665.922C221.943 661.891 221.506 657.455 222.357 653.176C223.209 648.897 225.31 644.966 228.395 641.881C231.48 638.796 235.411 636.695 239.69 635.844C243.969 634.993 248.405 635.43 252.436 637.099C256.467 638.769 259.912 641.596 262.336 645.224C264.76 648.852 266.054 653.117 266.054 657.48C266.054 663.331 263.729 668.942 259.592 673.079C255.455 677.216 249.844 679.54 243.994 679.54Z" fill="#00B0EA"/>
    <path d="M831.844 757.87C640.994 715.36 520.744 526.16 563.264 335.31C605.784 144.46 794.924 24.1996 985.814 66.7196C1176.7 109.24 1296.92 298.42 1254.41 489.27C1211.9 680.12 1022.71 800.39 831.844 757.87Z" fill="#1760aa"/>
    <path id="rotate" d="M660.444 120.66L660.494 120.6C675.027 104.809 690.895 90.3015 707.924 77.2397L905.124 334.31L904.784 334.57L932.554 370.74L932.814 370.44L933.434 371.2L933.084 370.2L933.314 369.93L919.774 326.81L919.534 326.88L822.754 17.6597C863.992 4.71606 907.175 -0.922071 950.354 0.999746L936.034 324.65H935.814L933.924 369.26L934.113 369.05L933.984 371.77L936.064 366.87L1076.3 28.9997C1116.32 45.6023 1153.1 69.0988 1184.99 98.4198L965.924 337.1C966.014 337.19 966.114 337.29 966.224 337.38L965.964 337.14L933.964 371.94L933.863 372.05H933.924H933.984H934.094H934.014L934.743 371.66L975.974 350.3V350.24L1263.48 200.8C1283.49 239.284 1296.58 280.985 1302.15 324L934.493 371.9L934.354 372.05H934.534L934.124 372.11L934.184 372.22H934.334L934.704 372.7L934.194 372.37V372.23L934.113 372.31L934.034 372.23V372.64L933.974 372.49L933.854 372.62L917.854 743.06C874.546 741.239 831.896 731.816 791.854 715.22L920.394 404.61L933.493 373L933.394 373.1L933.743 372.27H933.794V372.22H933.743V372.16L901.684 407.09L901.894 407.3L682.654 645.71L684.164 647.11L682.394 645.48C650.477 616.165 623.948 581.479 604.014 543L891.743 393.9L929.104 374.51L933.544 372.2L930.854 372.56L931.044 372.35L886.684 378.15C886.679 378.19 886.679 378.23 886.684 378.27L565.494 419.83C559.915 376.974 561.871 333.472 571.274 291.29L887.564 361.64L887.474 361.99L931.634 371.76L931.863 371.5L932.954 371.73L932.124 371.2L932.394 370.92L893.924 346.38L893.743 346.66L620.974 171.84C632.624 153.67 645.83 136.545 660.444 120.66ZM933.574 371.66L933.054 371.33L933.424 371.81H933.634L933.574 371.66ZM933.444 372.03L933.144 372.08L933.654 372.17L933.444 372.03ZM933.914 371.83L933.804 371.39V371.67L933.934 371.84L933.914 371.83ZM933.684 372H933.554L933.684 372.11V372ZM933.904 371.87L933.774 371.8V371.9H933.874L933.904 371.87ZM933.904 371.98H933.814V372.1H933.874L933.904 371.98ZM933.834 372.25V372.31V372.25ZM933.834 372.32V372.27V372.35V372.32ZM934.104 372.13H933.924V372.23H934.074L934.104 372.13ZM934.863 372.41L1296.61 452.47C1287.22 494.928 1270.4 535.393 1246.92 572L934.863 372.41ZM934.384 372.94L1160.21 666.68C1125.76 693.185 1086.9 713.408 1045.42 726.42L934.384 372.94Z" fill="#3D7FBB"/>
    <path d="M1134.05 714.88C1126.5 714.88 1119.12 712.641 1112.85 708.446C1106.57 704.251 1101.68 698.29 1098.79 691.314C1095.9 684.339 1095.14 676.664 1096.62 669.259C1098.09 661.855 1101.73 655.054 1107.07 649.716C1112.41 644.378 1119.21 640.743 1126.61 639.272C1134.02 637.8 1141.69 638.557 1148.67 641.448C1155.64 644.338 1161.6 649.232 1165.8 655.511C1169.99 661.789 1172.23 669.17 1172.22 676.72C1172.22 681.732 1171.24 686.695 1169.32 691.325C1167.4 695.956 1164.59 700.163 1161.04 703.706C1157.5 707.25 1153.29 710.061 1148.66 711.978C1144.03 713.895 1139.07 714.881 1134.05 714.88Z" fill="#eb5953"/>
    <path d="M1235.12 650.25C1236.74 647.426 1238.6 644.749 1240.68 642.25L1278.26 673.65V673.7L1283.55 678.109L1283.66 678.2L1283.57 678.06L1280.15 672.15L1255.66 629.75C1261.31 626.448 1267.49 624.164 1273.92 623L1282.51 671.2L1283.7 677.84L1283.77 678.24L1283.91 677.45L1293.42 623C1299.87 624.125 1306.08 626.373 1311.75 629.64L1287.33 672.08L1283.76 678.28L1283.85 678.2L1289.22 673.69L1326.68 642.159C1330.91 647.17 1334.22 652.883 1336.46 659.039L1283.82 678.26H1283.76L1283.84 678.32H1283.75V678.39L1293.63 733.549C1287.19 734.711 1280.59 734.728 1274.13 733.599L1282.82 683.549L1283.72 678.44V678.31L1280.14 684.52L1255.68 726.93L1255.95 727.09L1255.63 726.909C1249.96 723.641 1244.9 719.403 1240.69 714.39L1278.19 682.89L1283.06 678.799L1283.64 678.31L1283.26 678.46L1276.91 680.78L1230.91 697.52C1228.67 691.387 1227.52 684.909 1227.51 678.38L1276.51 678.299V678.349H1283.34V678.299H1283.51H1283.37V678.25L1276.89 675.9L1230.89 659.14C1232.01 656.075 1233.39 653.114 1235.02 650.289M1283.6 678.289H1283.51L1283.58 678.349L1283.6 678.289ZM1283.66 678.349V678.289V678.349ZM1283.79 678.349L1339.79 678.2C1339.82 684.767 1338.68 691.288 1336.43 697.46L1283.79 678.349ZM1283.73 678.44L1326.73 714.299C1322.52 719.352 1317.44 723.618 1311.73 726.9L1283.73 678.44Z" fill="#4FBBB7"/>
    <path d="M11.6336 536.65L1285.19 273.65L421.854 643.85L11.6336 536.65Z" fill="#F28F89"/>
    <path d="M709.924 767.87L1024.47 462.17L754.184 639.8L709.924 767.87Z" fill="#F28F89"/>
    <path fill-rule="evenodd" clip-rule="evenodd" d="M459.244 531.87C461.868 531.862 464.432 531.076 466.611 529.612C468.789 528.148 470.485 526.071 471.484 523.644C472.483 521.217 472.74 518.548 472.224 515.974C471.707 513.401 470.439 511.038 468.58 509.185C466.721 507.332 464.355 506.071 461.78 505.562C459.205 505.053 456.537 505.318 454.112 506.324C451.688 507.331 449.616 509.033 448.159 511.216C446.701 513.399 445.924 515.965 445.924 518.59C445.928 520.337 446.276 522.067 446.948 523.681C447.621 525.294 448.604 526.759 449.843 527.992C451.082 529.225 452.551 530.203 454.168 530.868C455.784 531.533 457.516 531.873 459.264 531.87" fill="#eb5953"/>
    <path fill-rule="evenodd" clip-rule="evenodd" d="M400.014 590.83C402.638 590.818 405.199 590.029 407.375 588.562C409.551 587.096 411.244 585.018 412.24 582.59C413.236 580.163 413.49 577.494 412.971 574.922C412.452 572.35 411.182 569.99 409.323 568.138C407.463 566.287 405.097 565.028 402.522 564.521C399.948 564.013 397.281 564.28 394.858 565.286C392.435 566.293 390.364 567.995 388.908 570.178C387.451 572.361 386.674 574.926 386.674 577.55C386.684 581.079 388.095 584.46 390.596 586.95C393.097 589.439 396.484 590.835 400.014 590.83Z" fill="#eb5953"/>
    <path fill-rule="evenodd" clip-rule="evenodd" d="M471.684 561.34C474.308 561.328 476.87 560.539 479.046 559.072C481.222 557.605 482.915 555.526 483.911 553.098C484.906 550.67 485.16 548.001 484.64 545.429C484.12 542.856 482.85 540.496 480.989 538.645C479.129 536.794 476.761 535.536 474.186 535.029C471.611 534.523 468.944 534.791 466.521 535.799C464.098 536.808 462.028 538.511 460.573 540.695C459.117 542.879 458.342 545.445 458.344 548.07C458.348 549.817 458.696 551.547 459.368 553.159C460.041 554.772 461.025 556.237 462.264 557.469C463.503 558.701 464.972 559.677 466.589 560.342C468.205 561.006 469.936 561.345 471.684 561.34Z" fill="#eb5953"/>
    <path fill-rule="evenodd" clip-rule="evenodd" d="M387.574 561.34C390.198 561.328 392.76 560.539 394.936 559.072C397.112 557.605 398.805 555.526 399.801 553.098C400.796 550.67 401.05 548.001 400.53 545.429C400.01 542.856 398.74 540.496 396.879 538.645C395.019 536.794 392.651 535.536 390.076 535.029C387.501 534.523 384.834 534.791 382.411 535.799C379.988 536.808 377.918 538.511 376.463 540.695C375.007 542.879 374.232 545.445 374.234 548.07C374.238 549.817 374.586 551.547 375.258 553.159C375.931 554.772 376.915 556.237 378.154 557.469C379.393 558.701 380.862 559.677 382.479 560.342C384.095 561.006 385.826 561.345 387.574 561.34Z" fill="#eb5953"/>
    <path fill-rule="evenodd" clip-rule="evenodd" d="M459.244 590.83C461.868 590.822 464.432 590.036 466.611 588.572C468.789 587.108 470.485 585.031 471.484 582.604C472.483 580.177 472.74 577.508 472.224 574.934C471.707 572.361 470.439 569.999 468.58 568.145C466.721 566.292 464.355 565.031 461.78 564.522C459.205 564.013 456.537 564.278 454.112 565.284C451.688 566.291 449.616 567.993 448.159 570.176C446.701 572.359 445.924 574.925 445.924 577.55C445.928 579.298 446.276 581.028 446.948 582.641C447.621 584.254 448.604 585.719 449.843 586.953C451.082 588.186 452.551 589.163 454.168 589.828C455.784 590.493 457.516 590.834 459.264 590.83" fill="#eb5953"/>
    <path fill-rule="evenodd" clip-rule="evenodd" d="M400.014 531.87C402.638 531.858 405.199 531.069 407.375 529.602C409.551 528.136 411.244 526.058 412.24 523.63C413.236 521.203 413.49 518.534 412.971 515.962C412.452 513.39 411.182 511.03 409.323 509.178C407.463 507.327 405.097 506.068 402.522 505.561C399.948 505.053 397.281 505.32 394.858 506.326C392.435 507.333 390.364 509.035 388.908 511.218C387.451 513.401 386.674 515.966 386.674 518.59C386.684 522.119 388.095 525.5 390.596 527.99C393.097 530.479 396.484 531.875 400.014 531.87Z" fill="#eb5953"/>
    <path fill-rule="evenodd" clip-rule="evenodd" d="M429.624 603.2C432.248 603.188 434.81 602.398 436.986 600.932C439.162 599.465 440.855 597.386 441.851 594.958C442.846 592.53 443.1 589.861 442.58 587.288C442.06 584.716 440.79 582.355 438.929 580.505C437.069 578.654 434.701 577.396 432.126 576.889C429.551 576.383 426.884 576.651 424.461 577.659C422.038 578.668 419.968 580.371 418.513 582.555C417.057 584.739 416.282 587.305 416.284 589.929C416.288 591.677 416.636 593.406 417.308 595.019C417.981 596.632 418.965 598.096 420.204 599.329C421.443 600.561 422.912 601.537 424.529 602.201C426.145 602.866 427.876 603.205 429.624 603.2Z" fill="#eb5953"/>
    <path fill-rule="evenodd" clip-rule="evenodd" d="M429.624 519.49C432.248 519.478 434.809 518.689 436.985 517.222C439.161 515.756 440.854 513.678 441.85 511.25C442.846 508.823 443.1 506.154 442.581 503.582C442.062 501.01 440.792 498.649 438.933 496.798C437.073 494.947 434.707 493.688 432.132 493.181C429.558 492.673 426.891 492.939 424.468 493.946C422.045 494.953 419.974 496.655 418.518 498.838C417.061 501.02 416.284 503.586 416.284 506.21C416.286 507.958 416.633 509.688 417.306 511.302C417.978 512.916 418.961 514.382 420.2 515.615C421.439 516.849 422.909 517.826 424.526 518.491C426.143 519.155 427.875 519.495 429.624 519.49Z" fill="#eb5953"/>
    <path d="M1285.19 273.65L816.364 367.98L826.364 550.22L1285.19 273.65Z" fill="#1760aa"/>
    <path d="M1285.19 273.65L816.364 367.98L696.294 285.08L1285.19 273.65Z" fill="white"/>
    <path d="M1285.19 273.65L887.114 390.85L826.364 550.22L1285.19 273.65Z" fill="#eb5953"/>
    <path d="M1285.19 273.65L887.114 390.85L1085.79 460.89L1285.19 273.65Z" fill="white"/>
    <path d="M88.7094 269.16L105.565 173.523H69.7016L52.8456 269.16H28.9364L45.7924 173.523H33.8378L38.1414 149.614H133.778L112.619 269.16H88.7094Z" fill="white"/>
    <path d="M168.937 221.341L160.449 269.16H136.54L153.396 173.523H141.441L145.745 149.614H241.382L228.71 221.341H168.937ZM177.305 173.523L173.121 197.432H208.985L213.169 173.523H177.305Z" fill="white"/>
    <path d="M253.348 149.614H348.985L327.825 269.16H232.188L253.348 149.614ZM272.953 173.523L260.401 245.251H308.22L320.772 173.523H272.953Z" fill="white"/>
    <path d="M432.679 149.614L428.375 173.523H380.557L378.524 185.478H426.343L422.039 209.387H374.221L368.004 245.251H415.823L411.519 269.16H339.791L360.951 149.614H432.679Z" fill="white"/>
    <path d="M463.822 221.341H455.812L447.325 269.16H423.415L444.575 149.614H468.484L459.996 197.432H489.883L498.371 149.614H540.212L535.908 173.523H517.976L509.608 221.341H493.23L518.694 269.16H489.285L463.822 221.341Z" fill="white"/>
    <path d="M607.648 173.523L590.792 269.16H566.882L583.738 173.523H541.897L546.201 149.614H653.793L649.489 173.523H607.648Z" fill="white"/>
    <path d="M659.781 149.614H755.418L734.259 269.16H638.622L659.781 149.614ZM679.387 173.523L666.835 245.251H714.653L727.205 173.523H679.387Z" fill="white"/>
    <path d="M790.577 221.341L782.089 269.16H758.18L775.036 173.523H763.081L767.385 149.614H863.022L850.35 221.341H790.577ZM798.945 173.523L794.761 197.432H830.625L834.809 173.523H798.945Z" fill="white"/>
    <path d="M940.738 149.614H964.647L943.488 269.16H919.579L930.338 208.191L882.041 245.251L877.737 269.16H853.828L874.988 149.614H898.897L888.138 210.582L936.435 173.523L940.738 149.614Z" fill="white"/>
    <path d="M1072.31 149.614L1051.15 269.16H1027.24L1035.73 221.341H1030.11L991.257 269.16H961.848L1000.7 221.341H975.955L984.323 173.523H972.369L976.672 149.614H1072.31ZM1008.23 173.523L1004.05 197.432H1039.91L1044.1 173.523H1008.23Z" fill="white"/>
    <path d="M46.2436 320.12H29.4436L33.8536 294.93H50.6436L52.1636 286.53H60.5536L59.0436 294.93H75.8436L71.4336 320.12H54.6336L53.1236 328.56H44.7236L46.2436 320.12ZM47.7036 311.73L49.1736 303.33H40.7836L39.3136 311.73H47.7036ZM57.5736 303.33L56.1036 311.73H64.5036L65.9736 303.33H57.5736Z" fill="white"/>
    <path d="M106.744 286.53L105.234 294.93H88.4436L87.7236 299.13H104.524L103.014 307.53H86.2137L84.0336 320.12H100.824L99.3137 328.52H74.1237L81.5536 286.52L106.744 286.53Z" fill="white"/>
    <path d="M145.634 320.08H151.214L148.214 336.96H139.814L141.284 328.56H111.924L110.454 336.96H102.054L105.054 320.08H110.604L130.294 286.53H137.854L145.634 320.08ZM119.804 320.08H136.394L131.694 299.84L119.804 320.08Z" fill="white"/>
    <path d="M186.534 286.53L185.014 294.93H168.224L167.504 299.13H184.304L182.794 307.53H165.994L163.814 320.12H180.604L179.094 328.52H153.924L161.354 286.52L186.534 286.53Z" fill="white"/>
    <path d="M198.924 311.73L195.924 328.52H187.524L193.444 294.93H189.244L190.754 286.53H224.354L219.924 311.73H198.924ZM201.864 294.93L200.394 303.33H212.924L214.394 294.93H201.864Z" fill="white"/>
    <path d="M247.164 311.73H232.464L229.464 328.52H221.064L228.504 286.52H259.994L252.564 328.52H244.164L247.164 311.73ZM250.104 294.93H235.404L233.934 303.33H248.634L250.104 294.93Z" fill="white"/>
    <path d="M280.754 299.84L263.924 328.52H254.694L279.334 286.52H286.924L296.714 328.52H287.474L280.754 299.84Z" fill="white"/>
    <path d="M309.564 303.33H332.654L328.244 328.52H296.754L304.144 286.52H312.544L309.564 303.33ZM321.324 320.12L322.784 311.73H308.094L306.624 320.12H321.324Z" fill="white"/>
    <path d="M362.974 286.53H371.374L363.944 328.53H355.544L358.774 310.53H344.074L340.844 328.53H332.444L339.874 286.53H348.274L345.714 301.23H360.414L362.974 286.53Z" fill="white"/>
    <path d="M383.974 286.53L380.974 303.33H399.924L395.474 328.52H368.174L375.614 286.52L383.974 286.53ZM378.044 320.12H388.544L390.014 311.73H379.514L378.044 320.12ZM405.934 328.52H397.534L404.924 286.52H413.324L405.934 328.52Z" fill="white"/>
    <path d="M440.654 286.53H449.054L441.624 328.53H433.224L437.004 307.12L420.004 320.12L418.494 328.52H410.094L417.534 286.52H425.924L422.184 308L439.184 295L440.654 286.53ZM428.774 282.33L425.334 278.13L426.424 271.83H432.724L432.004 276.03H438.304L439.014 271.83H445.314L444.224 278.13L439.274 282.33H428.774Z" fill="white"/>
    <path d="M485.124 320.12H468.324L472.734 294.93H489.534L491.044 286.53H499.444L497.934 294.93H514.724L510.324 320.12H493.524L492.014 328.56H483.614L485.124 320.12ZM486.594 311.73L488.064 303.33H479.664L478.194 311.73H486.594ZM496.464 303.33L494.994 311.73H503.394L504.864 303.33H496.464Z" fill="white"/>
    <path d="M520.434 286.53H554.034L546.594 328.53H513.004L520.434 286.53ZM527.324 294.93L522.924 320.12H539.724L544.134 294.93H527.324Z" fill="white"/>
    <path d="M566.374 311.73L563.374 328.52H554.974L560.924 294.93H556.724L558.244 286.53H591.824L587.374 311.73H566.374ZM569.314 294.93L567.844 303.33H580.444L581.914 294.93H569.314Z" fill="white"/>
    <path d="M604.004 286.53L610.004 302.28L621.634 286.53H631.714L600.764 328.53H590.684L603.414 311.27L597.114 294.94H590.314L591.824 286.54L604.004 286.53Z" fill="white"/>
    <path d="M638.854 305.39L634.784 328.52H626.384L633.814 286.52H644.314L649.644 315.66L665.304 286.52H675.804L668.374 328.52H659.974L664.044 305.39L651.574 328.52H643.174L638.854 305.39Z" fill="white"/>
    <path d="M53.1236 394L59.0436 360.41H46.4536L40.5336 394H32.1336L38.0536 360.41H33.8536L35.3636 352.01H68.9236L61.4936 394.01L53.1236 394Z" fill="white"/>
    <path d="M81.3036 377.23L78.3036 394.03H69.9236L75.8437 360.44H71.6436L73.1537 352.04H106.744L102.294 377.23H81.3036ZM84.2437 360.44L82.7737 368.83H95.3636L96.8336 360.44H84.2437Z" fill="white"/>
    <path d="M110.924 352H144.524L137.084 394H103.514L110.924 352ZM117.814 360.4L113.404 385.59H130.204L134.614 360.4H117.814Z" fill="white"/>
    <path d="M159.614 385.63H142.814L147.224 360.44H164.024L165.534 352.04H173.924L172.414 360.44H189.204L184.804 385.63H168.004L166.494 394.07H158.094L159.614 385.63ZM161.084 377.23L162.554 368.83H154.154L152.684 377.23H161.084ZM170.954 368.83L169.484 377.23H177.924L179.394 368.83H170.954Z" fill="white"/>
    <path d="M194.924 352H228.524L221.084 394H187.494L194.924 352ZM201.814 360.4L197.404 385.59H214.204L218.614 360.4H201.814Z" fill="white"/>
    <path d="M240.864 377.23L237.924 394H229.524L235.444 360.41H231.244L232.764 352.01H266.354L261.904 377.2L240.864 377.23ZM243.804 360.44L242.334 368.83H254.924L256.394 360.44H243.804Z" fill="white"/>
    <path d="M293.604 352H302.004L294.574 394H286.174L289.924 372.61L272.924 385.61L271.404 394.01H263.014L270.444 352.01H278.924L275.144 373.42L292.144 360.42L293.604 352Z" fill="white"/>
    <path d="M331.394 352L329.884 360.4H313.094L312.374 364.59H329.174L327.664 372.99H310.864L308.684 385.59H325.474L323.924 394H298.774L306.204 352H331.394Z" fill="white"/>
    <path d="M358.694 352H367.094L359.654 394H351.264L354.494 376H339.794L336.564 394H328.164L335.594 352H343.994L341.434 366.69H356.134L358.694 352Z" fill="white"/>
    <path d="M390.774 360.44L384.854 394H376.454L382.374 360.41H367.674L369.194 352.01H406.984L405.474 360.41L390.774 360.44Z" fill="white"/>
    <path d="M427.724 377.23H413.024L410.024 394.03H401.624L409.064 352.03H440.554L433.124 394.03H424.724L427.724 377.23ZM430.664 360.44H415.924L414.454 368.83H429.154L430.664 360.44Z" fill="white"/>
    <path d="M466.734 394H437.344L444.774 352H453.174L447.254 385.59H464.044L469.924 352H478.324L472.404 385.59H476.604L472.864 406.59H464.464L466.734 394Z" fill="white"/>
    <path d="M509.854 352H518.254L510.824 394H502.424L506.204 372.58L489.204 385.58L487.694 393.98H479.294L486.724 351.98H495.124L491.344 373.39L508.344 360.39L509.854 352Z" fill="white"/>
    <path d="M545.554 352H553.924L546.494 394H538.094L541.924 372.61L524.924 385.61L523.424 394H515.024L522.454 352H530.854L527.074 373.41L544.074 360.41L545.554 352Z" fill="white"/>
    <path fill-rule="evenodd" clip-rule="evenodd" d="M1194.65 75.65C1198.64 75.548 1202.44 73.8908 1205.23 71.0316C1208.01 68.1725 1209.57 64.3378 1209.57 60.345C1209.57 56.3523 1208.01 52.5176 1205.23 49.6585C1202.44 46.7993 1198.64 45.1421 1194.65 45.04C1190.89 45.0413 1187.26 46.429 1184.46 48.9379C1181.65 51.4467 1179.87 54.9008 1179.45 58.6401C1179.38 59.2074 1179.35 59.7785 1179.35 60.3501C1179.35 64.4079 1180.97 68.2995 1183.83 71.1688C1186.7 74.0381 1190.6 75.65 1194.65 75.65Z" fill="#3D7FBB"/>
    <path fill-rule="evenodd" clip-rule="evenodd" d="M1126.69 113C1126.17 112.996 1125.64 113.023 1125.11 113.08C1121.62 113.444 1118.36 115 1115.87 117.485C1113.39 119.971 1111.84 123.235 1111.47 126.73C1111.47 127.25 1111.39 127.73 1111.39 128.3C1111.4 132.357 1113.01 136.247 1115.88 139.116C1118.75 141.984 1122.64 143.597 1126.69 143.6C1130.75 143.597 1134.64 141.984 1137.51 139.116C1140.38 136.247 1141.99 132.357 1141.99 128.3C1141.99 124.243 1140.38 120.353 1137.51 117.484C1134.64 114.615 1130.75 113.002 1126.69 113Z" fill="#B6CFE5"/>
    <path fill-rule="evenodd" clip-rule="evenodd" d="M1208.92 79C1204.88 79.0365 1201.01 80.6602 1198.15 83.5216C1195.28 86.3831 1193.66 90.2535 1193.62 94.3C1193.62 98.3578 1195.24 102.249 1198.1 105.119C1200.97 107.988 1204.87 109.6 1208.92 109.6C1212.98 109.6 1216.87 107.988 1219.74 105.119C1222.61 102.249 1224.22 98.3578 1224.22 94.3C1224.22 90.2422 1222.61 86.3506 1219.74 83.4813C1216.87 80.612 1212.98 79 1208.92 79Z" fill="#6E9FCC"/>
    <path fill-rule="evenodd" clip-rule="evenodd" d="M1112.41 109.62C1116.47 109.614 1120.36 108.001 1123.23 105.132C1126.09 102.264 1127.71 98.3757 1127.71 94.3195C1127.71 90.2617 1126.1 86.3701 1123.23 83.5008C1120.36 80.6315 1116.47 79.0195 1112.41 79.0195C1108.37 79.0535 1104.49 80.676 1101.63 83.5377C1098.77 86.3994 1097.14 90.2713 1097.1 94.3195C1097.1 96.3296 1097.5 98.32 1098.27 100.177C1099.04 102.034 1100.17 103.721 1101.59 105.142C1103.01 106.563 1104.7 107.689 1106.56 108.458C1108.41 109.226 1110.4 109.621 1112.41 109.62Z" fill="#CFDFEE"/>
    <path fill-rule="evenodd" clip-rule="evenodd" d="M1194.66 113C1194.14 112.996 1193.61 113.023 1193.08 113.08C1189.59 113.444 1186.32 114.999 1183.84 117.485C1181.35 119.97 1179.8 123.234 1179.43 126.73C1179.43 127.25 1179.36 127.73 1179.36 128.3C1179.36 132.358 1180.98 136.249 1183.84 139.119C1186.71 141.988 1190.61 143.6 1194.66 143.6C1198.72 143.597 1202.61 141.984 1205.48 139.116C1208.35 136.247 1209.96 132.357 1209.96 128.3C1209.96 124.242 1208.35 120.35 1205.48 117.481C1202.61 114.612 1198.72 113 1194.66 113Z" fill="#86AFD4"/>
    <path fill-rule="evenodd" clip-rule="evenodd" d="M1126.69 45C1122.7 45.102 1118.91 46.7593 1116.12 49.6184C1113.33 52.4775 1111.77 56.3123 1111.77 60.305C1111.77 64.2977 1113.33 68.1325 1116.12 70.9916C1118.91 73.8507 1122.7 75.508 1126.69 75.61C1130.69 75.508 1134.48 73.8507 1137.27 70.9916C1140.05 68.1325 1141.61 64.2977 1141.61 60.305C1141.61 56.3123 1140.05 52.4775 1137.27 49.6184C1134.48 46.7593 1130.69 45.102 1126.69 45Z" fill="#CFDFEE"/>
    <path fill-rule="evenodd" clip-rule="evenodd" d="M1160.66 127.26C1156.67 127.362 1152.88 129.019 1150.09 131.878C1147.3 134.737 1145.74 138.572 1145.74 142.565C1145.74 146.558 1147.3 150.392 1150.09 153.251C1152.88 156.111 1156.67 157.768 1160.66 157.87C1162.71 157.922 1164.74 157.565 1166.64 156.819C1168.54 156.074 1170.28 154.955 1171.74 153.528C1173.2 152.102 1174.37 150.397 1175.16 148.514C1175.96 146.631 1176.36 144.608 1176.36 142.565C1176.36 140.521 1175.96 138.499 1175.16 136.616C1174.37 134.733 1173.2 133.028 1171.74 131.602C1170.28 130.175 1168.54 129.056 1166.64 128.311C1164.74 127.565 1162.71 127.208 1160.66 127.26Z" fill="#9EBFDD"/>
    <path fill-rule="evenodd" clip-rule="evenodd" d="M1160.66 30.7798C1157.64 30.7818 1154.68 31.6808 1152.17 33.3632C1149.65 35.0455 1147.69 37.4358 1146.54 40.2317C1145.38 43.0275 1145.08 46.1035 1145.67 49.0708C1146.26 52.0381 1147.72 54.7633 1149.86 56.9021C1152 59.0408 1154.72 60.497 1157.69 61.0865C1160.66 61.6761 1163.74 61.3725 1166.53 60.2142C1169.33 59.0559 1171.72 57.0948 1173.4 54.579C1175.08 52.0631 1175.97 49.1054 1175.97 46.0798C1175.97 42.0211 1174.36 38.1295 1171.49 35.2605C1168.61 32.3914 1164.72 30.7798 1160.66 30.7798Z" fill="white"/>
</svg>
