<svg width="679" height="105" viewBox="0 0 679 105" fill="none" xmlns="http://www.w3.org/2000/svg">
    <path d="M158.372 65.8579L155.921 79.668H149.016L153.884 52.0478H150.431L151.674 45.1427H179.294L175.635 65.8579H158.372ZM160.789 52.0478L159.58 58.9528H169.938L171.146 52.0478H160.789ZM182.75 45.1427H210.37L204.259 79.668H176.639L182.75 45.1427ZM188.412 52.0478L184.787 72.7629H198.597L202.222 52.0478H188.412ZM234.852 72.7629L233.609 79.668H207.715L208.958 72.7629H225.599L212.583 52.0478L213.826 45.1427H239.72L238.477 52.0478H221.802L234.852 72.7629ZM259.213 52.0478L254.345 79.668H247.44L252.308 52.0478H240.224L241.467 45.1427H272.539L271.297 52.0478H259.213ZM298.022 57.2265H287.665L285.835 67.5841H296.193L298.022 57.2265ZM281.174 74.4892C280.23 74.4892 279.471 74.1554 278.895 73.4879C278.343 72.7974 278.147 71.9803 278.309 71.0367L281.381 53.774C281.542 52.8303 282.014 52.0247 282.797 51.3572C283.602 50.6667 284.477 50.3215 285.421 50.3215H306.136L303.098 67.5841H304.824L308.173 48.5952H280.553L275.685 76.2154H310.21L309.001 83.1205H267.571L274.856 41.6902H316.286L310.521 74.4892H281.174ZM325.85 65.8579L323.399 79.668H316.493L321.362 52.0478H317.909L319.152 45.1427H346.772L343.112 65.8579H325.85ZM328.267 52.0478L327.058 58.9528H337.416L338.624 52.0478H328.267ZM359.343 52.0478L358.134 58.9528H368.492L369.7 52.0478H359.343ZM358.549 65.8579H356.926L354.475 79.668H347.57L352.438 52.0478H348.985L350.228 45.1427H377.848L374.189 65.8579H367.042L373.36 79.668H364.867L358.549 65.8579ZM381.304 45.1427H408.924L402.813 79.668H375.193L381.304 45.1427ZM386.966 52.0478L383.341 72.7629H397.151L400.776 52.0478H386.966ZM433.095 45.1427L431.853 52.0478H418.042L417.455 55.5003H431.266L430.023 62.4053H416.213L414.417 72.7629H428.227L426.984 79.668H406.269L412.38 45.1427H433.095ZM439.984 64.615L437.325 79.668H430.42L436.531 45.1427H443.436L440.812 59.954L454.899 45.1427H464.117L447.268 62.4053L458.006 79.668H448.788L439.984 64.615ZM480.164 52.0478L475.296 79.668H468.391L473.259 52.0478H461.175L462.418 45.1427H493.491L492.248 52.0478H480.164ZM495.221 45.1427H522.841L516.73 79.668H489.11L495.221 45.1427ZM500.883 52.0478L497.258 72.7629H511.068L514.693 52.0478H500.883ZM535.411 52.0478L534.203 58.9528H544.561L545.769 52.0478H535.411ZM534.617 65.8579H532.995L530.543 79.668H523.638L528.506 52.0478H525.054L526.297 45.1427H553.917L550.257 65.8579H543.111L549.429 79.668H540.936L534.617 65.8579ZM578.088 45.1427L576.845 52.0478H569.94L566.315 72.7629H573.22L571.977 79.668H551.262L552.505 72.7629H559.41L563.035 52.0478H556.13L557.373 45.1427H578.088ZM599.27 52.0478H587.186L585.978 58.9528H598.061L599.27 52.0478ZM596.853 65.8579H584.769L582.318 79.668H575.413L581.524 45.1427H607.418L601.307 79.668H594.402L596.853 65.8579ZM611.685 79.668H604.779L606.022 72.7629H612.927L611.685 79.668ZM630.349 52.0478L629.141 58.9528H639.498L640.707 52.0478H630.349ZM629.555 65.8579H627.932L625.481 79.668H618.576L623.444 52.0478H619.992L621.235 45.1427H648.855L645.195 65.8579H638.048L644.366 79.668H635.873L629.555 65.8579ZM654.348 72.7629H666.432L671.3 45.1427H678.205L672.094 79.668H646.2L652.311 45.1427H659.216L654.348 72.7629Z" fill="#0D5FAA"/>
    <path d="M89.5136 16.0898C96.7815 23.3639 101.73 32.63 103.733 42.7158C105.735 52.8016 104.703 63.2547 100.766 72.7539C96.829 82.2531 90.1641 90.3721 81.6137 96.084C73.0633 101.796 63.0113 104.844 52.7285 104.844C42.4458 104.844 32.3938 101.796 23.8434 96.084C15.293 90.3721 8.62804 82.2531 4.691 72.7539C0.753957 63.2547 -0.278384 52.8016 1.72451 42.7158C3.7274 32.63 8.6756 23.3639 15.9436 16.0898C20.7728 11.2566 26.5071 7.42262 32.8189 4.80664C39.1307 2.19066 45.8961 0.84375 52.7285 0.84375C59.561 0.84375 66.3264 2.19066 72.6382 4.80664C78.95 7.42262 84.6843 11.2566 89.5136 16.0898Z" fill="#FF8888"/>
    <path d="M79.8535 38.3486V71.3486H23.3635V38.3486H79.8535ZM83.0735 35.1289H20.1434V74.5293H83.0735V35.1289Z" fill="white"/>
    <path d="M71.9235 38.3496L51.6035 51L31.3434 38.3203H71.9235M83.1235 35.0996H20.1434L51.6035 54.7998L83.0735 35.0996H83.1235Z" fill="white"/>
</svg>
