<svg width="456" height="87" viewBox="0 0 456 87" fill="none" xmlns="http://www.w3.org/2000/svg">
    <path d="M216.163 30.6274H213.849L211.398 44.4375H204.493L210.604 9.91223H217.509L215.058 23.7223H223.689L226.14 9.91223H238.224L236.981 16.8173H231.802L229.386 30.6274H224.656L232.01 44.4375H223.516L216.163 30.6274ZM241.68 9.91223H269.3L263.189 44.4375H235.569L241.68 9.91223ZM247.342 16.8173L243.717 37.5324H257.527L261.152 16.8173H247.342ZM291.745 9.91223H298.65L292.539 44.4375H285.634L288.293 29.5916H276.209L273.55 44.4375H266.645L272.756 9.91223H279.661L277.555 21.9961H289.639L291.745 9.91223ZM318.143 16.8173L313.275 44.4375H306.369L311.238 16.8173H299.154L300.397 9.91223H331.469L330.226 16.8173H318.143ZM350.945 16.8173H338.861L337.653 23.7223H349.737L350.945 16.8173ZM348.528 30.6274H336.444L333.993 44.4375H327.088L333.199 9.91223H359.093L352.982 44.4375H346.077L348.528 30.6274ZM368.124 30.6274H365.811L363.36 44.4375H356.455L362.566 9.91223H369.471L367.019 23.7223H375.651L378.102 9.91223H390.186L388.943 16.8173H383.764L381.347 30.6274H376.617L383.971 44.4375H375.478L368.124 30.6274ZM409.662 16.8173L404.793 44.4375H397.888L402.756 16.8173H390.673L391.916 9.91223H422.988L421.745 16.8173H409.662ZM426.755 37.5324H435.386L436.595 30.6274H427.963L426.755 37.5324ZM431.623 9.91223L429.172 23.7223H444.708L441.048 44.4375H418.607L424.718 9.91223H431.623ZM449.68 44.4375H442.775L448.851 9.91223H455.756L449.68 44.4375Z" fill="white"/>
    <path d="M182.174 0.929688L37.8137 29.9697L40.8936 86.0898L182.174 0.929688Z" fill="#3D7FBB"/>
    <path d="M182.174 0.929688L37.8137 29.9697L0.843628 4.44922L182.174 0.929688Z" fill="white"/>
    <path d="M182.174 0.929688L59.5936 37.0195L40.8936 86.0898L182.174 0.929688Z" fill="#eb5953"/>
    <path d="M182.174 0.929688L59.5936 37.0195L120.774 58.5791L182.174 0.929688Z" fill="white"/>
</svg>
