<svg width="695" height="120" viewBox="0 0 695 120" fill="none" xmlns="http://www.w3.org/2000/svg">
    <path d="M125.084 32.7402L26.2637 52.6201L28.3737 91.0303L125.084 32.7402Z" fill="#3D7FBB"/>
    <path d="M125.084 32.7402L26.2637 52.6201L0.963623 35.1504L125.084 32.7402Z" fill="white"/>
    <path d="M125.084 32.7402L41.1836 57.4404L28.3737 91.0303L125.084 32.7402Z" fill="#eb5953"/>
    <path d="M125.084 32.7402L41.1836 57.4404L83.0536 72.2002L125.084 32.7402Z" fill="white"/>
    <path d="M174.716 97.6895L182.519 53.418H165.917L158.114 97.6895H147.046L154.849 53.418H149.315L151.308 42.3501H195.579L185.784 97.6895H174.716ZM211.854 75.5537L207.925 97.6895H196.857L204.66 53.418H199.126L201.118 42.3501H245.39L239.524 75.5537H211.854ZM215.728 53.418L213.791 64.4858H230.393L232.33 53.418H215.728ZM250.929 42.3501H295.201L285.406 97.6895H241.134L250.929 42.3501ZM260.005 53.418L254.194 86.6216H276.33L282.141 53.418H260.005ZM333.944 42.3501L331.952 53.418H309.816L308.875 58.9519H331.011L329.019 70.0198H306.883L304.005 86.6216H326.141L324.149 97.6895H290.945L300.74 42.3501H333.944ZM348.36 75.5537H344.653L340.723 97.6895H329.656L339.451 42.3501H350.519L346.589 64.4858H360.424L364.353 42.3501H383.722L381.73 53.418H373.429L369.555 75.5537H361.974L373.761 97.6895H360.148L348.36 75.5537ZM414.939 53.418L407.136 97.6895H396.068L403.871 53.418H384.502L386.495 42.3501H436.3L434.308 53.418H414.939ZM439.072 42.3501H483.344L473.549 97.6895H429.277L439.072 42.3501ZM448.148 53.418L442.337 86.6216H464.473L470.284 53.418H448.148ZM499.619 75.5537L495.69 97.6895H484.622L492.425 53.418H486.891L488.883 42.3501H533.155L527.289 75.5537H499.619ZM503.493 53.418L501.556 64.4858H518.158L520.095 53.418H503.493ZM569.131 42.3501H580.199L570.403 97.6895H559.336L564.316 69.4664L541.959 86.6216L539.967 97.6895H528.899L538.694 42.3501H549.762L544.781 70.5732L567.138 53.418L569.131 42.3501ZM630.036 42.3501L620.241 97.6895H609.173L613.103 75.5537H610.502L592.516 97.6895H578.903L596.888 75.5537H585.433L589.307 53.418H583.773L585.765 42.3501H630.036ZM600.374 53.418L598.438 64.4858H615.039L616.976 53.418H600.374Z" fill="white"/>
    <path fill-rule="evenodd" clip-rule="evenodd" d="M682.334 19.2305C684.057 19.2305 685.711 18.5452 686.93 17.3262C688.149 16.1072 688.834 14.4544 688.834 12.7305C688.834 11.0066 688.149 9.35278 686.93 8.13379C685.711 6.9148 684.057 6.23047 682.334 6.23047C680.744 6.24025 679.213 6.83291 678.031 7.89648C676.85 8.96005 676.1 10.4201 675.924 12C675.908 12.2431 675.908 12.4874 675.924 12.7305C675.923 14.4389 676.596 16.0785 677.795 17.2949C678.995 18.5114 680.625 19.2068 682.334 19.2305Z" fill="#3D7FBB"/>
    <path fill-rule="evenodd" clip-rule="evenodd" d="M653.484 35.0801C653.254 35.0801 653.034 35.0801 652.814 35.0801C651.328 35.2332 649.94 35.8929 648.883 36.9493C647.827 38.0056 647.167 39.3939 647.014 40.88C647.014 41.09 647.014 41.3201 647.014 41.5401C647.014 43.264 647.698 44.9168 648.917 46.1358C650.136 47.3548 651.79 48.0401 653.514 48.0401C655.237 48.0401 656.891 47.3548 658.11 46.1358C659.329 44.9168 660.014 43.264 660.014 41.5401C660.003 39.8179 659.309 38.1703 658.085 36.9591C656.861 35.7478 655.206 35.0722 653.484 35.0801Z" fill="#B6CFE5"/>
    <path fill-rule="evenodd" clip-rule="evenodd" d="M688.393 20.6602C686.802 20.6615 685.267 21.2468 684.078 22.3047C682.889 23.3626 682.13 24.8199 681.944 26.4004C681.928 26.6535 681.928 26.9071 681.944 27.1602C681.946 28.8823 682.632 30.5332 683.851 31.75C685.07 32.9668 686.721 33.6504 688.444 33.6504C690.167 33.6504 691.821 32.9651 693.04 31.7461C694.259 30.5271 694.944 28.8743 694.944 27.1504C694.944 25.4265 694.259 23.7727 693.04 22.5537C691.821 21.3347 690.167 20.6504 688.444 20.6504L688.393 20.6602Z" fill="#6E9FCC"/>
    <path fill-rule="evenodd" clip-rule="evenodd" d="M647.424 33.6504C648.769 33.6503 650.081 33.2324 651.179 32.4551C652.277 31.6777 653.106 30.5784 653.554 29.3096C653.794 28.618 653.919 27.8922 653.924 27.1602C653.924 25.4362 653.239 23.7825 652.02 22.5635C650.801 21.3445 649.147 20.6602 647.424 20.6602C645.832 20.6615 644.297 21.2468 643.108 22.3047C641.919 23.3626 641.16 24.8199 640.974 26.4004C640.958 26.6535 640.958 26.9071 640.974 27.1602C640.976 28.8823 641.662 30.5332 642.881 31.75C644.1 32.9668 645.751 33.6504 647.474 33.6504H647.424Z" fill="#CFDFEE"/>
    <path fill-rule="evenodd" clip-rule="evenodd" d="M682.344 35.0801C682.114 35.0801 681.894 35.0801 681.674 35.0801C680.189 35.2335 678.802 35.8938 677.747 36.9503C676.693 38.0068 676.034 39.3948 675.884 40.88C675.884 41.09 675.884 41.3201 675.884 41.5401C675.884 43.264 676.568 44.9168 677.787 46.1358C679.006 47.3548 680.66 48.0401 682.384 48.0401C684.106 48.0375 685.756 47.3516 686.973 46.1329C688.19 44.9142 688.874 43.2623 688.874 41.5401C688.863 39.8179 688.169 38.1703 686.945 36.9591C685.721 35.7478 684.066 35.0722 682.344 35.0801Z" fill="#86AFD4"/>
    <path fill-rule="evenodd" clip-rule="evenodd" d="M653.484 6.24023C651.76 6.24023 650.106 6.92457 648.887 8.14355C647.668 9.36254 646.984 11.0163 646.984 12.7402C646.984 14.4641 647.668 16.117 648.887 17.3359C650.106 18.5549 651.76 19.2402 653.484 19.2402C655.208 19.2402 656.861 18.5549 658.08 17.3359C659.299 16.117 659.984 14.4641 659.984 12.7402C659.984 11.0163 659.299 9.36254 658.08 8.14355C656.861 6.92457 655.208 6.24023 653.484 6.24023Z" fill="#CFDFEE"/>
    <path fill-rule="evenodd" clip-rule="evenodd" d="M667.924 41.1396C666.2 41.1396 664.546 41.825 663.327 43.0439C662.108 44.2629 661.424 45.9157 661.424 47.6396C661.424 49.3636 662.108 51.0173 663.327 52.2363C664.546 53.4553 666.2 54.1396 667.924 54.1396C669.647 54.1396 671.301 53.4553 672.52 52.2363C673.739 51.0173 674.424 49.3636 674.424 47.6396C674.424 45.9157 673.739 44.2629 672.52 43.0439C671.301 41.825 669.647 41.1396 667.924 41.1396Z" fill="#9EBFDD"/>
    <path fill-rule="evenodd" clip-rule="evenodd" d="M667.924 0.179688C666.638 0.179687 665.381 0.561161 664.312 1.27539C663.243 1.98962 662.41 3.00466 661.918 4.19238C661.426 5.3801 661.298 6.68737 661.548 7.94824C661.799 9.20912 662.418 10.3673 663.327 11.2764C664.236 12.1854 665.395 12.8039 666.656 13.0547C667.916 13.3055 669.223 13.1775 670.411 12.6855C671.599 12.1936 672.614 11.3599 673.328 10.291C674.042 9.2221 674.424 7.96527 674.424 6.67969C674.424 4.95578 673.739 3.30297 672.52 2.08398C671.301 0.864998 669.648 0.179688 667.924 0.179688Z" fill="white"/>
</svg>
