<svg width="347" height="105" viewBox="0 0 347 105" fill="none" xmlns="http://www.w3.org/2000/svg">
    <path d="M152.924 43.8298C151.413 43.8759 149.909 43.6232 148.496 43.086C147.084 42.5489 145.792 41.7379 144.694 40.6998C142.585 38.545 141.404 35.65 141.404 32.6348C141.404 29.6197 142.585 26.7245 144.694 24.5698C145.792 23.5317 147.084 22.7208 148.496 22.1837C149.909 21.6465 151.413 21.3937 152.924 21.4398C154.771 21.3766 156.598 21.8404 158.192 22.7772C159.786 23.7139 161.08 25.0849 161.924 26.7298L157.924 28.7298C157.438 27.8059 156.717 27.0264 155.834 26.4698C154.942 25.8868 153.899 25.5774 152.834 25.5798C151.927 25.5513 151.024 25.7147 150.185 26.0594C149.346 26.4041 148.589 26.9222 147.964 27.5798C146.726 28.9886 146.044 30.7997 146.044 32.6749C146.044 34.55 146.726 36.3611 147.964 37.7699C148.589 38.427 149.346 38.9448 150.185 39.2894C151.024 39.634 151.927 39.7977 152.834 39.7699C153.897 39.7712 154.939 39.4656 155.834 38.8899C156.724 38.3373 157.446 37.5525 157.924 36.6198L161.924 38.5299C161.071 40.1682 159.775 41.5338 158.184 42.4709C156.593 43.4081 154.77 43.8789 152.924 43.8298Z" fill="#eb5953"/>
    <path d="M183.274 43.4497H177.584L171.034 34.7798L169.344 36.7798V43.4397H164.734V21.7998H169.344V31.4697L177.004 21.7998H182.684L174.084 31.9597L183.274 43.4497Z" fill="#eb5953"/>
    <path d="M205.564 43.4497H200.304L198.974 39.7798H189.694L188.334 43.4497H183.074L191.444 21.7998H197.224L205.564 43.4497ZM197.714 35.7197L194.334 26.4098L190.964 35.7197H197.714Z" fill="#eb5953"/>
    <path d="M211.664 21.7998V27.8698C211.664 30.4831 212.997 31.7898 215.664 31.7898C217.073 31.82 218.475 31.5788 219.794 31.0797V21.7998H224.404V43.4497H219.794V35.1398C218.276 35.6021 216.7 35.8412 215.114 35.8497C212.447 35.8497 210.447 35.1397 209.114 33.7197C207.705 32.1075 206.987 30.0066 207.114 27.8698V21.7998H211.664Z" fill="#eb5953"/>
    <path d="M248.834 43.4497H243.574L242.244 39.7798H232.924L231.554 43.4497H226.294L234.674 21.7998H240.454L248.834 43.4497ZM240.974 35.7197L237.604 26.4098L234.224 35.7197H240.974Z" fill="#eb5953"/>
    <path d="M260.484 43.4498H255.844V25.8499H249.514V21.8499H266.784V25.8499H260.484V43.4498Z" fill="#eb5953"/>
    <path d="M269.734 21.7998H274.344V29.4897H279.864C280.84 29.4363 281.818 29.5865 282.734 29.9308C283.65 30.2751 284.484 30.8059 285.184 31.4897C286.445 32.8491 287.146 34.6351 287.146 36.4897C287.146 38.3444 286.445 40.1304 285.184 41.4897C284.48 42.1741 283.642 42.7052 282.723 43.0494C281.804 43.3937 280.824 43.5436 279.844 43.4897H269.714L269.734 21.7998ZM279.244 33.5498H274.344V39.3898H279.244C280.08 39.4205 280.898 39.1348 281.534 38.5897C281.813 38.311 282.035 37.9799 282.187 37.6152C282.338 37.2506 282.416 36.8596 282.416 36.4647C282.416 36.0699 282.338 35.679 282.187 35.3143C282.035 34.9497 281.813 34.6184 281.534 34.3397C280.897 33.7974 280.079 33.5153 279.244 33.5498Z" fill="#eb5953"/>
    <path d="M161.924 82.3898H157.284V64.7998H147.054V82.3898H142.444V60.7498H161.924V82.3898Z" fill="#eb5953"/>
    <path d="M170.774 82.3899H166.164V60.7499H176.294C177.274 60.6955 178.254 60.8451 179.173 61.1894C180.093 61.5337 180.93 62.0651 181.634 62.7499C182.895 64.1093 183.596 65.8953 183.596 67.7499C183.596 69.6045 182.895 71.3906 181.634 72.7499C180.934 73.4337 180.1 73.9646 179.184 74.3089C178.268 74.6532 177.291 74.8034 176.314 74.7499H170.794L170.774 82.3899ZM175.674 70.6399C176.509 70.6744 177.327 70.3923 177.964 69.8499C178.243 69.5712 178.465 69.2401 178.617 68.8754C178.768 68.5108 178.846 68.1197 178.846 67.7249C178.846 67.3301 178.768 66.9392 178.617 66.5745C178.465 66.2099 178.243 65.8786 177.964 65.5999C177.328 65.0548 176.51 64.7692 175.674 64.8H170.774V70.6399H175.674Z" fill="#eb5953"/>
    <path d="M196.674 82.7799C195.18 82.8312 193.691 82.5775 192.298 82.0342C190.905 81.4909 189.638 80.6693 188.574 79.6199C186.519 77.449 185.375 74.5737 185.375 71.5848C185.375 68.596 186.519 65.7208 188.574 63.5499C190.787 61.5176 193.683 60.3899 196.689 60.3899C199.694 60.3899 202.59 61.5176 204.804 63.5499C206.858 65.7269 208.002 68.6067 208.002 71.5999C208.002 74.593 206.858 77.4729 204.804 79.6499C203.729 80.6915 202.454 81.5055 201.057 82.0433C199.661 82.5811 198.17 82.8317 196.674 82.7799ZM191.914 76.6799C192.533 77.3165 193.274 77.8223 194.093 78.1677C194.911 78.5132 195.79 78.6912 196.679 78.6912C197.567 78.6912 198.446 78.5132 199.265 78.1677C200.083 77.8223 200.824 77.3165 201.444 76.6799C202.628 75.2462 203.276 73.4445 203.276 71.5848C203.276 69.7252 202.628 67.9236 201.444 66.4899C200.824 65.8533 200.083 65.3474 199.265 65.002C198.446 64.6565 197.567 64.4785 196.679 64.4785C195.79 64.4785 194.911 64.6565 194.093 65.002C193.274 65.3474 192.533 65.8533 191.914 66.4899C190.749 67.9325 190.113 69.7306 190.113 71.5848C190.113 73.439 190.749 75.2373 191.914 76.6799Z" fill="#eb5953"/>
    <path d="M215.854 82.3898H211.244V60.7498H226.564V64.7498H215.854V82.3898Z" fill="#eb5953"/>
    <path d="M234.384 82.3899H229.784V60.7499H239.924C240.904 60.6955 241.884 60.8451 242.804 61.1894C243.723 61.5337 244.561 62.0651 245.264 62.7499C246.523 64.1104 247.223 65.896 247.223 67.7499C247.223 69.6039 246.523 71.3895 245.264 72.7499C244.562 73.4335 243.726 73.9642 242.808 74.3084C241.891 74.6526 240.912 74.803 239.934 74.7499H234.414L234.384 82.3899ZM239.294 70.6399C240.126 70.6759 240.942 70.3934 241.574 69.8499C241.853 69.5712 242.075 69.2401 242.227 68.8754C242.378 68.5108 242.456 68.1197 242.456 67.7249C242.456 67.3301 242.378 66.9392 242.227 66.5745C242.075 66.2099 241.853 65.8786 241.574 65.5999C240.943 65.0537 240.128 64.7678 239.294 64.8H234.384V70.6399H239.294Z" fill="#eb5953"/>
    <path d="M270.224 82.3898H264.924L263.594 78.7297H254.314L252.944 82.3898H247.684L256.064 60.7498H261.924L270.224 82.3898ZM262.364 74.6698L258.994 65.3497L255.614 74.6698H262.364Z" fill="#eb5953"/>
    <path d="M295.704 82.3898H291.064V67.2397L284.954 82.3898H282.954L276.854 67.2397V82.3898H272.244V60.7498H278.704L283.964 73.8297L289.214 60.7498H295.714L295.704 82.3898Z" fill="#eb5953"/>
    <path d="M323.454 82.3898H318.814V67.2397L312.704 82.3898H310.704L304.604 67.2397V82.3898H299.994V60.7498H306.454L311.714 73.8297L316.964 60.7498H323.464L323.454 82.3898Z" fill="#eb5953"/>
    <path d="M330.654 82.7798C329.7 82.7842 328.752 82.6391 327.844 82.3497C327.079 82.1207 326.368 81.7397 325.754 81.2297L327.504 77.5298C328.273 78.2251 329.258 78.6345 330.294 78.6897C330.945 78.7276 331.591 78.552 332.134 78.1897C332.691 77.711 333.138 77.1174 333.444 76.4497L325.444 60.7498H330.664L336.024 72.2397L341.414 60.7498H346.634L337.714 78.2397C337.088 79.5747 336.143 80.7353 334.964 81.6198C333.682 82.4438 332.176 82.8492 330.654 82.7798Z" fill="#eb5953"/>
    <path fill-rule="evenodd" clip-rule="evenodd" d="M43.3635 22.2097C41.0943 19.8308 39.8457 16.6587 39.8844 13.3712C39.9232 10.0838 41.2463 6.94195 43.5711 4.61721C45.8958 2.29247 49.0376 0.969321 52.3251 0.930563C55.6125 0.891806 58.7847 2.14053 61.1636 4.40981V4.40981C63.3506 6.59663 64.6555 9.51244 64.8289 12.6004C65.0023 15.6883 64.0321 18.7319 62.1037 21.1498C61.8121 21.5218 61.4981 21.8758 61.1636 22.2097C59.9953 23.3793 58.6078 24.3071 57.0807 24.9401C55.5536 25.5731 53.9167 25.8989 52.2636 25.8989C50.6104 25.8989 48.9736 25.5731 47.4464 24.9401C45.9193 24.3071 44.5319 23.3793 43.3635 22.2097V22.2097Z" fill="#FF7777"/>
    <path fill-rule="evenodd" clip-rule="evenodd" d="M61.1636 83.4299C61.4728 83.7461 61.7633 84.08 62.0336 84.4299C63.8548 86.6735 64.8489 89.4752 64.8489 92.3649C64.8489 95.2546 63.8548 98.0564 62.0336 100.3C61.7636 100.62 61.4736 100.94 61.1736 101.3C58.8144 103.659 55.6148 104.984 52.2786 104.984C48.9423 104.984 45.7427 103.659 43.3835 101.3V101.3C41.0246 98.9408 39.6993 95.7411 39.6993 92.4049C39.6993 89.0687 41.0246 85.8691 43.3835 83.5099V83.5099C45.7317 81.1433 48.9233 79.8057 52.2571 79.7907C55.5909 79.7757 58.7942 81.0846 61.1636 83.4299V83.4299Z" fill="#FFCCCC"/>
    <path fill-rule="evenodd" clip-rule="evenodd" d="M33.1037 15.8598C35.2832 18.0357 36.5888 20.9355 36.7731 24.0098C36.9574 27.084 36.0076 30.1191 34.1037 32.5398C33.7953 32.9347 33.4613 33.3089 33.1037 33.6598V33.6598C30.7445 36.0188 27.5449 37.344 24.2086 37.344C20.8724 37.344 17.6728 36.0188 15.3136 33.6598V33.6598C13.0443 31.2809 11.7956 28.1086 11.8344 24.8212C11.8731 21.5337 13.1963 18.3919 15.521 16.0672C17.8458 13.7424 20.9876 12.4193 24.275 12.3805C27.5625 12.3418 30.7346 13.5905 33.1135 15.8598H33.1037Z" fill="#FF9999"/>
    <path fill-rule="evenodd" clip-rule="evenodd" d="M71.4236 89.7699C69.5832 87.9259 68.3602 85.5563 67.9231 82.9879C67.4861 80.4195 67.8567 77.7789 68.9837 75.4299C69.5924 74.1481 70.4178 72.9809 71.4236 71.9799V71.9799C72.5911 70.8106 73.9777 69.883 75.504 69.2501C77.0302 68.6172 78.6663 68.2915 80.3187 68.2915C81.971 68.2915 83.6071 68.6172 85.1334 69.2501C86.6596 69.883 88.0462 70.8106 89.2137 71.9799C91.3932 74.1558 92.6988 77.0556 92.8831 80.1299C93.0674 83.2041 92.1176 86.2392 90.2137 88.6599C89.9078 89.0538 89.5736 89.4247 89.2137 89.7699V89.7699C88.0462 90.9391 86.6596 91.8668 85.1334 92.4996C83.6071 93.1325 81.971 93.4583 80.3187 93.4583C78.6663 93.4583 77.0302 93.1325 75.504 92.4996C73.9777 91.8668 72.5911 90.9391 71.4236 89.7699Z" fill="#FFDDDD"/>
    <path fill-rule="evenodd" clip-rule="evenodd" d="M21.6436 43.9099C21.9528 44.226 22.2432 44.5599 22.5135 44.9099C24.3348 47.1534 25.329 49.9551 25.329 52.8449C25.329 55.7346 24.3348 58.5364 22.5135 60.7799C22.2435 61.1099 21.9536 61.4199 21.6536 61.7799C19.2944 64.1389 16.0948 65.4641 12.7585 65.4641C9.42232 65.4641 6.2227 64.1389 3.86353 61.7799V61.7799C1.50456 59.4207 0.179443 56.2211 0.179443 52.8849C0.179443 49.5487 1.50456 46.349 3.86353 43.9899V43.9899C6.21168 41.6233 9.40327 40.2856 12.7371 40.2706C16.0708 40.2556 19.2742 41.5646 21.6436 43.9099V43.9099Z" fill="#FFAAAA"/>
    <path fill-rule="evenodd" clip-rule="evenodd" d="M100.664 43.9198C103.024 46.2789 104.351 49.479 104.352 52.8162C104.353 56.1534 103.028 59.3543 100.669 61.7147C99.5005 62.8835 98.1136 63.8108 96.5872 64.4436C95.0607 65.0764 93.4245 65.4022 91.7721 65.4027C88.4349 65.4036 85.234 64.0788 82.8735 61.7197V61.7197C80.5131 59.3606 79.1866 56.1605 79.1857 52.8232C79.1847 49.486 80.5094 46.2852 82.8685 43.9248C85.2276 41.5644 88.4278 40.2378 91.765 40.2368C95.1022 40.2359 98.3031 41.5607 100.664 43.9198Z" fill="#FFDDDD"/>
    <path fill-rule="evenodd" clip-rule="evenodd" d="M33.1135 71.9999C35.4356 74.3666 36.7295 77.5545 36.7137 80.8701C36.698 84.1858 35.3738 87.361 33.0293 89.7056C30.6848 92.0501 27.5094 93.3742 24.1937 93.39C20.8781 93.4058 17.6904 92.112 15.3236 89.7899V89.7899C14.1548 88.6218 13.2276 87.235 12.5948 85.7085C11.9621 84.182 11.6361 82.5459 11.6356 80.8934C11.6352 79.241 11.9601 77.6047 12.592 76.0779C13.224 74.5511 14.1505 73.1636 15.3186 71.9949C16.4867 70.8261 17.8736 69.8989 19.4 69.2661C20.9265 68.6333 22.5627 68.3073 24.2151 68.3069C25.8675 68.3064 27.5038 68.6315 29.0306 69.2634C30.5575 69.8954 31.9448 70.8218 33.1135 71.9899V71.9999Z" fill="#FFBBBB"/>
    <path fill-rule="evenodd" clip-rule="evenodd" d="M89.2036 15.8798C90.9631 17.6391 92.1612 19.8806 92.6467 22.3209C93.1322 24.7612 92.8833 27.2907 91.9311 29.5895C90.979 31.8882 89.3665 33.853 87.2977 35.2354C85.2289 36.6177 82.7967 37.3556 80.3086 37.3556C77.8204 37.3556 75.3881 36.6177 73.3193 35.2354C71.2505 33.853 69.6381 31.8882 68.686 29.5895C67.7339 27.2907 67.4848 24.7612 67.9703 22.3209C68.4558 19.8806 69.6541 17.6391 71.4136 15.8798C73.7727 13.5208 76.9724 12.1956 80.3086 12.1956C83.6448 12.1956 86.8444 13.5208 89.2036 15.8798V15.8798Z" fill="#FFDDDD"/>
</svg>
