<svg width="493" height="86" viewBox="0 0 493 86" fill="none" xmlns="http://www.w3.org/2000/svg">
    <path d="M182.174 0.189941L37.8137 29.2397L40.8936 85.3501L182.174 0.189941Z" fill="#3D7FBB"/>
    <path d="M182.174 0.189941L37.8137 29.2397L0.843628 3.70947L182.174 0.189941Z" fill="white"/>
    <path d="M182.174 0.189941L59.5936 36.2798L40.8936 85.3501L182.174 0.189941Z" fill="#eb5953"/>
    <path d="M182.174 0.189941L59.5936 36.2798L120.774 57.8403L182.174 0.189941Z" fill="white"/>
    <path d="M214.747 24.6734L211.398 43.6968H204.493L210.604 9.17151H219.235L223.62 33.132L236.498 9.17151H245.129L239.018 43.6968H232.113L235.462 24.6734L225.208 43.6968H218.303L214.747 24.6734ZM267.55 9.17151H274.455L268.344 43.6968H261.439L264.547 26.0889L250.599 36.7917L249.356 43.6968H242.451L248.562 9.17151H255.467L252.359 26.7794L266.308 16.0766L267.55 9.17151ZM291.531 20.116L277.687 43.6968H270.091L290.357 9.17151H296.572L304.616 43.6968H297.021L291.531 20.116ZM324.404 20.116L310.56 43.6968H302.964L323.231 9.17151H329.445L337.489 43.6968H329.894L324.404 20.116ZM364.39 9.17151L363.147 16.0766H349.337L348.75 19.5291H362.56L361.317 26.4341H347.507L345.712 36.7917H359.522L358.279 43.6968H337.564L343.675 9.17151H364.39ZM386.814 9.17151H393.719L387.608 43.6968H380.703L383.362 28.8509H371.278L368.619 43.6968H361.714L367.825 9.17151H374.73L372.624 21.2554H384.708L386.814 9.17151ZM416.181 9.17151H423.086L416.975 43.6968H410.07L413.177 26.0889L399.229 36.7917L397.986 43.6968H391.081L397.192 9.17151H404.097L400.99 26.7794L414.938 16.0766L416.181 9.17151ZM433.119 9.17151L438.056 22.1185L447.619 9.17151H455.905L430.46 43.6968H422.174L432.635 29.5069L427.456 16.0766H421.863L423.106 9.17151H433.119ZM461.778 24.6734L458.429 43.6968H451.524L457.635 9.17151H466.266L470.651 33.132L483.529 9.17151H492.16L486.049 43.6968H479.144L482.493 24.6734L472.239 43.6968H465.334L461.778 24.6734Z" fill="white"/>
</svg>
