<svg width="410" height="415" viewBox="0 0 410 415" fill="none" xmlns="http://www.w3.org/2000/svg">
    <g clip-path="url(#clip0_72_9)">
        <mask id="mask0_72_9" style="mask-type:alpha" maskUnits="userSpaceOnUse" x="-1233" y="-182" width="1992" height="579">
            <path d="M-1161 396.76L759 129.36L687.5 -182L-1232.5 85.4097L-1161 396.76Z" fill="#0D5FAA"/>
        </mask>
        <g mask="url(#mask0_72_9)">
            <path d="M51.9998 72.1897C59.8957 63.2942 68.5481 55.1005 77.8598 47.7L189.63 188.31L189.44 188.46L205.18 208.24L205.32 208.07L205.67 208.49L205.47 207.91L205.6 207.76L197.68 183.99H197.55L141 13.5296C163.732 5.96774 187.612 2.43826 211.56 3.0999L206.71 182.63C206.67 182.64 206.629 182.64 206.59 182.63L205.94 207.38L206.05 207.26V208.77L207.16 206.03L281.67 17.4598C304.009 26.2765 324.626 38.949 342.58 54.8997L223.44 189.29L223.61 189.44L223.46 189.31L206.05 208.9V208.97H206.11H206.06L206.47 208.75L229.12 196.51L387.12 110.95C398.579 132.079 406.233 155.059 409.73 178.84L206.4 208.92L206.32 209.01H206.42H206.2V209.07H206.29L206.5 209.33L206.21 209.15V209.07V209.3V209.22L206.14 209.29L200.81 414.78C176.796 414.179 153.074 409.359 130.73 400.54L199.01 227.16L206.01 209.44V209.5L206.2 209.03L188.76 228.7L188.89 228.81L69.5898 363.07L70.4398 363.83L69.4398 362.94C51.4764 347.01 36.4426 328.057 25.0198 306.94L182.85 221.46L203.38 210.36L205.81 209.04L204.33 209.26L204.43 209.14L179.89 212.78C179.894 212.803 179.894 212.827 179.89 212.85L2.19978 238.95C-1.29401 215.248 -0.617154 191.118 4.19978 167.65L180.2 203.65C180.2 203.72 180.2 203.79 180.2 203.85L204.77 208.85L204.9 208.71L205.5 208.83L205.04 208.54L205.18 208.38L183.65 195.15L183.55 195.3L30.6699 101C36.9553 90.8192 44.1122 81.203 52.0599 72.2596M205.85 208.79L205.55 208.61L205.77 208.87H205.88L205.85 208.79ZM205.78 208.99H205.61L205.89 209.04L205.78 208.99ZM206.04 208.88L205.97 208.64V208.79L206.04 208.88ZM205.91 208.97H205.84L205.91 209.03V208.97ZM206.03 208.9H205.96V208.96L206.03 208.9Z" fill="#3D7FBB"/>
        </g>
    </g>
    <defs>
        <clipPath id="clip0_72_9">
            <rect width="410" height="415" fill="white"/>
        </clipPath>
    </defs>
</svg>
