<svg width="410" height="412" viewBox="0 0 410 412" fill="none" xmlns="http://www.w3.org/2000/svg">
    <path d="M52.0373 69.1681C59.9445 60.28 68.5995 52.0869 77.9073 44.6784L189.677 185.298L189.487 185.448L205.227 205.228L205.367 205.058L205.717 205.478L205.517 204.898L205.647 204.748L197.727 180.978H197.597L140.997 10.5084C163.733 2.94723 187.616 -0.582702 211.567 0.0782606L206.717 179.608H206.597L205.947 204.358L206.057 204.238L206.007 205.748L207.117 203.008L281.647 14.3981C303.985 23.2172 324.602 35.8895 342.557 51.838L223.477 186.238C223.537 186.238 223.587 186.338 223.647 186.388L223.497 186.258L206.087 205.848L206.037 205.908H206.097L206.507 205.688L229.157 193.458L387.157 107.908C398.613 129.039 406.266 152.018 409.767 175.798L206.337 205.818L206.257 205.908H206.357H206.137V205.958H206.227L206.437 206.228L206.147 206.048V205.968H206.097V206.198V206.118L206.027 206.188L200.697 411.678C176.643 411.119 152.874 406.332 130.477 397.538L198.767 224.148L205.767 206.438V206.498L205.957 206.028L188.477 225.628L188.607 225.738L69.3473 360.018L70.1973 360.778L69.1973 359.888C51.2277 343.946 36.1933 324.975 24.7773 303.838L182.837 218.458L203.367 207.348L205.807 206.028L204.317 206.258L204.427 206.138L179.887 209.778C179.887 209.778 179.887 209.778 179.887 209.838L2.19734 235.948C-1.29645 212.247 -0.619596 188.117 4.19734 164.648L180.197 200.648C180.197 200.718 180.197 200.778 180.197 200.848L204.767 205.848L204.897 205.708L205.497 205.818L205.037 205.538L205.177 205.378L183.647 192.148L183.547 192.298L30.6673 97.9982C36.9551 87.8161 44.1118 78.1969 52.0573 69.2482M205.847 205.788L205.547 205.608L205.767 205.868H205.877L205.847 205.788ZM205.777 205.988H205.607H205.887H205.777ZM206.037 205.868L205.967 205.628V205.788L206.037 205.878V205.868ZM205.907 205.968H205.837L205.907 206.028V205.968ZM206.027 205.898H205.957V205.948L206.027 205.898ZM206.027 205.958V206.018V205.958ZM206.137 205.958H206.087V206.008H206.167L206.137 205.958ZM206.557 206.108L407.767 247.018C402.998 270.635 394.098 293.225 381.477 313.748L206.557 206.108ZM206.297 206.408L334.297 367.068C315.451 382.088 294.104 393.669 271.237 401.278L206.297 206.408Z" fill="#FF8888"/>
</svg>
