<svg width="411" height="413" viewBox="0 0 411 413" fill="none" xmlns="http://www.w3.org/2000/svg">
    <path d="M52.9237 69.7298C60.8195 60.8343 69.4719 52.6405 78.7836 45.24L190.554 185.85L190.364 186L206.104 205.78L206.244 205.61L206.594 206.03L206.394 205.45L206.524 205.3L198.604 181.53H198.474L141.924 11.0696C164.656 3.50778 188.536 -0.0217032 212.484 0.639941L207.634 180.17C207.594 180.18 207.553 180.18 207.514 180.17L206.864 204.92L206.974 204.8V206.31L208.084 203.57L282.594 14.9998C304.933 23.8165 325.549 36.4891 343.504 52.4397L224.364 186.83L224.534 186.98L224.384 186.85L206.974 206.44V206.51H207.034H206.984L207.394 206.29L230.044 194.05L388.044 108.49C399.503 129.619 407.157 152.599 410.654 176.38L207.324 206.46L207.244 206.55H207.344H207.124V206.61H207.214L207.424 206.87L207.134 206.69V206.61V206.66V206.61V206.84V206.76L207.064 206.83L201.734 412.32C177.719 411.719 153.998 406.899 131.654 398.08L199.934 224.7L206.934 206.98V207.04L207.124 206.57L189.684 226.24L189.814 226.35L70.5136 360.61L71.3636 361.37L70.3636 360.48C52.4002 344.55 37.3664 325.597 25.9437 304.48L183.774 219L204.304 207.9L206.734 206.58L205.254 206.8L205.354 206.68L180.814 210.32C180.818 210.343 180.818 210.367 180.814 210.39L3.12361 236.49C-0.370183 212.788 0.306674 188.658 5.12361 165.19L181.124 201.19C181.124 201.26 181.124 201.33 181.124 201.39L205.694 206.39L205.824 206.25L206.424 206.37L205.964 206.08L206.104 205.92L184.574 192.69L184.474 192.84L31.5937 98.5398C37.8791 88.3593 45.036 78.743 52.9837 69.7996M206.774 206.33L206.474 206.15L206.694 206.41H206.804L206.774 206.33ZM206.704 206.53H206.534L206.814 206.58L206.704 206.53ZM206.964 206.42L206.894 206.18V206.33L206.964 206.42ZM206.834 206.51H206.764L206.834 206.57V206.51ZM206.954 206.44H206.884V206.5L206.954 206.44ZM206.954 206.5V206.57V206.5ZM207.054 206.5H207.134H207.054ZM207.474 206.65L408.754 247.58C403.966 271.193 395.049 293.776 382.414 314.29L207.474 206.65ZM207.214 206.95L335.214 367.62C316.367 382.638 295.02 394.215 272.154 401.82L207.214 206.95Z" fill="#3D7FBB"/>
</svg>
