<svg width="567" height="86" viewBox="0 0 567 86" fill="none" xmlns="http://www.w3.org/2000/svg">
    <path d="M210.604 9.31164H238.224L232.113 43.8369H204.493L210.604 9.31164ZM216.266 16.2167L212.641 36.9319H226.451L230.076 16.2167H216.266ZM248.378 30.0268L245.927 43.8369H239.022L243.89 16.2167H240.437L241.68 9.31164H269.3L265.641 30.0268H248.378ZM250.795 16.2167L249.586 23.1218H259.944L261.152 16.2167H250.795ZM278.246 36.9319H281.698L280.455 43.8369H266.645L267.888 36.9319H271.341L274.966 16.2167H271.513L272.756 9.31164H296.924L295.094 19.6692H288.189L288.776 16.2167H281.871L278.246 36.9319ZM318.116 16.2167H306.032L304.823 23.1218H316.907L318.116 16.2167ZM315.699 30.0268H303.615L301.164 43.8369H294.259L300.37 9.31164H326.264L320.153 43.8369H313.248L315.699 30.0268ZM348.725 9.31164H355.63L349.519 43.8369H342.614L345.273 28.991H333.189L330.53 43.8369H323.625L329.736 9.31164H336.641L334.535 21.3955H346.619L348.725 9.31164ZM378.092 9.31164H384.997L378.886 43.8369H371.981L375.088 26.229L361.14 36.9319L359.897 43.8369H352.992L359.103 9.31164H366.008L362.901 26.9195L376.849 16.2167L378.092 9.31164ZM386.64 19.6692H393.545L394.132 16.2167H401.037L399.829 23.1218H392.924L391.715 30.0268H398.62L397.412 36.9319H390.507L391.094 33.4793H384.189L382.359 43.8369H403.074L405.525 30.0268L402.66 26.5743L406.734 23.1218L409.185 9.31164H388.47L386.64 19.6692ZM430.367 16.2167H418.283L417.074 23.1218H429.158L430.367 16.2167ZM427.95 30.0268H415.866L413.415 43.8369H406.51L412.621 9.31164H438.515L432.404 43.8369H425.499L427.95 30.0268ZM458.007 16.2167L453.139 43.8369H446.234L451.102 16.2167H439.018L440.261 9.31164H471.334L470.091 16.2167H458.007ZM473.063 9.31164H500.684L494.573 43.8369H466.952L473.063 9.31164ZM478.726 16.2167L475.1 36.9319H488.911L492.536 16.2167H478.726ZM510.837 30.0268L508.386 43.8369H501.481L506.349 16.2167H502.897L504.14 9.31164H531.76L528.1 30.0268H510.837ZM513.254 16.2167L512.046 23.1218H522.403L523.612 16.2167H513.254ZM537.253 36.9319H545.884L547.092 30.0268H538.461L537.253 36.9319ZM542.121 9.31164L539.669 23.1218H555.206L551.546 43.8369H529.105L535.216 9.31164H542.121ZM560.177 43.8369H553.272L559.349 9.31164H566.254L560.177 43.8369Z" fill="white"/>
    <path d="M182.174 0.330078L37.8137 29.3799L40.8936 85.4897L182.174 0.330078Z" fill="#3D7FBB"/>
    <path d="M182.174 0.330078L37.8137 29.3799L0.843628 3.8501L182.174 0.330078Z" fill="white"/>
    <path d="M182.174 0.330078L59.5936 36.4199L40.8936 85.4897L182.174 0.330078Z" fill="#EB5752"/>
    <path d="M182.174 0.330078L59.5936 36.4199L120.774 57.9897L182.174 0.330078Z" fill="white"/>
</svg>
