<svg width="456" height="90" viewBox="0 0 456 90" fill="none" xmlns="http://www.w3.org/2000/svg">
    <path d="M216.164 21.5298H213.844L211.394 35.3398H204.494L210.604 0.819824H217.504L215.054 14.6299H223.684L226.144 0.819824H238.224L236.984 7.72021H231.804L229.384 21.5298H224.654L232.004 35.3398H223.514L216.164 21.5298Z" fill="#0D5FAA"/>
    <path d="M241.674 0.819824H269.294L263.184 35.3398H235.564L241.674 0.819824ZM247.334 7.72021L243.714 28.4399H257.524L261.144 7.72021H247.334Z" fill="#0D5FAA"/>
    <path d="M276.924 16.3198L273.574 35.3198H266.664L272.774 0.799805H281.414L285.794 24.7998L298.674 0.799805H307.304L301.194 35.3198H294.284L297.634 16.3198L287.384 35.3198H280.474L276.924 16.3198Z" fill="#0D5FAA"/>
    <path d="M325.324 35.3398L330.194 7.72021H319.844L314.974 35.3398H308.064L312.934 7.72021H309.484L310.724 0.819824H338.344L332.234 35.3398H325.324Z" fill="#0D5FAA"/>
    <path d="M357.124 21.5298H345.044L342.594 35.3398H335.684L341.804 0.819824H367.694L361.584 35.3398H354.674L357.124 21.5298ZM359.544 7.72021H347.464L346.254 14.6299H358.334L359.544 7.72021Z" fill="#0D5FAA"/>
    <path d="M390.134 0.819824H397.034L390.924 35.3398H384.024L386.684 20.5H374.594L371.924 35.3398H365.024L371.134 0.819824H378.044L375.924 12.8999H388.024L390.134 0.819824Z" fill="#0D5FAA"/>
    <path d="M419.484 0.819824H426.384L420.274 35.3398H413.374L416.474 17.7402L402.524 28.4399L401.284 35.3398H394.384L400.494 0.819824H407.394L404.294 18.4302L418.234 7.72021L419.484 0.819824Z" fill="#0D5FAA"/>
    <path d="M448.824 0.819824H455.734L449.624 35.3398H442.714L445.824 17.7402L431.924 28.4399L430.684 35.3398H423.724L429.834 0.819824H436.744L433.634 18.4302L447.584 7.72021L448.824 0.819824Z" fill="#0D5FAA"/>
    <path d="M225.204 89.2002L230.074 61.5801H219.714L214.854 89.2002H207.924L212.794 61.5801H209.344L210.584 54.6802H238.224L232.114 89.2002H225.204Z" fill="#0D5FAA"/>
    <path d="M257.004 75.3901H244.924L242.474 89.2002H235.564L241.674 54.6802H267.574L261.454 89.2002H254.554L257.004 75.3901ZM259.424 61.5801H247.334L246.134 68.4902H258.214L259.424 61.5801Z" fill="#0D5FAA"/>
    <path d="M277.724 75.3901L275.264 89.2002H268.364L273.234 61.5801H269.774L271.024 54.6802H298.644L294.984 75.3901H277.724ZM280.134 61.5801L278.924 68.4902H289.284L290.494 61.5801H280.134Z" fill="#0D5FAA"/>
    <path d="M318.114 61.5801L313.244 89.2002H306.344L311.214 61.5801H299.124L300.364 54.6802H331.444L330.194 61.5801H318.114Z" fill="#0D5FAA"/>
    <path d="M352.154 54.6802H359.064L352.924 89.2002H346.014L348.674 74.3599H336.624L333.924 89.2002H327.014L333.124 54.6802H340.034L337.924 66.7598H350.014L352.154 54.6802Z" fill="#0D5FAA"/>
    <path d="M383.234 54.6802L381.984 61.5801H368.174L367.584 65.04H381.404L380.154 71.9399H366.344L364.554 82.2998H378.364L377.114 89.2002H356.404L362.514 54.6802H383.234Z" fill="#0D5FAA"/>
    <path d="M393.374 75.3901L390.924 89.2002H384.024L388.894 61.5801H385.434L386.684 54.6802H414.304L410.644 75.3901H393.374ZM395.794 61.5801L394.584 68.4902H404.924L406.134 61.5801H395.794Z" fill="#0D5FAA"/>
    <path d="M424.654 54.6802L422.204 68.4902H437.744L434.084 89.2002H411.644L417.754 54.6802H424.654ZM419.794 82.2998H428.424L429.634 75.3901H420.994L419.794 82.2998ZM442.714 89.2002H435.814L441.884 54.6802H448.794L442.714 89.2002Z" fill="#0D5FAA"/>
    <path d="M182.174 4.31982L37.8137 33.3696L40.8936 89.4897L182.174 4.31982Z" fill="#0D5FAA"/>
    <path d="M182.174 4.31982L37.8137 33.3696L0.843628 7.83984L182.174 4.31982Z" fill="#8ACED2"/>
    <path d="M182.174 4.31982L59.5936 40.4097L40.8936 89.4897L182.174 4.31982Z" fill="#EB5752"/>
    <path d="M182.174 4.31982L59.5936 40.4097L120.774 61.98L182.174 4.31982Z" fill="#8ACED2"/>
</svg>
