<svg width="449" height="86" viewBox="0 0 449 86" fill="none" xmlns="http://www.w3.org/2000/svg">
    <path d="M225.204 55.2002L230.074 27.5801H219.714L214.854 55.2002H207.924L212.794 27.5801H209.344L210.584 20.6802H238.224L232.114 55.2002H225.204Z" fill="#0D5FAA"/>
    <path d="M257.004 41.3901H244.924L242.474 55.2002H235.564L241.674 20.6802H267.574L261.454 55.2002H254.554L257.004 41.3901ZM259.424 27.5801H247.334L246.134 34.4902H258.214L259.424 27.5801Z" fill="#0D5FAA"/>
    <path d="M277.724 41.3901L275.264 55.2002H268.364L273.234 27.5801H269.774L271.024 20.6802H298.644L294.984 41.3901H277.724ZM280.134 27.5801L278.924 34.4902H289.284L290.494 27.5801H280.134Z" fill="#0D5FAA"/>
    <path d="M318.114 27.5801L313.244 55.2002H306.344L311.214 27.5801H299.124L300.364 20.6802H331.444L330.194 27.5801H318.114Z" fill="#0D5FAA"/>
    <path d="M352.154 20.6802H359.064L352.924 55.2002H346.014L348.674 40.3599H336.624L333.924 55.2002H327.014L333.124 20.6802H340.034L337.924 32.7598H350.014L352.154 20.6802Z" fill="#0D5FAA"/>
    <path d="M383.234 20.6802L381.984 27.5801H368.174L367.584 31.04H381.404L380.154 37.9399H366.344L364.554 48.2998H378.364L377.114 55.2002H356.404L362.514 20.6802H383.234Z" fill="#0D5FAA"/>
    <path d="M393.374 41.3901L390.924 55.2002H384.024L388.894 27.5801H385.434L386.684 20.6802H414.304L410.644 41.3901H393.374ZM395.794 27.5801L394.584 34.4902H404.924L406.134 27.5801H395.794Z" fill="#0D5FAA"/>
    <path d="M424.654 20.6802L422.204 34.4902H437.744L434.084 55.2002H411.644L417.754 20.6802H424.654ZM419.794 48.2998H428.424L429.634 41.3901H420.994L419.794 48.2998ZM442.714 55.2002H435.814L441.884 20.6802H448.794L442.714 55.2002Z" fill="#0D5FAA"/>
    <path d="M182.174 0.319824L37.8137 29.3696L40.8936 85.4897L182.174 0.319824Z" fill="#0D5FAA"/>
    <path d="M182.174 0.319824L37.8137 29.3696L0.843628 3.83984L182.174 0.319824Z" fill="#8ACED2"/>
    <path d="M182.174 0.319824L59.5936 36.4097L40.8936 85.4897L182.174 0.319824Z" fill="#EB5752"/>
    <path d="M182.174 0.319824L59.5936 36.4097L120.774 57.98L182.174 0.319824Z" fill="#8ACED2"/>
</svg>
