<svg width="494" height="86" viewBox="0 0 494 86" fill="none" xmlns="http://www.w3.org/2000/svg">
    <path d="M225.208 44.127L230.076 16.5067H219.719L214.851 44.127H207.946L212.814 16.5067H209.361L210.604 9.60168H238.224L232.113 44.127H225.208ZM248.378 30.3168L245.927 44.127H239.022L243.89 16.5067H240.437L241.68 9.60168H269.3L265.641 30.3168H248.378ZM250.795 16.5067L249.586 23.4118H259.944L261.152 16.5067H250.795ZM272.756 9.60168H300.376L294.265 44.127H266.645L272.756 9.60168ZM278.418 16.5067L274.793 37.2219H288.603L292.228 16.5067H278.418ZM309.322 37.2219H312.774L311.531 44.127H297.721L298.964 37.2219H302.417L306.042 16.5067H302.589L303.832 9.60168H328L326.17 19.9593H319.265L319.852 16.5067H312.947L309.322 37.2219ZM338.144 30.3168L335.692 44.127H328.787L333.655 16.5067H330.203L331.446 9.60168H359.066L355.406 30.3168H338.144ZM340.56 16.5067L339.352 23.4118H349.71L350.918 16.5067H340.56ZM380.268 16.5067H368.184L366.976 23.4118H379.059L380.268 16.5067ZM377.851 30.3168H365.767L363.316 44.127H356.411L362.522 9.60168H388.416L382.305 44.127H375.4L377.851 30.3168ZM396.032 25.1035L392.683 44.127H385.778L391.889 9.60168H400.52L404.905 33.5622L417.783 9.60168H426.414L420.303 44.127H413.398L416.747 25.1035L406.493 44.127H399.588L396.032 25.1035ZM433.989 25.1035L430.64 44.127H423.735L429.846 9.60168H438.477L442.862 33.5622L455.74 9.60168H464.371L458.26 44.127H451.355L454.704 25.1035L444.45 44.127H437.545L433.989 25.1035ZM485.55 16.5067H473.466L472.257 23.4118H484.341L485.55 16.5067ZM483.133 30.3168H471.049L468.598 44.127H461.693L467.804 9.60168H493.698L487.587 44.127H480.682L483.133 30.3168Z" fill="white"/>
    <path d="M182.174 0.619873L37.8137 29.6599L40.8936 85.7798L182.174 0.619873Z" fill="#3D7FBB"/>
    <path d="M182.174 0.619873L37.8137 29.6599L0.843628 4.13989L182.174 0.619873Z" fill="white"/>
    <path d="M182.174 0.619873L59.5936 36.7L40.8936 85.7798L182.174 0.619873Z" fill="#EB5752"/>
    <path d="M182.174 0.619873L59.5936 36.7L120.774 58.2698L182.174 0.619873Z" fill="white"/>
</svg>
