<svg width="201" height="201" viewBox="0 0 201 201" fill="none" xmlns="http://www.w3.org/2000/svg">
    <path d="M100.924 201C87.6317 201 74.4725 198.358 62.2109 193.226C49.9494 188.095 38.8304 180.578 29.5003 171.111C20.1701 161.644 12.815 150.416 7.8628 138.082C2.9106 125.747 0.460055 112.55 0.653574 99.2598C1.41357 45.2598 45.5136 1.1797 99.5236 0.439699C112.693 0.347773 125.751 2.85056 137.952 7.80518C150.154 12.7598 161.26 20.0693 170.637 29.3162C180.014 38.563 187.478 49.5662 192.602 61.6975C197.727 73.8289 200.412 86.8508 200.504 100.02C200.595 113.189 198.093 126.247 193.138 138.448C188.183 150.65 180.874 161.757 171.627 171.134C162.38 180.51 151.377 187.974 139.246 193.099C127.115 198.223 114.093 200.908 100.924 201" fill="#EB5752"/>
    <path d="M144.634 147.66C136.786 147.66 129.115 145.333 122.59 140.973C116.064 136.614 110.979 130.417 107.975 123.167C104.971 115.917 104.185 107.939 105.715 100.242C107.246 92.5453 111.024 85.4751 116.572 79.9253C122.12 74.3756 129.19 70.5957 136.886 69.0635C144.583 67.5313 152.561 68.3156 159.812 71.3174C167.062 74.3191 173.26 79.4035 177.621 85.9275C181.983 92.4515 184.312 100.122 184.314 107.97C184.311 118.494 180.13 128.586 172.689 136.028C165.249 143.471 155.157 147.654 144.634 147.66Z" fill="white"/>
</svg>
