<svg width="67" height="67" viewBox="0 0 67 67" fill="none" xmlns="http://www.w3.org/2000/svg">
    <path d="M33.9236 66.5201C27.3968 66.5201 21.0166 64.5846 15.5898 60.9586C10.163 57.3325 5.93327 52.1785 3.43558 46.1485C0.937889 40.1185 0.28437 33.4835 1.55768 27.0821C2.83099 20.6807 5.97395 14.8007 10.5891 10.1856C15.2042 5.57047 21.0843 2.42742 27.4856 1.15411C33.887 -0.119203 40.5222 0.534348 46.5521 3.03204C52.5821 5.52973 57.736 9.75951 61.3621 15.1863C64.9882 20.6132 66.9236 26.9933 66.9236 33.5201C66.9236 42.2722 63.4468 50.6658 57.2581 56.8545C51.0694 63.0433 42.6757 66.5201 33.9236 66.5201Z" fill="#00B0EA"/>
</svg>
