<svg width="517" height="104" viewBox="0 0 517 104" fill="none" xmlns="http://www.w3.org/2000/svg">
    <path d="M182.174 0.689941L37.8137 29.7397L40.8936 85.8599L182.174 0.689941Z" fill="#0D5FAA"/>
    <path d="M182.174 0.689941L37.8137 29.7397L0.843628 4.20996L182.174 0.689941Z" fill="#8ACED2"/>
    <path d="M182.174 0.689941L59.5936 36.7798L40.8936 85.8599L182.174 0.689941Z" fill="#EB5752"/>
    <path d="M182.174 0.689941L59.5936 36.7798L120.774 58.3499L182.174 0.689941Z" fill="#8ACED2"/>
    <path d="M225.204 39.0898L230.074 11.4697H219.714L214.854 39.0898H207.924L212.794 11.4697H209.344L210.584 4.55981H238.224L232.114 39.0898H225.204Z" fill="#0D5FAA"/>
    <path d="M248.374 25.2798L245.924 39.0898H239.014L243.884 11.4697H240.434L241.674 4.55981H269.294L265.634 25.2798H248.374ZM250.794 11.4697L249.584 18.3699H259.924L261.124 11.4697H250.794Z" fill="#0D5FAA"/>
    <path d="M300.364 4.55981L294.254 39.0898H287.354L289.804 25.2798H288.184L276.924 39.0898H268.424L279.644 25.2798H272.504L274.914 11.4697H271.464L272.704 4.55981H300.364ZM281.864 11.4697L280.654 18.3699H291.014L292.224 11.4697H281.864Z" fill="#0D5FAA"/>
    <path d="M307.924 20.0598L304.574 39.0598H297.674L303.784 4.52979H312.414L316.794 28.5298L329.674 4.52979H338.304L332.194 39.0598H325.294L328.634 20.0598L318.384 39.0598H311.484L307.924 20.0598Z" fill="#0D5FAA"/>
    <path d="M357.124 25.2798H345.044L342.594 39.0898H335.684L341.804 4.55981H367.694L361.584 39.0898H354.674L357.124 25.2798ZM359.544 11.4697H347.464L346.254 18.3699H358.334L359.544 11.4697Z" fill="#0D5FAA"/>
    <path d="M398.764 4.55981L392.654 39.0898H385.744L388.204 25.2798H386.574L375.354 39.0898H366.864L378.084 25.2798H370.924L373.344 11.4697H369.924L371.164 4.55981H398.764ZM380.254 11.4697L379.054 18.3699H389.404L390.614 11.4697H380.254Z" fill="#0D5FAA"/>
    <path d="M226.624 65.3298L221.754 92.9998H214.854L219.714 65.3796H207.634L208.874 58.4697H239.924L238.674 65.3796L226.624 65.3298Z" fill="#0D5FAA"/>
    <path d="M248.374 79.1396L245.924 92.9998H239.014L243.884 65.3796H240.434L241.674 58.4697H269.294L265.634 79.1897L248.374 79.1396ZM250.794 65.3298L249.584 72.2297H259.924L261.124 65.3298H250.794Z" fill="#0D5FAA"/>
    <path d="M288.074 79.1396H275.994L273.544 92.9998H266.634L272.744 58.4697H298.644L292.534 92.9998H285.624L288.074 79.1396ZM290.494 65.3298H278.414L277.204 72.2297H289.284L290.494 65.3298Z" fill="#0D5FAA"/>
    <path d="M321.084 58.4197H327.984L321.924 92.9998H315.024L317.684 78.1497H305.544L302.924 92.9998H296.014L302.124 58.4697H309.024L306.924 70.5598H319.004L321.084 58.4197Z" fill="#0D5FAA"/>
    <path d="M352.464 85.9998L351.224 92.9998H325.324L331.444 58.4697H357.334L356.094 65.3796H337.094L333.474 85.9998H352.464Z" fill="#0D5FAA"/>
    <path d="M374.394 69.3699L360.544 92.9998H352.924L373.184 58.4697H379.404L387.404 92.9998H379.924L374.394 69.3699Z" fill="#0D5FAA"/>
    <path d="M421.274 58.4197L415.164 92.9998H408.254L410.714 79.1897H409.084L397.864 92.9998H389.374L400.594 79.1897H393.444L395.864 65.3796H392.414L393.654 58.4697L421.274 58.4197ZM402.764 65.3298L401.564 72.2297H411.924L413.134 65.3298H402.764Z" fill="#0D5FAA"/>
    <path d="M442.784 92.9998H418.614L424.724 58.4697H431.634L426.764 85.9998H440.574L445.444 58.3796H452.344L447.484 85.9998H450.924L447.854 103.26H440.924L442.784 92.9998Z" fill="#0D5FAA"/>
    <path d="M478.244 58.4197H485.144L479.034 92.9998H472.134L475.234 75.3896L461.294 85.9998L460.044 92.9097H453.144L459.254 58.3796H466.154L463.054 75.9897L476.994 65.2898L478.244 58.4197Z" fill="#0D5FAA"/>
    <path d="M516.224 58.4197L510.104 92.9998H503.204L505.654 79.1897H504.034L492.814 92.9998H484.314L495.534 79.1897H488.394L490.804 65.3796H487.354L488.594 58.4697L516.224 58.4197ZM497.714 65.3298L496.504 72.2297H506.864L508.074 65.3298H497.714Z" fill="#0D5FAA"/>
</svg>
