<svg width="114" height="113" viewBox="0 0 114 113" fill="none" xmlns="http://www.w3.org/2000/svg">
    <path d="M8.29367 27.8601C9.91291 25.0381 11.7732 22.3615 13.8537 19.8601L51.4337 51.25L56.7237 55.6699V55.6101L56.8437 55.71L56.7537 55.5601L53.3237 49.6399L28.8337 7.23999C34.488 3.96802 40.6712 1.71072 47.1037 0.570068L55.6837 48.77L56.8737 55.4099L56.9437 55.8101L57.0937 55.02L66.6137 0.560059C73.0615 1.68576 79.262 3.933 84.9337 7.19995L60.5237 49.6399H60.5737H60.5237L56.9537 55.8301L57.0537 55.75L62.4337 51.23L99.9237 19.75C104.148 24.7582 107.455 30.4723 109.694 36.6299L57.0637 55.8501H57.0037L57.0737 55.9099H56.9837V55.97L66.8737 111.13C60.4272 112.29 53.8272 112.311 47.3737 111.19L56.0637 61.1299L56.9537 56.02V55.8799L53.3837 62.0901L28.9237 104.55L29.1837 104.7L28.8737 104.52C23.1977 101.251 18.1379 97.0141 13.9237 92L51.4337 60.5L56.3037 56.4099L56.8837 55.9299L56.4937 56.0701L50.1437 58.3899L4.14368 75.1399C1.90862 69.0023 0.761406 62.5219 0.753662 55.99L49.7537 55.9099V55.97H56.5837H56.7437L56.6037 55.9199L50.1337 53.5701V53.6201L4.13367 36.8501C5.24998 33.7855 6.63191 30.8241 8.26367 28M56.8337 56H56.7537L56.8237 56.0601L56.8337 56ZM56.8337 56.0601H56.7837H56.8337ZM56.8937 56.0601V56V56.0601ZM57.0137 56.0601L113.014 55.9099C113.028 62.4769 111.891 68.9956 109.654 75.1699L57.0137 56.0601ZM56.9637 56.1499L99.9637 92.01C95.7452 97.0611 90.6671 101.327 84.9637 104.61L56.9637 56.1499Z" fill="#EB5752"/>
</svg>
