<svg width="362" height="105" viewBox="0 0 362 105" fill="none" xmlns="http://www.w3.org/2000/svg">
    <path d="M162.624 42.7397H157.364L156.034 39.0698H146.754L145.394 42.7397H140.134L148.504 21.0898H154.284L162.624 42.7397ZM154.774 35.0098L151.394 25.6997L148.024 35.0098H154.774Z" fill="#EB5752"/>
    <path d="M169.244 42.7399H164.634V21.09H174.764C175.744 21.0356 176.724 21.1852 177.644 21.5295C178.563 21.8737 179.4 22.4052 180.104 23.09C181.365 24.4494 182.066 26.2354 182.066 28.09C182.066 29.9446 181.365 31.7307 180.104 33.09C179.406 33.7769 178.572 34.3097 177.656 34.6542C176.739 34.9987 175.761 35.1472 174.784 35.09H169.264L169.244 42.7399ZM174.144 30.9899C174.981 31.0226 175.799 30.7367 176.434 30.1899C176.713 29.9112 176.935 29.5802 177.087 29.2155C177.238 28.8508 177.316 28.4597 177.316 28.0649C177.316 27.67 177.238 27.2791 177.087 26.9145C176.935 26.5498 176.713 26.2186 176.434 25.9399C175.798 25.3966 174.979 25.1143 174.144 25.1498H169.244V30.9999L174.144 30.9899Z" fill="#EB5752"/>
    <path d="M204.524 42.7397H199.014L193.594 34.8198L188.134 42.7397H182.654L190.504 31.6396L183.134 21.0898H188.624L193.624 28.4897L198.524 21.0898H204.074L196.704 31.5999L204.524 42.7397Z" fill="#EB5752"/>
    <path d="M211.024 42.7397H206.574V21.0898H211.184V35.0898L221.184 21.0898H225.924V42.7397H221.314V28.2297L211.024 42.7397Z" fill="#EB5752"/>
    <path d="M241.984 42.7399H230.234V21.0899H241.624C242.457 21.0377 243.292 21.1521 244.08 21.4269C244.868 21.7016 245.594 22.131 246.214 22.6898C246.744 23.1936 247.164 23.8023 247.446 24.4772C247.729 25.152 247.867 25.8785 247.854 26.61C247.898 27.8048 247.519 28.9768 246.784 29.9198C246.125 30.7724 245.18 31.3585 244.124 31.5699C244.717 31.6549 245.288 31.8567 245.803 32.1639C246.318 32.4712 246.767 32.8779 247.124 33.36C247.927 34.3588 248.356 35.6078 248.334 36.8898C248.357 37.6644 248.222 38.4356 247.936 39.1561C247.651 39.8766 247.221 40.5314 246.674 41.0799C246.047 41.6635 245.308 42.112 244.501 42.3976C243.694 42.6831 242.837 42.7996 241.984 42.7399ZM240.624 29.7399C240.96 29.7589 241.296 29.7113 241.614 29.5997C241.931 29.4882 242.223 29.315 242.474 29.0899C242.699 28.8735 242.876 28.6119 242.993 28.3224C243.11 28.0329 243.165 27.7219 243.154 27.4098C243.163 27.0917 243.105 26.7753 242.985 26.4808C242.864 26.1863 242.683 25.9202 242.454 25.6998C241.954 25.2485 241.296 25.0116 240.624 25.0399H234.844V29.7399H240.624ZM240.784 38.7399C241.508 38.7688 242.219 38.5344 242.784 38.0799C243.036 37.849 243.234 37.5652 243.363 37.2489C243.493 36.9325 243.551 36.5913 243.534 36.2499C243.541 35.9126 243.478 35.5776 243.349 35.266C243.22 34.9544 243.027 34.6729 242.784 34.4398C242.237 33.9454 241.52 33.6835 240.784 33.7098H234.844V38.7098L240.784 38.7399Z" fill="#EB5752"/>
    <path d="M152.074 81.6899H147.434V64.0901H141.104V60H158.374V64.05H152.074V81.6899Z" fill="#EB5752"/>
    <path d="M165.924 81.6896H161.314V59.9997H171.444C172.424 59.9452 173.404 60.0949 174.323 60.4391C175.243 60.7834 176.08 61.3148 176.784 61.9997C178.031 63.3562 178.723 65.1319 178.723 66.9748C178.723 68.8176 178.031 70.5931 176.784 71.9496C176.086 72.6365 175.252 73.1693 174.336 73.5138C173.419 73.8583 172.441 74.0068 171.464 73.9496H165.924V81.6896ZM170.824 69.9396C171.661 69.9723 172.479 69.6864 173.114 69.1396C173.393 68.8609 173.615 68.5299 173.767 68.1652C173.918 67.8006 173.996 67.4094 173.996 67.0146C173.996 66.6197 173.918 66.2288 173.767 65.8642C173.615 65.4995 173.393 65.1683 173.114 64.8896C172.479 64.3427 171.661 64.0571 170.824 64.0898H165.924V69.9396H170.824Z" fill="#EB5752"/>
    <path d="M201.774 81.6899H196.514L195.184 78.02H185.924L184.564 81.6899H179.304L187.684 60.04H193.454L201.774 81.6899ZM193.924 74L190.544 64.6899L187.174 74H193.924Z" fill="#EB5752"/>
    <path d="M223.254 81.6899H218.614V72.6001H208.394V81.6899H203.784V60H208.394V68.5H218.614V60H223.254V81.6899Z" fill="#EB5752"/>
    <path d="M237.994 82.0802C236.482 82.1255 234.977 81.8713 233.565 81.3324C232.152 80.7935 230.86 79.9804 229.764 78.94C227.65 76.7878 226.466 73.8917 226.466 70.8751C226.466 67.8584 227.65 64.9624 229.764 62.8101C230.861 61.7716 232.154 60.9604 233.566 60.4232C234.978 59.886 236.483 59.6334 237.994 59.68C239.841 59.6168 241.669 60.0807 243.262 61.0174C244.856 61.9542 246.15 63.3251 246.994 64.9701L242.994 66.9701C242.508 66.0462 241.787 65.2666 240.904 64.71C240.012 64.127 238.969 63.8178 237.904 63.8202C236.997 63.7917 236.094 63.955 235.255 64.2996C234.416 64.6443 233.659 65.1625 233.034 65.8202C231.796 67.2289 231.114 69.04 231.114 70.9151C231.114 72.7903 231.796 74.6013 233.034 76.0101C233.657 76.6692 234.414 77.1883 235.254 77.533C236.093 77.8778 236.996 78.0405 237.904 78.0101C238.967 78.0114 240.009 77.7058 240.904 77.13C241.796 76.5802 242.519 75.7949 242.994 74.8602L246.994 76.7701C246.142 78.4095 244.846 79.7766 243.255 80.7154C241.664 81.6543 239.841 82.1272 237.994 82.0802Z" fill="#EB5752"/>
    <path d="M248.504 82.0801V78C249.04 78.0264 249.573 77.9084 250.048 77.6587C250.523 77.4089 250.922 77.0366 251.204 76.5801C251.824 75.6401 252.304 73.8201 252.624 71.1101L253.924 60H269.314V81.6499H264.664V64.05H258.084L257.234 71.3899C257.048 73.2394 256.662 75.0635 256.084 76.8301C255.688 78.0613 255.002 79.1794 254.084 80.0901C253.377 80.7702 252.531 81.2888 251.604 81.6101C250.601 81.9253 249.555 82.0838 248.504 82.0801Z" fill="#EB5752"/>
    <path d="M277.924 81.69H272.634L277.494 73.44C276.167 73.1381 274.982 72.3942 274.134 71.3301C273.176 70.1038 272.69 68.5744 272.764 67.0201C272.738 66.0943 272.903 65.1732 273.247 64.3133C273.591 63.4534 274.107 62.6731 274.764 62.0201C275.473 61.3571 276.309 60.8436 277.221 60.5103C278.134 60.177 279.104 60.0308 280.074 60.0801H290.194V81.7301H285.584V74.0001H282.244L277.924 81.69ZM280.714 69.94H285.544V64.0902H280.714C279.861 64.0556 279.026 64.3408 278.374 64.89C278.086 65.1644 277.858 65.4945 277.702 65.8597C277.546 66.2249 277.465 66.6178 277.465 67.015C277.465 67.4122 277.546 67.8053 277.702 68.1705C277.858 68.5357 278.086 68.8655 278.374 69.14C279.016 69.6798 279.835 69.9646 280.674 69.94H280.714Z" fill="#EB5752"/>
    <path d="M311.214 85.6799V81.6799H294.404V60H299.014V77.5901H309.234V60H313.924V77.5901H315.924V85.5901L311.214 85.6799Z" fill="#EB5752"/>
    <path d="M322.924 81.6899H318.474V60H323.084V74L333.084 60H337.924V81.6499H333.314V67.1399L322.924 81.6899Z" fill="#EB5752"/>
    <path d="M346.624 81.6899H342.174V60H346.784V74L356.784 60H361.524V81.6499H356.924V67.1399L346.624 81.6899ZM357.564 56.1699C356.929 57.0692 356.082 57.7981 355.098 58.2917C354.114 58.7854 353.024 59.0287 351.924 59C350.811 59.0264 349.708 58.7794 348.713 58.2808C347.717 57.7822 346.859 57.047 346.214 56.1399L348.024 54.6201C348.462 55.2412 349.044 55.7479 349.719 56.0977C350.394 56.4474 351.143 56.6299 351.904 56.6299C352.664 56.6299 353.413 56.4474 354.088 56.0977C354.764 55.7479 355.345 55.2412 355.784 54.6201L357.564 56.1699Z" fill="#EB5752"/>
    <path fill-rule="evenodd" clip-rule="evenodd" d="M43.3635 21.5C42.1954 20.3312 41.269 18.9438 40.6371 17.417C40.0052 15.8902 39.6802 14.254 39.6807 12.6016C39.6811 10.9491 40.007 9.31284 40.6398 7.78638C41.2726 6.25992 42.1998 4.87319 43.3685 3.70508C44.5373 2.53697 45.9247 1.61044 47.4515 0.978516C48.9784 0.346592 50.6147 0.0215088 52.2671 0.0219732C53.9195 0.0224375 55.5557 0.348419 57.0822 0.981202C58.6086 1.61398 59.9955 2.5412 61.1636 3.70996C63.3506 5.89678 64.6555 8.81271 64.8289 11.9006C65.0023 14.9886 64.0321 18.032 62.1036 20.45C61.812 20.822 61.4981 21.176 61.1636 21.51C59.9946 22.6789 58.6067 23.6059 57.0792 24.238C55.5517 24.8702 53.9146 25.195 52.2615 25.1941C50.6084 25.1932 48.9717 24.8665 47.4449 24.2327C45.9182 23.5988 44.5312 22.6702 43.3635 21.5Z" fill="#FF7777"/>
    <path fill-rule="evenodd" clip-rule="evenodd" d="M61.1636 82.7197C61.4728 83.0359 61.7633 83.3698 62.0336 83.7197C63.8548 85.9633 64.8489 88.7651 64.8489 91.6548C64.8489 94.5445 63.8548 97.3463 62.0336 99.5899C61.7636 99.9199 61.4736 100.23 61.1736 100.54C58.8144 102.899 55.6148 104.224 52.2786 104.224C48.9423 104.224 45.7427 102.899 43.3835 100.54C41.0246 98.1806 39.6993 94.981 39.6993 91.6448C39.6993 88.3086 41.0246 85.1089 43.3835 82.7498C45.7383 80.3899 48.9336 79.0613 52.2673 79.0557C55.6011 79.0501 58.8008 80.3678 61.1636 82.7197Z" fill="#FFCCCC"/>
    <path fill-rule="evenodd" clip-rule="evenodd" d="M33.1036 15.1599C35.451 17.5272 36.7681 20.7262 36.7681 24.0601C36.7681 27.3939 35.451 30.5926 33.1036 32.96C30.7445 35.3189 27.5448 36.6443 24.2086 36.6443C20.8724 36.6443 17.6728 35.3189 15.3136 32.96C14.1455 31.7912 13.219 30.4038 12.587 28.877C11.9551 27.3501 11.6302 25.7139 11.6306 24.0615C11.6311 22.4091 11.9571 20.7728 12.5898 19.2463C13.2226 17.7199 14.1498 16.3331 15.3186 15.165C16.4874 13.9969 17.8748 13.0704 19.4016 12.4385C20.9284 11.8066 22.5647 11.4815 24.2172 11.4819C25.8696 11.4824 27.5056 11.8084 29.0321 12.4412C30.5586 13.0739 31.9454 14.0012 33.1135 15.1699L33.1036 15.1599Z" fill="#FF9999"/>
    <path fill-rule="evenodd" clip-rule="evenodd" d="M71.4236 89.0598C69.0695 86.698 67.7477 83.4994 67.7477 80.1648C67.7477 76.8302 69.0695 73.6315 71.4236 71.2698C73.7828 68.9108 76.9824 67.5854 80.3186 67.5854C83.6548 67.5854 86.8544 68.9108 89.2136 71.2698C91.3932 73.4457 92.6987 76.3454 92.8831 79.4197C93.0674 82.4939 92.1176 85.529 90.2136 87.9497C89.9053 88.3446 89.5712 88.7189 89.2136 89.0698C86.8544 91.4288 83.6548 92.7539 80.3186 92.7539C76.9824 92.7539 73.7828 91.4288 71.4236 89.0698V89.0598Z" fill="#FFDDDD"/>
    <path fill-rule="evenodd" clip-rule="evenodd" d="M21.6436 43.1997C21.9536 43.5097 22.2435 43.8397 22.5135 44.1997C24.3348 46.4432 25.329 49.2451 25.329 52.1348C25.329 55.0245 24.3348 57.8263 22.5135 60.0698C22.2435 60.3998 21.9536 60.7198 21.6536 61.0198C19.2944 63.3788 16.0948 64.7039 12.7585 64.7039C9.42232 64.7039 6.2227 63.3788 3.86353 61.0198C1.50456 58.6606 0.179443 55.461 0.179443 52.1248C0.179443 48.7885 1.50456 45.5889 3.86353 43.2298C6.21832 40.8699 9.41366 39.5413 12.7474 39.5357C16.0812 39.53 19.2808 40.8478 21.6436 43.1997Z" fill="#FFAAAA"/>
    <path fill-rule="evenodd" clip-rule="evenodd" d="M100.664 43.21C102.817 45.6025 103.972 48.7296 103.89 51.9478C103.808 55.1659 102.495 58.2302 100.222 60.5098C97.9489 62.7893 94.8884 64.1107 91.6705 64.2019C88.4526 64.2931 85.3222 63.1471 82.9236 61C80.5632 58.6409 79.2365 55.4407 79.2356 52.1035C79.2347 48.7663 80.5595 45.5655 82.9186 43.2051C85.2777 40.8447 88.4779 39.518 91.8151 39.5171C95.1523 39.5162 98.3532 40.8409 100.714 43.2L100.664 43.21Z" fill="#FFDDDD"/>
    <path fill-rule="evenodd" clip-rule="evenodd" d="M33.1135 71.2598C35.4356 73.6265 36.7295 76.8142 36.7137 80.1299C36.698 83.4455 35.3738 86.6208 33.0293 88.9653C30.6848 91.3099 27.5094 92.6341 24.1937 92.6499C20.8781 92.6657 17.6904 91.3719 15.3236 89.0498C14.1548 87.8817 13.2276 86.4947 12.5948 84.9683C11.9621 83.4418 11.6361 81.8057 11.6356 80.1533C11.6347 76.8161 12.9595 73.6151 15.3186 71.2546C17.6777 68.8942 20.8779 67.5678 24.2151 67.5669C27.5523 67.566 30.7531 68.8907 33.1135 71.2498V71.2598Z" fill="#FFBBBB"/>
    <path fill-rule="evenodd" clip-rule="evenodd" d="M89.2036 15.1697C90.9631 16.929 92.1612 19.1705 92.6467 21.6108C93.1322 24.0512 92.8833 26.5806 91.9311 28.8794C90.979 31.1782 89.3665 33.143 87.2977 34.5254C85.2289 35.9077 82.7967 36.6455 80.3086 36.6455C77.8204 36.6455 75.3881 35.9077 73.3193 34.5254C71.2505 33.143 69.6381 31.1782 68.686 28.8794C67.7339 26.5806 67.4848 24.0512 67.9703 21.6108C68.4558 19.1705 69.6541 16.929 71.4136 15.1697C73.774 12.8132 76.9732 11.4897 80.3086 11.4897C83.644 11.4897 86.8431 12.8132 89.2036 15.1697Z" fill="#FFDDDD"/>
</svg>
