<svg width="134" height="105" viewBox="0 0 134 105" fill="none" xmlns="http://www.w3.org/2000/svg">
    <path d="M89.6436 15.51C96.9115 22.7841 101.86 32.0497 103.863 42.1355C105.866 52.2213 104.833 62.6746 100.896 72.1738C96.9591 81.673 90.2941 89.7918 81.7437 95.5037C73.1933 101.216 63.1414 104.264 52.8587 104.264C42.5759 104.264 32.524 101.216 23.9735 95.5037C15.4231 89.7918 8.75812 81.673 4.82108 72.1738C0.884038 62.6746 -0.148242 52.2213 1.85465 42.1355C3.85754 32.0497 8.80568 22.7841 16.0736 15.51C20.9029 10.6767 26.6372 6.84254 32.949 4.22656C39.2608 1.61058 46.0263 0.26416 52.8587 0.26416C59.6911 0.26416 66.4564 1.61058 72.7682 4.22656C79.08 6.84254 84.8144 10.6767 89.6436 15.51Z" fill="#f28f89"/>
    <path d="M126.824 62.1499C129.908 65.2352 132.009 69.1659 132.86 73.4451C133.711 77.7242 133.274 82.1597 131.604 86.1904C129.934 90.2212 127.107 93.6663 123.479 96.0901C119.851 98.5139 115.587 99.8076 111.224 99.8076C106.861 99.8076 102.596 98.5139 98.9681 96.0901C95.3404 93.6663 92.5129 90.2212 90.8432 86.1904C89.1734 82.1597 88.7363 77.7242 89.5872 73.4451C90.4381 69.1659 92.5388 65.2352 95.6236 62.1499C97.6721 60.1011 100.104 58.476 102.781 57.3672C105.457 56.2584 108.326 55.6875 111.224 55.6875C114.121 55.6875 116.99 56.2584 119.666 57.3672C122.343 58.476 124.775 60.1011 126.824 62.1499Z" fill="#0f7abf"/>
</svg>
