<svg width="3817" height="3817" viewBox="0 0 1860 1848" fill="none" xmlns="http://www.w3.org/2000/svg">
    <path d="M13.2101 774.234L13.2393 774.053C22.2542 721.089 35.8214 669.001 53.7899 618.37L818.225 889.895C818.098 890.232 817.971 890.587 817.859 890.914L925.441 929.084L925.601 928.11L927.925 928.87L925.762 927.16L925.903 926.273L838.722 854.122C838.595 854.288 838.449 854.439 838.317 854.609L213.902 336.709C282.939 253.383 366.002 182.759 459.345 128.023L870.011 827.519C869.853 827.624 869.691 827.722 869.523 827.811L926.215 924.168L926.337 923.466L929.748 929.357L927.443 916.202L762.044 15.2895C868.715 -4.33326 978.003 -5.0738 1084.93 13.1018L949.811 812.93L950.785 813.096L949.918 812.95L930.064 929.669L930.162 929.693L930.093 929.776L930.064 929.669L930.006 930.029V930.112V930.2L930.055 930.122V930.029L930.147 929.864V929.966L930.225 929.796H930.181L930.215 929.698H930.293H930.24L930.405 929.455L930.279 929.615L931.287 927.813V927.978L988.822 826.948C988.767 826.915 988.71 826.886 988.651 826.861L1389.3 121.333C1483.72 174.909 1567.98 244.658 1638.27 327.398L931.107 928.865L931.019 929.382L931.414 929.196L930.649 929.864L930.912 930.005V930.176L931.273 930.064L932.734 930.551H931.195L930.902 930.322L930.854 930.59L930.576 930.531L931.097 931.433L930.751 931.199L930.678 931.623L1401.56 1731.71C1308.11 1786.83 1205.7 1825.09 1099 1844.75L946.006 1017.16L930.478 932.539L930.425 932.88L930.03 930.653V930.57L929.981 930.648L929.938 930.556H930.02L930.123 930.487L930.084 930.385L929.991 930.458V930.278L910.21 1047.35C910.454 1047.4 910.698 1047.43 910.941 1047.47L774.887 1847.13C776.583 1847.42 778.259 1847.71 779.964 1848L774.02 1846.99C667.057 1828.87 564.097 1792.14 469.81 1738.48L871.272 1033.36H871.346L923.438 941.762L923.472 941.582L929.66 930.702L924.491 935.087L924.612 934.4L839.311 1007C839.384 1007.09 839.462 1007.11 839.526 1007.2L221.157 1532.11C151.075 1449.67 95.9454 1355.61 58.2576 1254.18L818.527 971.231C818.634 971.518 818.732 971.801 818.839 972.093L924.905 932.471L925.041 931.608L927.643 930.634L925.207 930.658L925.368 929.684L811.219 930.478C811.219 930.741 811.219 931.009 811.219 931.291L0.0114971 935.535C-0.256596 881.495 4.16439 827.534 13.2247 774.258M928.88 929.688H927.331L928.793 930.2L929.28 930.015L928.88 929.688ZM929.109 930.624L928.53 931.15L929.728 930.634L929.109 930.624ZM929.821 929.567L928.983 928.806L929.338 929.401L929.826 929.576L929.821 929.567ZM929.553 930.244L929.343 930.478L929.752 930.546L929.811 930.463L929.553 930.244ZM929.855 929.664L929.489 929.698L929.616 929.903L929.874 929.854L929.855 929.664ZM929.908 929.952L929.738 930.103L929.864 930.385L929.952 930.224L929.908 929.952ZM930.137 930.639H930.04L930.147 930.736L930.137 930.639ZM930.137 930.829L930.079 930.721L930.152 930.921L930.137 930.829ZM930.464 930.073L930.279 930.22L930.405 930.419L930.746 930.302L930.464 930.073ZM932.369 929.674L1801.39 605.199C1839.51 707.1 1859.35 814.928 1860 923.725L932.369 929.674ZM932.086 931.428L1806.54 1240.97C1770.25 1343.58 1716.15 1438.99 1646.74 1522.81L932.086 931.428Z" fill="#8ACED2"/>
</svg>
