<svg width="443" height="115" viewBox="0 0 443 115" fill="none" xmlns="http://www.w3.org/2000/svg">
    <path d="M0.723633 32.0898L442.684 0.0297852L153.244 114.42L0.723633 32.0898Z" fill="#4CBBB8"/>
    <path d="M33.9236 57.68V51.9998C34.1036 50.7298 34.2435 49.4397 34.4935 48.1697C36.2253 39.1383 41.4614 31.1597 49.0576 25.9768C56.6539 20.794 65.9927 18.8282 75.0336 20.5095C88.8236 23.0995 97.8835 31.42 102.384 44.68C103.121 47.0626 103.607 49.5158 103.834 51.9998V57.7298C103.664 58.8498 103.564 59.9796 103.334 61.0896C100.394 74.9296 92.1803 84.0397 78.6936 88.4197C76.4105 89.0954 74.0655 89.541 71.6936 89.7498H65.9536C64.8336 89.5898 63.7036 89.4898 62.5936 89.2498C48.7136 86.3231 39.5836 78.1266 35.2036 64.6599C34.54 62.383 34.1111 60.0442 33.9236 57.68ZM48.2136 75.2898L48.3236 75.4099C48.5036 75.3399 48.6935 75.28 48.8735 75.2C57.8202 71.0533 66.7736 66.9031 75.7336 62.7498C76.2284 62.5284 76.6212 62.1283 76.8336 61.6297L89.2836 34.8899C89.3736 34.6899 89.5536 34.51 89.4236 34.2L88.7435 34.49C79.9035 38.59 71.0569 42.6898 62.2036 46.7898C61.5799 47.0606 61.0854 47.5622 60.8236 48.1897C57.4369 55.5231 54.0335 62.8296 50.6135 70.1096L48.2136 75.2898Z" fill="#E2F3F4"/>
    <path d="M68.8236 50.9402C69.5906 50.9382 70.341 51.1638 70.9799 51.5881C71.6188 52.0124 72.1177 52.6163 72.4135 53.3239C72.7093 54.0316 72.7886 54.8109 72.6416 55.5637C72.4947 56.3164 72.1279 57.0085 71.5877 57.5529C71.0475 58.0974 70.3581 58.4695 69.6065 58.6223C68.8549 58.7751 68.0748 58.7017 67.3649 58.4113C66.655 58.121 66.0471 57.6271 65.618 56.9914C65.1888 56.3558 64.9576 55.607 64.9536 54.8401C64.9443 54.3279 65.0376 53.8189 65.2284 53.3435C65.4192 52.868 65.7035 52.4361 66.0644 52.0725C66.4252 51.7088 66.8553 51.4212 67.3293 51.2268C67.8032 51.0323 68.3114 50.9347 68.8236 50.9402Z" fill="#E2F3F4"/>
    <path d="M145.624 46.5898L148.254 31.6802H142.664L140.034 46.5898H136.314L138.934 31.6802H137.074L137.744 27.96H152.654L149.354 46.5898H145.624Z" fill="white"/>
    <path d="M158.054 28L160.724 35L165.884 28H170.354L156.624 46.6299H152.154L157.794 38.9702L155.004 31.7202H152.004L152.674 28H158.054Z" fill="white"/>
    <path d="M179.924 31.6802L177.294 46.5898H173.564L176.194 31.6802H169.674L170.344 27.96H187.114L186.444 31.6802H179.924Z" fill="white"/>
    <path d="M199.234 28L198.564 31.7202H191.114L190.794 33.5898H198.244L197.574 37.3101H190.124L189.124 42.8999H196.584L195.904 46.6299H184.724L188.024 28H199.234Z" fill="white"/>
    <path d="M217.104 42.8599L219.734 27.96H223.464L220.164 46.5898H197.804L201.104 27.96H204.824L202.194 42.8599H207.784L210.414 27.96H214.144L211.514 42.8599H217.104Z" fill="white"/>
    <path d="M236.504 28L235.834 31.7202H228.384L228.064 33.5898H235.514L234.844 37.3101H227.394L226.394 42.8999H233.924L233.254 46.6299H222.024L225.324 28H236.504Z" fill="white"/>
    <path d="M249.714 42.8599L249.044 46.5898H235.044L238.344 27.96H252.344L251.674 31.6802H241.424L239.424 42.8599H249.714Z" fill="white"/>
    <path d="M262.854 31.6802L260.224 46.5898H256.494L259.124 31.6802H252.604L253.274 27.96H270.044L269.374 31.6802H262.854Z" fill="white"/>
    <path d="M284.924 28L281.624 46.6299H267.624L270.924 28H284.924ZM278.564 42.8999L279.214 39.1802H272.694L272.044 42.8999H278.564ZM280.564 31.7202H274.044L273.384 35.4502H279.924L280.564 31.7202Z" fill="white"/>
    <path d="M297.064 28H300.784L297.494 46.6299H293.764L295.444 37.1299L287.914 42.8999L287.244 46.6299H283.514L286.814 28H290.534L288.864 37.5L296.394 31.7202L297.064 28Z" fill="white"/>
    <path d="M317.554 28L314.264 46.6299H310.534L311.854 39.1802H310.984L304.924 46.6299H300.344L306.344 39.1802H302.494L303.794 31.7202H301.934L302.604 28H317.554ZM307.554 31.7202L306.894 35.4502H312.484L313.144 31.7202H307.554Z" fill="white"/>
    <path d="M147.994 57H151.724L148.424 75.6299H144.694L146.374 66.1299L138.844 71.8999L138.174 75.6299H134.444L137.744 57H141.474L139.794 66.5L147.324 60.7202L147.994 57Z" fill="white"/>
    <path d="M171.544 60.75L168.924 75.6602H165.194L167.824 60.75H161.294L161.974 57.0298H178.744L178.074 60.75H171.544Z" fill="white"/>
    <path d="M183.214 57L185.874 64L191.034 57H195.514L181.774 75.6299H177.304L182.924 68L180.124 60.75H177.124L177.794 57.0298L183.214 57Z" fill="white"/>
    <path d="M200.054 68.2002L198.734 75.6602H195.004L197.634 60.75H195.774L196.444 57.0298H211.344L209.344 68.2002H200.054ZM201.364 60.75L200.704 64.48H206.294L206.954 60.75H201.364Z" fill="white"/>
    <path d="M223.464 57H227.184L223.884 75.6299H220.164L221.834 66.1299L214.314 71.8999L213.644 75.6299H209.924L213.224 57H216.924L215.254 66.5L222.774 60.7202L223.464 57Z" fill="white"/>
    <path d="M229.054 57H240.234L238.904 64.4502L236.704 66.3101L238.254 68.1699L236.934 75.6299H225.754L226.754 70.04H230.484L230.174 71.8999H233.924L234.574 68.1699H230.854L231.504 64.4502H235.234L235.884 60.7202H232.154L231.834 62.5898H228.114L229.054 57Z" fill="white"/>
    <path d="M244.324 65.3901L242.524 75.6602H238.794L242.094 57.0298H246.754L249.114 69.96L256.114 57.0298H260.774L257.474 75.6602H253.754L255.554 65.3901L250.024 75.6602H246.294L244.324 65.3901Z" fill="white"/>
</svg>
