<svg width="443" height="115" viewBox="0 0 443 115" fill="none" xmlns="http://www.w3.org/2000/svg">
    <path d="M0.723633 32.5601L442.684 0.5L153.244 114.89L0.723633 32.5601Z" fill="#FF7171"/>
    <path d="M70.8637 91.0002C69.0437 90.6502 67.2036 90.4301 65.4136 89.9201C59.8425 88.3778 54.8005 85.3385 50.8355 81.132C46.8706 76.9255 44.1342 71.7127 42.9237 66.0602C42.2628 62.7704 42.0742 59.4032 42.3637 56.0602C42.5141 53.151 42.9836 50.2669 43.7636 47.4601C44.6516 43.9874 46.3246 40.7648 48.6537 38.0402C49.4769 37.0895 50.4256 36.2552 51.4736 35.5602C52.9836 34.5602 54.2936 35.1003 54.6636 36.8503C55.1003 39.1285 55.8649 41.3315 56.9337 43.3903C57.938 45.5038 59.6158 47.2235 61.7037 48.28L62.0736 48.4504C63.1536 48.8704 63.2337 48.8204 63.2437 47.7004C63.2034 42.3875 63.7432 37.086 64.8536 31.8903C65.9254 27.5145 67.7383 23.3542 70.2137 19.59C73.0886 15.0344 76.7605 11.0338 81.0537 7.77996C81.3043 7.54782 81.6057 7.37738 81.9337 7.28191C82.2618 7.18645 82.6075 7.16877 82.9436 7.23015C83.3488 7.32321 83.7087 7.55531 83.9608 7.88592C84.2128 8.21652 84.3412 8.62484 84.3236 9.04021C84.4028 11.4622 84.8168 13.8615 85.5537 16.1701C86.6729 19.2215 88.2109 22.1024 90.1237 24.7302C92.9337 28.7302 96.0136 32.5802 98.6036 36.7302C101.938 41.9605 104.094 47.8533 104.924 54.0002C105.657 58.7826 105.371 63.6662 104.084 68.3302C102.278 74.5573 98.589 80.073 93.5237 84.1203C89.6095 87.2993 84.979 89.4754 80.0336 90.4601C78.9336 90.6801 77.8336 90.8302 76.7337 91.0202L70.8637 91.0002ZM76.1537 58.1501C74.3407 60.2517 73.1038 62.7875 72.5637 65.5099C72.1907 67.7401 72.0167 69.999 72.0436 72.2599C72.0818 72.5554 72.0495 72.8558 71.9495 73.1364C71.8494 73.4171 71.6844 73.6704 71.468 73.8752C71.2515 74.0799 70.9898 74.2303 70.704 74.3146C70.4182 74.3989 70.1166 74.4145 69.8236 74.36C68.8931 74.3059 67.9891 74.0298 67.1871 73.5549C66.3851 73.0799 65.7085 72.42 65.2137 71.6301C64.9637 71.2901 64.7336 70.93 64.4736 70.55C64.4016 70.6299 64.3379 70.7173 64.2836 70.8102C63.0336 74.8102 62.9137 78.8102 65.2037 82.5402C66.23 84.2178 67.7212 85.5617 69.4963 86.4084C71.2713 87.2551 73.254 87.5683 75.2037 87.3102C77.7808 86.876 80.1131 85.5219 81.7681 83.4992C83.423 81.4765 84.2884 78.9223 84.2037 76.3102C84.1516 72.8771 83.0833 69.5364 81.1336 66.7101C79.3336 64.0001 77.2237 61.4403 76.1537 58.1203V58.1501Z" fill="#FFDDDD"/>
    <path d="M152.924 29.29H156.654L153.354 47.9199H149.624L151.304 38.4199L143.774 44.2002L143.104 47.9199H139.374L142.674 29.29H146.404L144.724 38.79L152.254 33.02L152.924 29.29Z" fill="white"/>
    <path d="M169.924 44.2002L169.254 47.9199H155.254L158.554 29.29H172.554L171.884 33.02H161.604L159.604 44.2002H169.924Z" fill="white"/>
    <path d="M183.034 33L180.404 47.8999H176.674L179.304 33H172.784L173.454 29.27H190.224L189.554 33H183.034Z" fill="white"/>
    <path d="M191.154 29.29H206.064L202.764 47.9199H187.854L191.154 29.29ZM194.214 33.02L192.214 44.2002H199.664L201.664 33.02H194.214Z" fill="white"/>
    <path d="M211.534 40.4702L210.214 47.9199H206.484L209.114 33.02H207.254L207.924 29.29H222.834L220.834 40.4702H211.534ZM212.844 33.02L212.194 36.7402H217.784L218.434 33.02H212.844Z" fill="white"/>
    <path d="M234.924 29.29H238.654L235.354 47.9199H231.624L233.304 38.4199L225.774 44.2002L225.104 47.9199H221.374L224.674 29.29H228.404L226.724 38.79L234.254 33.02L234.924 29.29Z" fill="white"/>
    <path d="M249.854 29.29H253.574L250.274 47.9199H246.554L247.874 40.4702H238.554L240.554 29.29H244.274L242.954 36.7402H248.544L249.854 29.29Z" fill="white"/>
    <path d="M266.614 29.29L265.924 33H258.474L258.154 34.8599H265.614L264.944 38.5898H257.484L256.484 44.1802H263.944L263.274 47.8999H252.144L255.434 29.27L266.614 29.29Z" fill="white"/>
    <path d="M279.824 44.2002L279.154 47.9199H265.154L268.454 29.29H282.454L281.784 33.02H271.534L269.584 44.2002H279.824Z" fill="white"/>
    <path d="M287.324 40.4702H286.074L284.744 47.9199H281.024L284.324 29.29H288.044L286.724 36.7402H291.384L292.704 29.29H299.224L298.554 33.02H295.764L294.454 40.4702H291.924L295.924 47.9199H291.334L287.324 40.4702Z" fill="white"/>
    <path d="M309.364 40.4702H302.844L301.514 47.9199H297.794L301.094 29.29H315.094L311.794 47.9199H308.074L309.364 40.4702ZM310.664 33.02H304.144L303.494 36.7402H310.014L310.664 33.02Z" fill="white"/>
    <path d="M331.834 29.29L328.534 47.9199H324.814L326.134 40.4702H325.254L319.204 47.9199H314.614L320.674 40.4702H316.814L318.124 33.02H316.254L316.924 29.29H331.834ZM321.834 33.02L321.184 36.7402H326.774L327.424 33.02H321.834Z" fill="white"/>
    <path d="M150.584 77L153.214 62.1001H147.624L144.994 77H141.274L143.904 62.1001H142.034L142.704 58.3701H157.614L154.314 77H150.584Z" fill="white"/>
    <path d="M167.754 69.54H161.234L159.924 77H156.204L159.494 58.3701H173.494L170.194 77H166.424L167.754 69.54ZM169.054 62.0898H162.534L161.884 65.8101H168.404L169.054 62.0898Z" fill="white"/>
    <path d="M177.554 66.73L175.744 77H172.014L175.314 58.3701H179.974L182.344 71.2998L189.294 58.3701H193.924L190.654 77H186.924L188.734 66.7402L183.194 77H179.474L177.554 66.73Z" fill="white"/>
    <path d="M210.724 58.3599L207.424 77H203.694L205.014 69.5498H204.144L198.084 77H193.504L199.554 69.5498H195.704L197.004 62.1001H195.144L195.814 58.3701L210.724 58.3599ZM200.724 62.0898L200.074 65.8101H205.664L206.314 62.0898H200.724Z" fill="white"/>
    <path d="M221.224 62.0898L218.604 76.9902H214.924L217.554 62.0898H211.034L211.704 58.3599H228.424L227.754 62.0898H221.224Z" fill="white"/>
    <path d="M231.734 65.8101H241.984L240.034 77H226.034L229.314 58.3701H233.044L231.734 65.8101ZM236.954 73.27L237.604 69.54H231.084L230.434 73.27H236.954Z" fill="white"/>
</svg>
