<svg width="443"  xmlns="http://www.w3.org/2000/svg" viewBox="0 0 442 114.4">
    <defs>
        <style>
            .cls-31{fill:#4cbbb7;}.cls-2{fill:#c9eae9;stroke:#b0dcdf;stroke-miterlimit:10;stroke-width:0.23px;}.cls-3{font-size:24px;fill:#fff;font-family:RED_GaliverSans-BoldItalic,
            RED_Galiver Sans;font-weight:700;font-style:italic;}
        </style>
    </defs>
    <title>Asset 12</title>
    <g id="Layer_2" data-name="Layer 2">
        <g id="Слой_1" data-name="Слой 1">
            <polygon class="cls-31" points="0 32.07 442 0 152.53 114.4 0 32.07"/>
            <path class="cls-2"
                  d="M76.35,45a28.8,28.8,0,0,0-6.6,3.85,52.51,52.51,0,0,0-12,12.49A50.42,50.42,0,0,0,52,73.13c-.07.22-.15.43-.21.64-.15.5-.36.61-.75.18a27.22,27.22,0,0,1-7.35-16.19c-.87-9.55,2.6-17.34,9.7-23.66A60.18,60.18,0,0,1,84,19.73a70,70,0,0,1,11-1,67.48,67.48,0,0,1,11.54.75c1,.16,1,.2.54,1.08A75.43,75.43,0,0,0,101,38.21a70.35,70.35,0,0,0-1.15,9.26c-.24,3.83-.2,7.68-.78,11.48a27.4,27.4,0,0,1-5.88,13,27,27,0,0,1-13.29,9.64A27.73,27.73,0,0,1,58.13,79.5c-.6-.31-.52-.63-.31-1.13a174.36,174.36,0,0,1,8.58-17.6c2.86-5.25,6.33-10.1,9.57-15.1C76.1,45.46,76.23,45.25,76.35,45Z"/>
            <text class="cls-3" transform="translate(139.86 63.45)">ЭКОЛОГИЯ</text>
        </g>
    </g>
</svg>
