<svg width="443" xmlns="http://www.w3.org/2000/svg" viewBox="0 0 442 114.4">
    <defs>
        <style>
            .cls-21{fill:#00b0e0;}.cls-2{fill:#b2e7f6;}.cls-3{font-size:24px;fill:#fff;font-family:RED_GaliverSans-BoldItalic,
            RED_Galiver Sans;font-weight:700;font-style:italic;}
        </style>
    </defs>
    <title>Asset 10</title>
    <g id="Layer_2" data-name="Layer 2">
        <g id="Слой_1" data-name="Слой 1">
            <polygon class="cls-21" points="0 32.07 442 0 152.53 114.4 0 32.07"/>
            <path class="cls-2"
                  d="M55.14,64a27.08,27.08,0,0,1-8.63-1,11.62,11.62,0,0,1-7.94-10.2A25,25,0,0,1,41,40.22,36.76,36.76,0,0,1,53,24.78a29.37,29.37,0,0,1,15.83-5.64C80.28,18.45,90,22.42,98,30.49c4.77,4.79,7.44,10.76,8.8,17.32a37.59,37.59,0,0,1-4.76,28.08A30.88,30.88,0,0,1,84.34,89.54a16.64,16.64,0,0,1-10.62.06c-4.79-1.68-7.61-5.16-9-9.89a22.87,22.87,0,0,1-.82-8.47,10,10,0,0,0-.13-2.39A5.63,5.63,0,0,0,58.14,64C57.14,63.91,56.14,64,55.14,64Zm2.74-12.06a6.12,6.12,0,0,0,6.26-6.11,6.22,6.22,0,1,0-6.26,6.11ZM77.24,72.32a6.22,6.22,0,1,0,12.43.07,6.22,6.22,0,0,0-12.43-.07Zm0-37.85a6.09,6.09,0,0,0-5.95-6.32,6.22,6.22,0,1,0-.39,12.43A6.1,6.1,0,0,0,77.21,34.47Zm4.45,6.33a6.21,6.21,0,0,0,6.21,6.28,6.32,6.32,0,0,0,6.24-6.22,6.21,6.21,0,0,0-6.27-6.23A6.07,6.07,0,0,0,81.66,40.8ZM87,57.55a6.22,6.22,0,0,0,6.19,6.31,6.26,6.26,0,1,0-.08-12.52A6.21,6.21,0,0,0,87,57.55Z"/>
            <text class="cls-3" transform="translate(139.86 47.43)">ИСКУССТВО
                <tspan x="0" y="28.8">И ТВОРЧЕСТВО</tspan>
            </text>
        </g>
    </g>
</svg>
