<svg width="443" height="116" viewBox="0 0 443 116" fill="none" xmlns="http://www.w3.org/2000/svg">
    <path d="M0.723633 32.7998L442.684 0.72998L153.244 115.12L0.723633 32.7998Z" fill="#FF7171"/>
    <path d="M74.0836 83.9302H73.5236C73.0836 83.7002 72.6536 83.4602 72.2036 83.2402C67.7076 81.1622 63.4269 78.6465 59.4236 75.73C55.2288 72.6825 51.8688 68.6278 49.6536 63.9399C47.6071 59.3674 46.5637 54.4095 46.5936 49.3999C46.5236 40.5499 46.5936 31.6998 46.5936 22.8398C46.5551 22.5272 46.637 22.212 46.8227 21.9575C47.0085 21.7031 47.2841 21.5288 47.5936 21.4702C56.1069 18.2635 64.6136 15.0331 73.1136 11.7798C73.359 11.6766 73.6224 11.6235 73.8886 11.6235C74.1548 11.6235 74.4182 11.6766 74.6636 11.7798C83.1636 15.0198 91.6703 18.2502 100.184 21.4702C100.492 21.531 100.766 21.7056 100.952 21.9595C101.137 22.2134 101.22 22.5276 101.184 22.8398C101.184 31.2198 101.184 39.6036 101.184 47.9902C101.2 50.5319 101.006 53.0704 100.604 55.5801C99.6761 61.9718 96.6965 67.8889 92.1136 72.4399C89.1105 75.313 85.7495 77.7865 82.1136 79.7998C79.4136 81.2998 76.7236 82.5502 74.0836 83.9302ZM62.4036 41.2402C62.2817 41.3268 62.1648 41.42 62.0536 41.52C60.1136 43.45 58.1836 45.3901 56.2436 47.3101C55.8636 47.6701 55.9536 47.91 56.2436 48.23C60.4103 52.39 64.5769 56.5535 68.7436 60.7202C69.1136 61.0902 69.3536 61.0902 69.7436 60.7202C76.5436 53.9202 83.3503 47.1301 90.1636 40.3501C90.5636 39.9501 90.5336 39.7001 90.1636 39.3501C88.3836 37.6001 86.6236 35.8201 84.8536 34.0601C84.2036 33.4101 84.1936 33.4001 83.5436 34.0601C79.0636 38.5401 74.5436 43.0098 70.0936 47.5098C69.6236 47.9798 69.3436 48.0098 68.8636 47.5098C66.9336 45.5098 64.9736 43.6002 63.0136 41.6602C62.8536 41.4602 62.7136 41.2502 62.4036 41.2402Z" fill="#FFDDDD"/>
    <path d="M142.704 26.0601H157.614L154.314 44.6899H139.404L142.704 26.0601ZM145.764 29.79L143.764 40.9702H151.224L153.224 29.79H145.764Z" fill="white"/>
    <path d="M171.194 33.5098C171.311 33.5046 171.427 33.5265 171.535 33.5732C171.642 33.62 171.738 33.6906 171.814 33.7798C171.888 33.8707 171.94 33.9778 171.966 34.0923C171.992 34.2068 171.991 34.3258 171.964 34.4399L170.324 43.7598C170.274 44.0185 170.137 44.2521 169.934 44.4199C169.738 44.5937 169.485 44.6898 169.224 44.6899H156.224L159.514 26.0601H173.514L172.844 29.79H162.534L161.884 33.5098H171.194ZM160.574 41H167.094L167.754 37.27H161.234L160.574 41Z" fill="white"/>
    <path d="M189.454 41L192.084 26.0898H195.814L193.184 41H195.044L193.394 50.3101H189.664L190.664 44.7202H172.014L175.314 26.0898H179.044L176.414 41H181.074L183.704 26.0898H187.424L184.804 41H189.454Z" fill="white"/>
    <path d="M210.724 26.0601L210.044 29.79H202.594L202.274 31.6499H209.734L209.064 35.3799H201.604L200.604 40.9702H208.064L207.394 44.6899H196.244L199.534 26.0601H210.724Z" fill="white"/>
    <path d="M223.924 41L223.254 44.7202H209.254L212.554 26.0898H226.554L225.884 29.8198H215.634L213.684 41H223.924Z" fill="white"/>
    <path d="M237.064 29.79L234.444 44.6899H230.714L233.344 29.79H226.814L227.484 26.0601H244.264L243.584 29.79H237.064Z" fill="white"/>
    <path d="M259.164 26.0601L255.864 44.6899H241.924L245.224 26.0601H259.164ZM252.814 41L253.464 37.27H246.924L246.274 41H252.814ZM254.764 29.8198H248.244L247.594 33.54H254.114L254.764 29.8198Z" fill="white"/>
    <path d="M272.214 26.0601L271.534 29.79H264.084L263.764 31.6499H271.224L270.554 35.3799H263.094L262.094 40.9702H269.554L268.884 44.6899H257.734L261.034 26.0601H272.214Z" fill="white"/>
    <path d="M284.324 26.0601H288.044L284.754 44.6899H281.024L282.454 36.6899H275.924L274.494 44.6899H270.764L274.064 26.0601H277.784L276.654 32.5801H283.174L284.324 26.0601Z" fill="white"/>
    <path d="M300.154 26.0601H303.924L300.624 44.6899H296.904L298.334 36.6899H291.814L290.374 44.6899H286.654L289.954 26.0601H293.674L292.544 32.5801H299.064L300.154 26.0601Z" fill="white"/>
    <path d="M314.023 37.2402H307.504L306.174 44.6899H302.454L305.744 26.0601H319.744L316.444 44.6899H312.714L314.023 37.2402ZM315.324 29.79H308.804L308.154 33.5098H314.674L315.324 29.79Z" fill="white"/>
    <path d="M336.494 26.0601L333.194 44.6899H329.464L330.794 37.2402H329.924L323.924 44.6899H319.334L325.394 37.2402H321.534L322.844 29.79H320.924L321.594 26.0601H336.494ZM326.494 29.79L325.844 33.5098H331.434L332.084 29.79H326.494Z" fill="white"/>
    <path d="M154.424 62.5801C154.541 62.5749 154.657 62.5963 154.765 62.6431C154.872 62.6899 154.968 62.7609 155.044 62.8501C155.118 62.941 155.17 63.0481 155.196 63.1626C155.222 63.2771 155.221 63.3956 155.194 63.5098L153.554 72.8301C153.504 73.0888 153.366 73.3224 153.164 73.4902C152.967 73.6625 152.715 73.7578 152.454 73.7598H139.454L142.754 55.1299H156.754L156.084 58.8501H145.764L145.114 62.5801H154.424ZM143.804 70H150.324L150.984 66.2798H144.454L143.804 70Z" fill="white"/>
    <path d="M169.724 55.1299L169.054 58.8501H161.604L161.284 60.7202H168.734L168.064 64.4399H160.614L159.614 70.0298H167.064L166.394 73.7598H155.244L158.544 55.1299H169.724Z" fill="white"/>
    <path d="M171.584 55.1299H182.774L181.444 62.5801L179.244 64.4399L180.794 66.3101L179.474 73.7598H168.294L169.294 68.1699H173.024L172.704 70.0298H176.434L177.084 66.3101H173.364L174.014 62.5801H177.744L178.394 58.8501H174.664L174.344 60.7202H170.624L171.584 55.1299Z" fill="white"/>
    <path d="M184.634 55.1299H199.534L196.244 73.7598H181.334L184.634 55.1299ZM187.684 58.8501L185.734 70H193.184L195.184 58.8198L187.684 58.8501Z" fill="white"/>
    <path d="M209.284 73.7598L211.914 58.8501H206.324L203.694 73.7598H199.924L202.554 58.8501H200.694L201.364 55.1299H216.264L212.974 73.7598H209.284Z" fill="white"/>
    <path d="M226.444 66.3101H219.924L218.604 73.7598H214.924L218.224 55.1299H232.224L228.934 73.7598H225.124L226.444 66.3101ZM227.754 58.8501H221.224L220.574 62.5801H227.094L227.754 58.8501Z" fill="white"/>
    <path d="M245.354 70L244.684 73.73H230.684L233.984 55.1001H247.984L247.314 58.8198H237.064L235.114 70H245.354Z" fill="white"/>
    <path d="M260.094 55.1299H263.824L260.524 73.7598H256.794L258.234 65.7598H251.714L250.274 73.7598H246.554L249.844 55.1299H253.574L252.434 61.6499H258.924L260.094 55.1299Z" fill="white"/>
    <path d="M265.684 55.1299H280.594L277.294 73.7598H262.384L265.684 55.1299ZM268.744 58.8501L266.744 70.0298H274.194L276.194 58.8501H268.744Z" fill="white"/>
    <path d="M293.804 70L293.134 73.73H279.134L282.434 55.1001H296.434L295.764 58.8198H285.514L283.514 70H293.804Z" fill="white"/>
    <path d="M306.924 58.8501L304.294 73.7598H300.564L303.194 58.8501H296.674L297.344 55.1299H314.114L313.444 58.8501H306.924Z" fill="white"/>
    <path d="M317.454 62.5801H327.694L325.744 73.7598H311.744L315.024 55.1299H318.754L317.454 62.5801ZM322.664 70.0298L323.324 66.3101H316.794L316.144 70.0298H322.664Z" fill="white"/>
</svg>
