<svg width="443" viewBox="0 0 442 114.4">
    <defs>
        <style>
            .cls-1{fill:#eb5752;}.cls-2{fill:#ffd3cf;}.cls-3{font-size:24px;fill:#fff;font-family:RED_GaliverSans-BoldItalic,
            RED_Galiver Sans;font-weight:700;font-style:italic;}
        </style>
    </defs>
    <title>Asset 4</title>
    <g id="Layer_2" data-name="Layer 2">
        <g id="Слой_1" data-name="Слой 1">
            <polygon class="cls-1" points="0 32.07 442 0 152.53 114.4 0 32.07"/>
            <path class="cls-2"
                  d="M70.15,90.48c-1.82-.35-3.66-.57-5.45-1.08A31.67,31.67,0,0,1,42.23,65.56a36,36,0,0,1-.56-10A40.42,40.42,0,0,1,43.08,47,23.31,23.31,0,0,1,48,37.54a13.86,13.86,0,0,1,2.82-2.47c1.51-1,2.82-.46,3.19,1.29a24.18,24.18,0,0,0,2.27,6.54A10.49,10.49,0,0,0,61,47.78l.37.17c1.08.43,1.16.37,1.17-.75a73.09,73.09,0,0,1,1.61-15.81,39.37,39.37,0,0,1,5.37-12.3A44.65,44.65,0,0,1,80.37,7.28a2.18,2.18,0,0,1,1.9-.54,1.77,1.77,0,0,1,1.37,1.8,26.28,26.28,0,0,0,1.23,7.14,35.53,35.53,0,0,0,4.57,8.55c2.81,4,5.89,7.85,8.49,12a42.8,42.8,0,0,1,6.31,17.21,34.12,34.12,0,0,1-.84,14.32A31.63,31.63,0,0,1,79.35,89.92c-1.1.22-2.2.37-3.3.56Zm5.29-32.86A16.08,16.08,0,0,0,71.85,65a39.13,39.13,0,0,0-.52,6.75,1.89,1.89,0,0,1-2.21,2.1,5.87,5.87,0,0,1-4.62-2.73c-.25-.34-.48-.7-.74-1.09a2.16,2.16,0,0,0-.19.26c-1.25,4-1.37,8,.92,11.74a10.16,10.16,0,0,0,10,4.77,10.79,10.79,0,0,0,9-11,17.37,17.37,0,0,0-3.07-9.6C78.62,63.45,76.51,61,75.44,57.62Z"/>
            <text class="cls-3" transform="translate(139.86 47.43)">ИСТОРИЧЕСКАЯ
                <tspan x="0" y="28.8">ПАМЯТЬ</tspan>
            </text>
        </g>
    </g>
</svg>
