<svg  width="443" xmlns="http://www.w3.org/2000/svg" viewBox="0 0 442 114.4">
    <defs>
        <style>
            .cls-31{fill:#4cbbb7;}.cls-2{fill:#c9eae9;stroke:#b0dcdf;stroke-miterlimit:10;stroke-width:0.23px;}.cls-3{font-size:24px;fill:#fff;font-family:RED_GaliverSans-BoldItalic,
            RED_Galiver Sans;font-weight:700;font-style:italic;}
        </style>
    </defs>
    <title>Asset 14</title>
    <g id="Layer_2" data-name="Layer 2">
        <g id="Слой_1" data-name="Слой 1">
            <polygon class="cls-31" points="0 32.07 442 0 152.53 114.4 0 32.07"/>
            <path class="cls-2"
                  d="M107.71,46.09c-.26,1.74-.51,3.47-.93,5.17-.16.66-.48.84-1.12.83-6.69,0-13.37,0-20,0-1.82,0-2.38.38-3,2.08L79.4,62.48c-.1.26-.13.57-.4.76-.26-.17-.29-.45-.38-.7L69.38,38.33a2.26,2.26,0,0,0-3.63-1.16A2.85,2.85,0,0,0,65,38.41c-1.63,4.27-3.27,8.53-4.87,12.8a1.14,1.14,0,0,1-1.26.89c-6.1,0-12.2,0-18.3,0-.48,0-.84,0-1-.63C38,45.4,38,39.42,40.46,33.59c2.35-5.55,6.18-9.69,12-11.66a16.53,16.53,0,0,1,14,1.59,24.71,24.71,0,0,1,6,5c.65.71.67.71,1.32,0A24.22,24.22,0,0,1,81,22.91a17,17,0,0,1,19,2.53,22.87,22.87,0,0,1,7.5,14.19c.07.49.14,1,.22,1.47Z"/>
            <path class="cls-2"
                  d="M51.67,56.58h9.18a2.42,2.42,0,0,0,2.65-1.83L66.86,46c.08-.19.07-.52.32-.53s.26.32.34.52q4.62,12.1,9.23,24.21a2.33,2.33,0,0,0,2,1.79,2.12,2.12,0,0,0,2.33-1.54c1-2.49,1.92-5,2.88-7.5.7-1.85,1.43-3.69,2.1-5.55a1,1,0,0,1,1.17-.82c5.58,0,11.16,0,16.74,0,.9,0,.92,0,.55.85a49.85,49.85,0,0,1-8.32,12.39c-6.28,7-13.78,12.35-21.81,17.07a2.21,2.21,0,0,1-2.6,0A92.43,92.43,0,0,1,51.06,71a50.65,50.65,0,0,1-9.21-13.24c-.06-.12-.12-.24-.17-.37-.32-.7-.28-.76.47-.76Z"/>
            <text class="cls-3" transform="translate(139.86 47.43)">ЗДОРОВЫЙ
                <tspan x="0" y="28.8">ОБРАЗ ЖИЗНИ</tspan>
            </text>
        </g>
    </g>
</svg>
