<svg width="443" xmlns="http://www.w3.org/2000/svg" viewBox="0 0 442 114.4">
    <defs>
        <style>
            .cls-21{fill:#00b0e0;}.cls-2{fill:#b2e7f6;}.cls-3{font-size:24px;fill:#fff;font-family:RED_GaliverSans-BoldItalic,
            RED_Galiver Sans;font-weight:700;font-style:italic;}
        </style>
    </defs>
    <title>Asset 9</title>
    <g id="Layer_2" data-name="Layer 2">
        <g id="Слой_1" data-name="Слой 1">
            <polygon class="cls-21" points="0 32.07 442 0 152.53 114.4 0 32.07"/>
            <path class="cls-2"
                  d="M64.06,84.93H60.53a2,2,0,0,0-.33-.08A12.93,12.93,0,0,1,49.35,71.93c0-.63-.25-.81-.79-.93A12.94,12.94,0,0,1,40.7,50.87a1,1,0,0,0,0-1.37,12.58,12.58,0,0,1-1-13.19,12.47,12.47,0,0,1,8.8-6.93c.59-.14.93-.32.87-1a8.07,8.07,0,0,1,.11-2,13,13,0,0,1,21.14-8,1.45,1.45,0,0,1,.58,1.28q0,30.54,0,61.08A1.54,1.54,0,0,1,70.55,82,13.79,13.79,0,0,1,64.06,84.93Z"/>
            <path class="cls-2"
                  d="M82.25,84.93a14,14,0,0,1-6.45-2.84,1.69,1.69,0,0,1-.68-1.44c0-4.66,0-9.32,0-14,0-.93,0-.93.94-.93s1.77,0,2.65,0a1.18,1.18,0,0,1,1.3.77,5.77,5.77,0,0,0,5.59,3.26,6,6,0,0,0,5.52-4.29,6,6,0,0,0-3.46-7.27,5.93,5.93,0,0,0-7.6,2.73,1.34,1.34,0,0,1-1.47.86c-.94-.06-1.9,0-2.85,0-.47,0-.63-.17-.63-.63q0-4.19,0-8.35c0-.48.19-.63.65-.63,2.91,0,5.83,0,8.75,0,.49,0,.66.26.84.63a5.83,5.83,0,0,0,5.31,3.42,6,6,0,1,0,.23-12,5.75,5.75,0,0,0-5.49,3.34,1.1,1.1,0,0,1-1.14.71q-4.17,0-8.34,0c-.62,0-.82-.2-.82-.82q0-4,0-8c0-.62.21-.83.82-.8,1,0,2,0,3.06,0a.89.89,0,0,1,.93.59,5.8,5.8,0,0,0,5.28,3.45,6,6,0,1,0,.23-12A5.73,5.73,0,0,0,80,33.9a1.11,1.11,0,0,1-1.19.73c-1-.05-2,0-3,0-.47,0-.64-.16-.64-.63q0-7.34,0-14.66a1.16,1.16,0,0,1,.5-.91,13,13,0,0,1,17.13.34A12.53,12.53,0,0,1,97,28.41a.8.8,0,0,0,.71.94c5.56,1.36,8.91,4.88,10.14,10.46,0,.15.07.31.11.46V43.8a14.21,14.21,0,0,1-2.51,6,.55.55,0,0,0,0,.74,14.09,14.09,0,0,1,2.51,6v3.53c-.08.33-.14.66-.23,1A12.78,12.78,0,0,1,97.86,71c-.72.19-.91.46-.92,1.18a12.54,12.54,0,0,1-4.79,10,13.4,13.4,0,0,1-6.37,2.81Z"/>
            <path class="cls-2" d="M85.36,34.52a2.09,2.09,0,1,1-2.08,2.11A2,2,0,0,1,85.36,34.52Z"/>
            <path class="cls-2" d="M92.88,50.24a2.08,2.08,0,1,1-2-2.15A2,2,0,0,1,92.88,50.24Z"/>
            <path class="cls-2" d="M87.45,63.76a2.09,2.09,0,1,1-2.09-2.09A2,2,0,0,1,87.45,63.76Z"/>
            <text class="cls-3" transform="translate(139.86 47.43)">НАУКА
                <tspan x="0" y="28.8">И ТЕХНОЛОГИИ</tspan>
            </text>
        </g>
    </g>
</svg>
