<svg  width="443"  xmlns="http://www.w3.org/2000/svg" viewBox="0 0 442 114.4"><defs><style>.cls-1{fill:#eb5752;}.cls-2{fill:#ffd3cf;}.cls-3{font-size:24px;fill:#fff;font-family:RED_GaliverSans-BoldItalic, RED_Galiver Sans;font-weight:700;font-style:italic;}</style></defs><title>Asset 6</title><g id="Layer_2" data-name="Layer 2"><g id="Слой_1" data-name="Слой 1"><polygon class="cls-1" points="0 32.07 442 0 152.53 114.4 0 32.07"/><path class="cls-2" d="M105.13,71.16a2.36,2.36,0,0,1-1.78,1.41,2.31,2.31,0,0,1-2-1,41.22,41.22,0,0,0-8.2-7.46,42.12,42.12,0,0,0-15.17-6.54c-.88-.19-.88-.19-.88-1.09,0-8,0-15.94,0-23.91,0-.68.21-.92.86-1.06a41.69,41.69,0,0,0,20-10.4,42.45,42.45,0,0,0,3.4-3.57,3.18,3.18,0,0,1,1.34-1c.76,0,1.51,0,2.26,0,.22,0,.29,0,.25.26a1.61,1.61,0,0,0,0,.31Z"/><path class="cls-2" d="M41,37.93c.44-1,8.79-5.41,10.09-5.41,3.58,0,7.17,0,10.76,0,2.65,0,5.3,0,8,0a16.2,16.2,0,0,0,2.61-.18c.57-.08.69.12.69.63,0,1.77,0,3.54,0,5.31V55.77c0,1.12.05,1.07-1,.94a52.85,52.85,0,0,0-5.63-.12c-.68,0-.69,0-.37.66,2.1,4.18,4.19,8.38,6.3,12.56a4.1,4.1,0,0,1,.2,3.44,4.15,4.15,0,0,1-1,1.48l-4.52,4.49a4.06,4.06,0,0,1-7-1.52C58.09,72.26,56.05,66.8,54,61.34c-.51-1.34-1-2.68-1.5-4-.19-.54-.45-.8-1-.73S41.5,52.17,41,51.17Z"/><text class="cls-3" transform="translate(139.86 45.45)">ЖУРНАЛИСТИКА<tspan x="0" y="28.8">И МЕДИА</tspan></text></g></g></svg>
