<svg width="443" height="115" viewBox="0 0 443 115" fill="none" xmlns="http://www.w3.org/2000/svg">
    <path d="M0.763672 32.5601L442.724 0.5L153.284 114.89L0.763672 32.5601Z" fill="#4CBBB8"/>
    <path d="M74.7037 43.4402C72.403 44.3984 70.2406 45.6596 68.2737 47.1902C63.7192 50.565 59.7584 54.6746 56.5537 59.3503C54.2174 62.9101 52.355 66.7589 51.0137 70.8C50.9437 71 50.8637 71.2101 50.8037 71.4201C50.6537 71.9001 50.4637 72.0101 50.0737 71.5901C45.9972 67.2776 43.4773 61.7275 42.9137 55.82C42.0737 46.53 45.4536 38.94 52.3736 32.82C60.7646 25.4069 71.1014 20.5491 82.1637 18.82C85.7033 18.2234 89.2843 17.9061 92.8736 17.8703C96.6345 17.7829 100.396 18.0271 104.114 18.6003C105.044 18.7503 105.054 18.7901 104.644 19.6501C101.968 25.1049 99.9862 30.873 98.7436 36.82C98.1667 39.7912 97.7925 42.7981 97.6236 45.82C97.3936 49.55 97.4236 53.2902 96.8636 57.0002C96.1001 61.6477 94.1236 66.0112 91.1337 69.6501C87.9045 74.0524 83.3803 77.3355 78.1937 79.0403C74.7039 80.161 71.0228 80.5618 67.3735 80.218C63.7243 79.8742 60.1829 78.7931 56.9637 77.0403C56.3837 76.7303 56.4637 76.4204 56.6537 75.9304C59.1186 70.0657 61.9096 64.3433 65.0137 58.7903C67.8037 53.6903 71.1737 48.9603 74.3337 44.1003L74.7037 43.4402Z" fill="#E2F3F4"/>
    <path d="M151.038 58.843H145.448L146.1 55.1163H151.69L152.343 51.3896H145.802L145.318 54.1846H141.591L142.746 47.6629H156.74L153.442 66.2964H139.448L140.604 59.7747H144.33L143.846 62.5697H150.386L151.038 58.843ZM161.596 58.843H160.347L159.024 66.2964H155.298L158.596 47.6629H162.322L160.999 55.1163H165.658L166.981 47.6629H173.503L172.832 51.3896H170.037L168.732 58.843H166.18L170.148 66.2964H165.565L161.596 58.843ZM175.368 47.6629H190.274L186.976 66.2964H172.07L175.368 47.6629ZM178.424 51.3896L176.467 62.5697H183.92L185.877 51.3896H178.424ZM199.481 53.5697L192.009 66.2964H187.91L198.848 47.6629H202.202L206.543 66.2964H202.444L199.481 53.5697ZM209.881 47.6629H224.788L221.49 66.2964H206.583L209.881 47.6629ZM212.937 51.3896L210.981 62.5697H218.434L220.391 51.3896H212.937ZM229.616 62.5697H231.479L230.809 66.2964H223.355L224.026 62.5697H225.889L227.846 51.3896H225.983L226.653 47.6629H239.697L238.709 53.253H234.983L235.299 51.3896H231.573L229.616 62.5697ZM251.805 47.6629H255.532L252.234 66.2964H248.507L250.184 56.7933L242.656 62.5697L241.985 66.2964H238.258L241.557 47.6629H245.283L243.606 57.166L251.134 51.3896L251.805 47.6629ZM272.313 47.6629L269.015 66.2964H265.288L266.611 58.843H265.735L259.679 66.2964H255.095L261.151 58.843H257.294L258.598 51.3896H256.735L257.406 47.6629H272.313ZM262.325 51.3896L261.673 55.1163H267.263L267.915 51.3896H262.325Z" fill="white"/>
</svg>
