<svg width="455" height="116" viewBox="0 0 455 116" fill="none" xmlns="http://www.w3.org/2000/svg">
    <path d="M0.273682 32.7998L442.234 0.72998L152.794 115.12L0.273682 32.7998Z" fill="#00A6E0"/>
    <path d="M38.9836 73V28C39.2167 28.2872 39.3655 28.6333 39.4136 29C41.667 35.7133 43.907 42.4232 46.1337 49.1299C46.5758 50.6979 47.5984 52.0388 48.9937 52.8799C50.0583 53.4624 51.2609 53.7461 52.4736 53.7002C55.6236 53.7002 58.7837 53.7002 61.9337 53.7002C63.5237 53.7002 63.3236 53.5198 63.3336 55.0898C63.3336 57.0198 64.0436 57.7202 65.9736 57.7202H80.1937C82.8737 57.7202 83.3636 57.2498 83.3536 54.5498C83.3536 53.8698 83.5636 53.6799 84.2336 53.6899C87.5436 53.6899 90.8536 53.6899 94.1636 53.6899C94.7921 53.6971 95.4194 53.6334 96.0336 53.5C97.1113 53.265 98.1034 52.7372 98.9008 51.9751C99.6982 51.213 100.27 50.2462 100.554 49.1802C102.794 42.4402 105.04 35.7066 107.294 28.98C107.345 28.616 107.49 28.2715 107.714 27.98V72.98C107.714 73.09 107.624 73.19 107.594 73.29C107.188 74.6818 106.323 75.8948 105.138 76.7305C103.954 77.5661 102.521 77.9751 101.074 77.8901C82.5937 77.8301 64.0737 77.8901 45.6337 77.8901H44.6937C43.4357 77.8296 42.2287 77.3745 41.2437 76.5898C40.1284 75.6634 39.3368 74.4062 38.9836 73Z" fill="#C2E9F8"/>
    <path d="M50.8436 25.47H58.2936C59.1936 25.47 59.2236 25.4699 59.2036 24.5799C59.0603 23.1707 59.3387 21.7506 60.0036 20.4998C60.4923 19.5981 61.214 18.8439 62.0935 18.3162C62.973 17.7885 63.978 17.5066 65.0036 17.4998C70.5736 17.4398 76.1436 17.4498 81.7136 17.4998C83.2293 17.5492 84.6702 18.1709 85.7462 19.2396C86.8223 20.3082 87.4538 21.7442 87.5136 23.2596C87.5386 23.7493 87.5386 24.2401 87.5136 24.7298C87.4636 25.3598 87.7236 25.5396 88.3336 25.5296C92.4736 25.5296 96.6036 25.5296 100.744 25.5296H103.494C104.324 25.5296 104.354 25.5297 104.094 26.3597C102.567 30.9264 101.04 35.4999 99.5136 40.0799L96.9036 47.89C96.8078 48.474 96.4848 48.996 96.0051 49.3426C95.5255 49.6892 94.9281 49.8324 94.3436 49.7401H84.2536C83.3736 49.7401 83.3836 49.7397 83.3636 48.8397C83.3821 48.3957 83.3654 47.9509 83.3136 47.5096C83.2863 47.2454 83.2067 46.9893 83.0793 46.7562C82.952 46.5231 82.7795 46.3179 82.5719 46.1522C82.3643 45.9865 82.1257 45.8639 81.8702 45.7913C81.6147 45.7188 81.3473 45.6979 81.0836 45.7298C79.3636 45.7298 77.6436 45.7298 75.9236 45.7298H65.9836C64.0436 45.7298 63.3536 46.4299 63.3336 48.3499C63.3336 49.9299 63.5236 49.7498 61.9536 49.7498C58.7336 49.7498 55.5036 49.7498 52.2836 49.7498C51.7424 49.8072 51.1995 49.6589 50.7624 49.3348C50.3253 49.0107 50.0259 48.5343 49.9236 47.9998C47.5036 40.7598 45.0869 33.5196 42.6736 26.2796C42.4236 25.5296 42.4636 25.4798 43.2436 25.4798L50.8436 25.47ZM73.3236 25.47H81.7736C83.5636 25.47 83.3736 25.7199 83.3636 23.8499C83.3987 23.5407 83.3635 23.2272 83.2608 22.9334C83.1581 22.6396 82.9905 22.3732 82.7705 22.1532C82.5504 21.9331 82.2836 21.7651 81.9898 21.6624C81.696 21.5597 81.3829 21.5248 81.0736 21.5599C75.9203 21.5599 70.7736 21.5599 65.6336 21.5599C65.3239 21.5265 65.0105 21.5629 64.7168 21.6668C64.4231 21.7708 64.1565 21.9397 63.9367 22.1605C63.7168 22.3813 63.5494 22.6485 63.4467 22.9427C63.3441 23.2369 63.3088 23.5501 63.3436 23.8597C63.3436 24.0797 63.3436 24.2999 63.3436 24.5199C63.3436 25.4699 63.3436 25.47 64.2736 25.47H73.3236Z" fill="#C2E9F8"/>
    <path d="M73.3536 53.71C71.5636 53.71 69.7736 53.71 67.9936 53.71C67.4436 53.71 67.2336 53.54 67.2536 52.98C67.2536 52.05 67.2536 51.1099 67.2536 50.1699C67.2536 49.7399 67.4236 49.5801 67.8536 49.5801C71.5136 49.5801 75.1803 49.5801 78.8536 49.5801C79.2736 49.5801 79.4536 49.7299 79.4436 50.1699C79.4436 51.1699 79.4436 52.09 79.4436 53.04C79.4436 53.53 79.2736 53.71 78.7736 53.71C76.9736 53.7 75.1636 53.71 73.3536 53.71Z" fill="#C2E9F8"/>
    <path d="M148.988 67.3965L151.616 52.4897H146.026L143.398 67.3965H139.672L142.299 52.4897H140.436L141.106 48.763H156.013L152.715 67.3965H148.988ZM161.493 59.9431L160.17 67.3965H156.444L159.071 52.4897H157.208L157.878 48.763H172.785L170.81 59.9431H161.493ZM162.798 52.4897L162.145 56.2164H167.736L168.388 52.4897H162.798ZM185.83 48.763L185.16 52.4897H177.706L177.389 54.353H184.843L184.172 58.0797H176.719L175.75 63.6698H183.203L182.532 67.3965H171.352L174.65 48.763H185.83ZM203.076 63.6512H205.554L204.231 71.1418H200.505L201.157 67.4151H188.113L187.461 71.1418H183.734L185.057 63.6512H187.517L196.256 48.763H199.61L203.076 63.6512ZM191.616 63.6512H198.977L196.89 54.6698L191.616 63.6512ZM217.921 67.3965L220.549 52.4897H214.959L212.331 67.3965H208.605L211.232 52.4897H209.369L210.039 48.763H224.946L221.648 67.3965H217.921ZM230.426 59.9431L229.103 67.3965H225.377L228.004 52.4897H226.141L226.811 48.763H241.718L239.743 59.9431H230.426ZM231.731 52.4897L231.078 56.2164H236.668L237.321 52.4897H231.731ZM253.832 48.763H257.558L254.26 67.3965H250.534L252.211 57.8934L244.683 63.6698L244.012 67.3965H240.285L243.583 48.763H247.31L245.633 58.2661L253.161 52.4897L253.832 48.763ZM269.681 48.763H273.408L270.11 67.3965H266.383L267.818 59.3841H261.296L259.861 67.3965H256.135L259.433 48.763H263.159L262.023 55.2847H268.544L269.681 48.763ZM285.53 48.763H289.257L285.959 67.3965H282.232L283.909 57.8934L276.381 63.6698L275.711 67.3965H271.984L275.282 48.763H279.009L277.332 58.2661L284.86 52.4897L285.53 48.763ZM293.367 57.1294L291.56 67.3965H287.833L291.131 48.763H295.79L298.156 61.6946L305.107 48.763H309.765L306.467 67.3965H302.74L304.548 57.1294L299.013 67.3965H295.287L293.367 57.1294ZM321.195 52.4897H314.673L314.021 56.2164H320.543L321.195 52.4897ZM319.891 59.9431H313.369L312.046 67.3965H308.319L311.617 48.763H325.592L322.294 67.3965H318.568L319.891 59.9431ZM336.113 52.4897L333.485 67.3965H329.759L332.386 52.4897H325.864L326.535 48.763H343.305L342.634 52.4897H336.113ZM355.419 48.763L354.748 52.4897H347.295L346.978 54.353H354.431L353.76 58.0797H346.307L345.338 63.6698H352.791L352.121 67.3965H340.941L344.239 48.763H355.419ZM364.615 54.6698L357.143 67.3965H353.043L363.981 48.763H367.335L371.677 67.3965H367.577L364.615 54.6698ZM382.617 63.6698L383.269 59.9431H376.748L376.096 63.6698H382.617ZM377.4 56.2164H387.648L385.692 67.3965H371.717L374.996 48.763H378.723L377.4 56.2164ZM402.212 63.6698L401.541 67.3965H387.566L390.864 48.763H404.839L404.169 52.4897H393.92L391.964 63.6698H402.212ZM415.36 52.4897L412.732 67.3965H409.006L411.633 52.4897H405.111L405.782 48.763H422.552L421.881 52.4897H415.36ZM431.107 63.6698L431.759 59.9431H425.237L424.585 63.6698H431.107ZM433.063 52.4897H426.541L425.889 56.2164H432.411L433.063 52.4897ZM437.461 48.763L434.163 67.3965H420.187L423.486 48.763H437.461ZM439.335 48.763H454.242L450.944 67.3965H436.037L439.335 48.763ZM442.391 52.4897L440.434 63.6698H447.888L449.844 52.4897H442.391Z" fill="white"/>
</svg>
