<svg width="443"  xmlns="http://www.w3.org/2000/svg" viewBox="0 0 442 114.4">
    <defs>
        <style>
            .cls-31{fill:#4cbbb7;}.cls-2{fill:#c9eae9;stroke:#b0dcdf;stroke-miterlimit:10;stroke-width:0.23px;}.cls-3{font-size:24px;fill:#fff;font-family:RED_GaliverSans-BoldItalic,
            RED_Galiver Sans;font-weight:700;font-style:italic;}
        </style>
    </defs>
    <title>Asset 13</title>
    <g id="Layer_2" data-name="Layer 2">
        <g id="Слой_1" data-name="Слой 1">
            <polygon class="cls-31" points="0 32.07 442 0 152.53 114.4 0 32.07"/>
            <path class="cls-2"
                  d="M38.52,58.07V52.41c.19-1.26.32-2.54.57-3.79A34.42,34.42,0,0,1,79.18,21.26c13.64,2.57,22.6,10.8,27.05,23.9a35.12,35.12,0,0,1,1.43,7.25v5.66c-.16,1.11-.26,2.23-.49,3.32q-4.36,20.53-24.37,27a35.62,35.62,0,0,1-6.87,1.31H70.26c-1.11-.16-2.24-.26-3.33-.49Q46.35,84.9,39.84,64.93A35.53,35.53,0,0,1,38.52,58.07ZM52.66,75.49l.11.12c.18-.07.37-.13.54-.21Q66.6,69.24,79.87,63.09A2.17,2.17,0,0,0,81,62q6.14-13.23,12.31-26.45c.08-.19.26-.37.14-.68l-.67.29Q79.63,41.23,66.49,47.3a2.66,2.66,0,0,0-1.36,1.38q-5,10.86-10.1,21.69Z"/>
            <path class="cls-2" d="M73.07,51.4a3.84,3.84,0,1,1-3.82,3.87A3.79,3.79,0,0,1,73.07,51.4Z"/>
            <text class="cls-3" transform="translate(139.86 47.43)">ПУТЕШЕСТВИЯ
                <tspan x="0" y="28.8">И ТУРИЗМ</tspan>
            </text>
        </g>
    </g>
</svg>
