<svg width="443" xmlns="http://www.w3.org/2000/svg" viewBox="0 0 442 114.4"><defs><style>.cls-1{fill:#eb5752;}.cls-2{fill:#ffd3cf;}.cls-3{font-size:24px;fill:#fff;font-family:RED_GaliverSans-BoldItalic, RED_Galiver Sans;font-weight:700;font-style:italic;}</style></defs><title>Asset 5</title><g id="Layer_2" data-name="Layer 2"><g id="Слой_1" data-name="Слой 1"><polygon class="cls-1" points="0 32.07 442 0 152.53 114.4 0 32.07"/><path class="cls-2" d="M57.54,90.92a2.89,2.89,0,0,1-1.71-3c.06-2.56,0-5.12,0-7.69a1.33,1.33,0,0,0-.49-1.13,26.62,26.62,0,0,1-9.16-17.36A21.3,21.3,0,0,1,46,59q0-16.6,0-33.19a3.71,3.71,0,0,1,4-4,3.63,3.63,0,0,1,3.45,3.33c.06,5.1,0,10.2,0,15.29a1.88,1.88,0,0,1-.32.92c-3.57,6.19-2.43,13.4,2.31,18.77,3.43,3.89,7.56,7,11.51,10.27.58.49,1.17,1,1.79,1.42a6.92,6.92,0,0,0,8.39.07c4.8-3.72,9.66-7.38,13.66-12a16,16,0,0,0,4.21-10.64,14.9,14.9,0,0,0-3.79-10.19c-.38-.43-1-.72-1.06-1.39a6.17,6.17,0,0,1,.45-3.2,5,5,0,0,1,5.5-2.75,4.92,4.92,0,0,1,4,4.78c0,7.9.09,15.8,0,23.71a24.84,24.84,0,0,1-4.17,13,26.8,26.8,0,0,1-5.17,6,1.25,1.25,0,0,0-.44,1.07c0,2.57,0,5.13,0,7.69a2.89,2.89,0,0,1-1.71,3Z"/><path class="cls-2" d="M55.85,49.08a9.86,9.86,0,0,1,9.62-10.15,8.93,8.93,0,0,1,7,2.84c.46.48.72.54,1.23,0a9.27,9.27,0,0,1,10.68-2,9.73,9.73,0,0,1,5.94,9c.2,3.48-1.37,6.25-3.58,8.75-2.81,3.19-6.25,5.66-9.47,8.39-.81.69-1.62,1.38-2.47,2a2.47,2.47,0,0,1-3.37,0c-4.09-3.39-8.41-6.51-12-10.45A11.92,11.92,0,0,1,55.85,49.08Z"/><path class="cls-2" d="M70.57,22.47c0-3.87,0-7.74,0-11.6A3.74,3.74,0,0,1,76.7,8,3.41,3.41,0,0,1,78,10.69q0,11.55,0,23.12a.77.77,0,0,1-.74.87A11.91,11.91,0,0,0,73.62,36a1.35,1.35,0,0,1-1.08,0c-1.65-.41-2.09-1.39-2-3.06C70.67,29.45,70.57,26,70.57,22.47Z"/><path class="cls-2" d="M58.31,25.48c0-3.27,0-6.54,0-9.81a3.73,3.73,0,0,1,7.36-.77,4.91,4.91,0,0,1,.1,1.21c0,5.67,0,11.34,0,17,0,.76-.16,1.11-1,1.15a13.29,13.29,0,0,0-5.7,1.6c-.6.33-.8.18-.79-.5,0-3.3,0-6.59,0-9.89Z"/><path class="cls-2" d="M82.84,24.68c0-3,0-6,0-9a3.68,3.68,0,0,1,3.31-3.64A3.72,3.72,0,0,1,90.22,15a5.33,5.33,0,0,1,.09,1c0,3.84,0,7.68,0,11.52a1.29,1.29,0,0,1-.62,1.22,9.06,9.06,0,0,0-3.84,5.59c-.18.77-.46.87-1.17.64-1.85-.61-1.86-.58-1.86-2.53V24.68Z"/><text class="cls-3" transform="translate(139.86 63.45)">ВОЛОНТЕРСТВО</text></g></g></svg>
