<svg  width="443"  xmlns="http://www.w3.org/2000/svg" viewBox="0 0 442 114.4"><defs><style>.cls-1{fill:#eb5752;}.cls-2{fill:#ffd3cf;}.cls-3{font-size:24px;fill:#fff;font-family:RED_GaliverSans-BoldItalic, RED_Galiver Sans;font-weight:700;font-style:italic;}</style></defs><title>Asset 7</title><g id="Layer_2" data-name="Layer 2"><g id="Слой_1" data-name="Слой 1"><polygon class="cls-1" points="0 32.07 442 0 152.53 114.4 0 32.07"/><path class="cls-2" d="M73.38,83.2h-.57c-.44-.23-.87-.47-1.32-.69A75.5,75.5,0,0,1,58.71,75a31,31,0,0,1-9.78-11.79,35.4,35.4,0,0,1-3.06-14.54c-.06-8.85,0-17.7,0-26.56a1.25,1.25,0,0,1,1-1.37q12.78-4.81,25.53-9.69a2,2,0,0,1,1.55,0q12.76,4.88,25.52,9.7a1.24,1.24,0,0,1,1,1.37q0,12.57,0,25.15a47,47,0,0,1-.59,7.59,29.79,29.79,0,0,1-8.49,16.87,49.08,49.08,0,0,1-10,7.36C78.7,80.57,76,81.83,73.38,83.2ZM61.69,40.51a3.89,3.89,0,0,0-.35.28c-1.94,1.93-3.87,3.87-5.82,5.79-.37.37-.28.6,0,.92Q61.83,53.74,68.07,60c.37.37.61.37,1,0q10.2-10.2,20.42-20.37c.4-.4.38-.65,0-1-1.78-1.75-3.54-3.53-5.31-5.29-.65-.65-.65-.66-1.3,0Q76.1,40,69.39,46.74c-.48.47-.76.5-1.24,0-1.93-2-3.89-3.91-5.85-5.85C62.14,40.74,62,40.52,61.69,40.51Z"/><text class="cls-3" transform="translate(133.33 47.39)">ГРАЖДАНСКАЯ<tspan x="0" y="28.8">ОТВЕТСТВЕННОСТЬ</tspan></text></g></g></svg>
