<svg width="443" height="115" viewBox="0 0 443 115" fill="none" xmlns="http://www.w3.org/2000/svg">
    <path d="M0.723633 32.0898L442.684 0.0297852L153.244 114.42L0.723633 32.0898Z" fill="#FF7171"/>
    <path d="M58.2536 90.5202C57.6837 90.2708 57.2094 89.8444 56.9013 89.3039C56.5932 88.7634 56.4678 88.1377 56.5437 87.5202C56.6037 84.9602 56.5437 82.4002 56.5437 79.8302C56.5591 79.6163 56.5227 79.402 56.4374 79.2052C56.352 79.0085 56.2204 78.8352 56.0537 78.7003C50.9005 74.2917 47.6242 68.0822 46.8937 61.34C46.7773 60.4246 46.7205 59.5029 46.7236 58.5802V25.3903C46.6798 24.8539 46.7532 24.3144 46.9387 23.8092C47.1242 23.304 47.4174 22.8451 47.798 22.4645C48.1785 22.0839 48.6373 21.7906 49.1425 21.6051C49.6477 21.4196 50.1872 21.3464 50.7236 21.3903C51.6059 21.429 52.4436 21.7887 53.0791 22.402C53.7145 23.0153 54.1038 23.84 54.1737 24.7204C54.2337 29.8104 54.1737 34.9099 54.1737 40.0099C54.1523 40.3368 54.0416 40.6517 53.8536 40.9201C50.2836 47.1201 51.4336 54.3201 56.1636 59.6901C59.5936 63.5801 63.7237 66.6901 67.6737 69.9601C68.2537 70.4501 68.8437 70.96 69.4637 71.38C70.6614 72.309 72.1311 72.819 73.6468 72.8317C75.1626 72.8443 76.6405 72.3592 77.8536 71.4503C82.6536 67.7303 87.5137 64.0703 91.5137 59.4503C94.1765 56.5414 95.6752 52.7537 95.7236 48.8102C95.7893 45.0603 94.4356 41.424 91.9337 38.63C91.5537 38.19 90.9337 37.9001 90.8737 37.2301C90.7388 36.1433 90.8905 35.04 91.3137 34.0299C91.803 33.0304 92.6075 32.2198 93.6033 31.7228C94.5991 31.2258 95.7307 31.07 96.8237 31.2799C97.9297 31.5042 98.9254 32.1014 99.6443 32.9713C100.363 33.8413 100.762 34.9317 100.774 36.0602C100.774 43.9602 100.864 51.8702 100.774 59.7702C100.629 64.407 99.1875 68.9105 96.6137 72.7702C95.1913 75.0109 93.4496 77.0322 91.4436 78.7702C91.2889 78.8993 91.1679 79.0642 91.0912 79.2506C91.0146 79.4371 90.9845 79.6393 91.0036 79.84C91.0036 82.41 91.0036 84.9699 91.0036 87.5299C91.0845 88.148 90.9612 88.776 90.6525 89.3175C90.3438 89.8591 89.8667 90.2846 89.2937 90.5299L58.2536 90.5202Z" fill="#FFDDDD"/>
    <path d="M56.5637 48.68C56.5277 47.3816 56.7482 46.0889 57.2124 44.8758C57.6766 43.6627 58.3754 42.5529 59.2689 41.6102C60.1625 40.6674 61.2331 39.9102 62.4196 39.3816C63.6061 38.8531 64.8852 38.5633 66.1837 38.5296C67.488 38.4626 68.7911 38.6831 70.0008 39.1756C71.2105 39.6681 72.2971 40.4206 73.1837 41.3797C73.6437 41.8497 73.9036 41.9097 74.4136 41.3797C75.7518 39.9579 77.5044 38.9943 79.4219 38.6263C81.3394 38.2582 83.3241 38.5046 85.0937 39.3299C86.8585 40.0805 88.363 41.3342 89.4195 42.9349C90.4759 44.5355 91.0373 46.4121 91.0336 48.3299C91.2336 51.8099 89.6636 54.5799 87.4536 57.0799C84.6436 60.2699 81.2036 62.74 77.9836 65.47C77.1736 66.16 76.3636 66.85 75.5136 67.47C75.0563 67.8967 74.4541 68.1336 73.8286 68.1336C73.2032 68.1336 72.601 67.8967 72.1436 67.47C68.0536 64.08 63.7336 60.9698 60.1436 57.0198C57.8963 54.8213 56.6095 51.8235 56.5637 48.68V48.68Z" fill="#FFDDDD"/>
    <path d="M71.2836 22.0698C71.2836 18.2098 71.2836 14.3402 71.2836 10.4702C71.2808 9.75866 71.4816 9.0611 71.8622 8.45995C72.2429 7.85879 72.7876 7.37884 73.432 7.07714C74.0764 6.77543 74.7937 6.66419 75.4992 6.75682C76.2047 6.84945 76.8689 7.14225 77.4136 7.60008C77.8269 7.91631 78.1618 8.32355 78.3925 8.79003C78.6231 9.25651 78.7433 9.76964 78.7436 10.29C78.7436 18 78.7436 25.7101 78.7436 33.4101C78.7593 33.5171 78.7519 33.6261 78.7221 33.73C78.6922 33.8339 78.6406 33.9303 78.5705 34.0127C78.5005 34.095 78.4137 34.1614 78.3159 34.2075C78.2182 34.2536 78.1117 34.2781 78.0036 34.2798C76.7111 34.4989 75.4641 34.9317 74.3136 35.56C74.1433 35.6344 73.9595 35.6728 73.7736 35.6728C73.5878 35.6728 73.4039 35.6344 73.2336 35.56C71.5836 35.15 71.1436 34.17 71.2336 32.5C71.3836 29.05 71.2836 25.5598 71.2836 22.0698Z" fill="#FFDDDD"/>
    <path d="M59.0236 25.0803C59.0236 21.8103 59.0236 18.5402 59.0236 15.2702C59.0441 14.3629 59.3946 13.4939 60.0096 12.8264C60.6246 12.1589 61.4619 11.7387 62.3646 11.6443C63.2673 11.5498 64.1734 11.788 64.9132 12.3137C65.6531 12.8394 66.1758 13.6167 66.3836 14.5002C66.4623 14.9019 66.4959 15.3113 66.4836 15.7204C66.4836 21.3904 66.4836 27.0504 66.4836 32.7204C66.4836 33.4904 66.3236 33.8301 65.4836 33.8801C63.4859 33.9679 61.5353 34.5156 59.7836 35.4802C59.1836 35.8102 58.9836 35.6504 58.9936 34.9704C58.9936 31.6804 58.9936 28.3803 58.9936 25.0803H59.0236Z" fill="#FFDDDD"/>
    <path d="M83.5536 24.2901C83.5536 21.2901 83.5536 18.2901 83.5536 15.2901C83.5605 14.3701 83.9071 13.4852 84.5269 12.8052C85.1467 12.1253 85.9959 11.6983 86.9114 11.6065C87.8268 11.5147 88.7438 11.7644 89.4863 12.3077C90.2287 12.851 90.7442 13.6496 90.9336 14.5499C90.9976 14.8792 91.0244 15.2146 91.0136 15.5499C91.0136 19.3899 91.0136 23.2301 91.0136 27.0801C91.0339 27.321 90.9867 27.5629 90.8771 27.7784C90.7676 27.9939 90.6002 28.1743 90.3936 28.2999C88.4358 29.5888 87.0581 31.5909 86.5536 33.88C86.3736 34.65 86.0936 34.7601 85.3836 34.5201C83.5336 33.9101 83.5236 33.9403 83.5236 31.9903V24.3101L83.5536 24.2901Z" fill="#FFDDDD"/>
    <path d="M150.328 62.0995L150.98 58.3728H144.458L143.806 62.0995H150.328ZM152.284 50.9194H145.762L145.11 54.6461H151.632L152.284 50.9194ZM156.682 47.1927L153.384 65.8262H139.408L142.707 47.1927H156.682ZM158.556 47.1927H173.463L170.165 65.8262H155.258L158.556 47.1927ZM161.612 50.9194L159.655 62.0995H167.109L169.065 50.9194H161.612ZM182.669 53.0995L175.197 65.8262H171.098L182.036 47.1927H185.39L189.732 65.8262H185.632L182.669 53.0995ZM193.07 47.1927H207.977L204.678 65.8262H189.772L193.07 47.1927ZM196.126 50.9194L194.169 62.0995H201.622L203.579 50.9194H196.126ZM220.09 47.1927H223.817L220.519 65.8262H216.792L218.227 57.8138H211.705L210.27 65.8262H206.544L209.842 47.1927H213.568L212.432 53.7144H218.953L220.09 47.1927ZM234.337 50.9194L231.71 65.8262H227.983L230.61 50.9194H224.089L224.759 47.1927H241.53L240.859 50.9194H234.337ZM253.643 47.1927L252.972 50.9194H245.519L245.202 52.7827H252.656L251.985 56.5094H244.531L243.562 62.0995H251.016L250.345 65.8262H239.165L242.463 47.1927H253.643ZM259.112 58.3728L257.789 65.8262H254.063L256.69 50.9194H254.827L255.497 47.1927H270.404L268.429 58.3728H259.112ZM260.417 50.9194L259.764 54.6461H265.354L266.007 50.9194H260.417ZM283.617 62.0995L282.946 65.8262H268.971L272.269 47.1927H286.244L285.574 50.9194H275.325L273.369 62.0995H283.617ZM296.765 50.9194L294.137 65.8262H290.411L293.038 50.9194H286.516L287.187 47.1927H303.957L303.286 50.9194H296.765ZM312.512 62.0995L313.164 58.3728H306.642L305.99 62.0995H312.512ZM314.468 50.9194H307.946L307.294 54.6461H313.816L314.468 50.9194ZM318.866 47.1927L315.568 65.8262H301.592L304.891 47.1927H318.866ZM320.74 47.1927H335.647L332.349 65.8262H317.442L320.74 47.1927ZM323.796 50.9194L321.839 62.0995H329.293L331.249 50.9194H323.796Z" fill="white"/>
</svg>
