<svg width="443"  xmlns="http://www.w3.org/2000/svg" viewBox="0 0 442 114.4">
    <defs>
        <style>
            .cls-31{fill:#4cbbb7;}.cls-2{fill:#c9eae9;stroke:#b0dcdf;stroke-miterlimit:10;stroke-width:0.23px;}.cls-3{font-size:24px;fill:#fff;font-family:RED_GaliverSans-BoldItalic,
            RED_Galiver Sans;font-weight:700;font-style:italic;}
        </style>
    </defs>
    <title>Asset 15</title>
    <g id="Layer_2" data-name="Layer 2">
        <g id="Слой_1" data-name="Слой 1">
            <polygon class="cls-31" points="0 32.07 442 0 152.53 114.4 0 32.07"/>
            <path class="cls-2"
                  d="M80.56,83.93H67.77c0-.39,0-.79,0-1.18,0-4.79,0-9.58,0-14.37a5,5,0,0,0-5.16-5.11q-3.51,0-7,0a5.08,5.08,0,0,0-5.4,5.39V82.89c0,.35,0,.7,0,1H39.56a3.78,3.78,0,0,1-2.09-2.08V17.36l.15-.39a5.29,5.29,0,0,1,6.16-3.66c3.71.55,7.41,1.12,11.12,1.68l20,3a8.18,8.18,0,0,1,2.87.75A5.52,5.52,0,0,1,80.58,24q0,29.57,0,59.13C80.58,83.42,80.56,83.68,80.56,83.93Zm-29-54.23c.76,0,1.53,0,2.29,0a2.08,2.08,0,0,0,2.06-2.09,2.13,2.13,0,0,0-2.11-2.13c-1.5,0-3,0-4.5,0a2.06,2.06,0,0,0-2.07,2.15,2,2,0,0,0,2,2.07C50,29.72,50.8,29.7,51.56,29.7Zm0,8.89c.79,0,1.57,0,2.36,0a2.11,2.11,0,0,0,0-4.22c-1.57,0-3.14,0-4.71,0a2,2,0,0,0-2,2.16,2,2,0,0,0,2,2.05C50,38.62,50.76,38.59,51.52,38.59Zm0,8.9c.79,0,1.57,0,2.36,0a2.07,2.07,0,0,0,2-2.11,2.09,2.09,0,0,0-2-2.1q-2.36-.06-4.71,0a2,2,0,0,0-2,2.16,2,2,0,0,0,2,2C50,47.51,50.75,47.49,51.51,47.49Zm.05,8.89c.76,0,1.52,0,2.29,0a2.08,2.08,0,0,0,2.06-2.09,2.12,2.12,0,0,0-2.1-2.13c-1.5,0-3,0-4.51,0a2.05,2.05,0,0,0-2.07,2.14,2,2,0,0,0,2,2.08C50,56.41,50.8,56.38,51.56,56.38ZM66.35,29.7h0c.76,0,1.53,0,2.29,0a2.12,2.12,0,0,0,0-4.23c-1.52,0-3,0-4.58,0a2.11,2.11,0,0,0,0,4.22C64.82,29.72,65.59,29.7,66.35,29.7Zm0,8.89c.78,0,1.57,0,2.35,0a2.11,2.11,0,0,0,.06-4.22c-1.57,0-3.15,0-4.72,0a2.11,2.11,0,0,0,0,4.22C64.81,38.62,65.57,38.59,66.34,38.59Zm0,8.9c.78,0,1.57,0,2.35,0a2.11,2.11,0,0,0,0-4.21c-1.57,0-3.15,0-4.72,0a2.11,2.11,0,0,0,0,4.21C64.82,47.51,65.58,47.49,66.35,47.49Zm0,8.89h0c.77,0,1.53,0,2.29,0a2.11,2.11,0,1,0,0-4.22c-1.52,0-3,0-4.58,0a2.11,2.11,0,0,0,0,4.22C64.83,56.41,65.59,56.38,66.35,56.38Z"/>
            <path class="cls-2"
                  d="M83.34,83.93c0-.3,0-.6,0-.9V41.7c0-1.29,0-1.31,1.31-1,6.52,1.36,13,2.75,19.56,4.08a5.48,5.48,0,0,1,4.52,5.63c-.07,9.19,0,18.38,0,27.57,0,3.33-1,4.76-4.09,6Zm12-31.07c-.72,0-1.44,0-2.16,0a2.16,2.16,0,1,0,0,4.32c1.39,0,2.78,0,4.17,0a2.17,2.17,0,1,0,0-4.32C96.68,52.84,96,52.85,95.34,52.86Zm0,8.89h-2a2.17,2.17,0,1,0,0,4.33c1.34,0,2.68,0,4,0a2.18,2.18,0,1,0,0-4.33Zm0,13.23c.69,0,1.39,0,2.08,0a2.17,2.17,0,1,0,0-4.33c-1.37,0-2.74,0-4.1,0a2.22,2.22,0,0,0-2.35,2.16A2.28,2.28,0,0,0,93.26,75C93.93,75,94.6,75,95.27,75Z"/>
            <text class="cls-3" transform="translate(139.09 63.45)">УРБАНИСТИКА</text>
        </g>
    </g>
</svg>
