<svg width="443" height="115" viewBox="0 0 443 115" fill="none" xmlns="http://www.w3.org/2000/svg">
    <path d="M0.723633 32.5801L442.684 0.509766L153.244 114.9L0.723633 32.5801Z" fill="#FF7171"/>
    <path d="M105.834 71.6699C105.681 72.0367 105.438 72.3588 105.126 72.6055C104.815 72.8521 104.446 73.0155 104.054 73.0801C103.662 73.0992 103.273 73.0169 102.923 72.8418C102.572 72.6666 102.273 72.4045 102.054 72.0801C99.6676 69.233 96.9056 66.7234 93.8437 64.6201C89.2719 61.4602 84.1194 59.2373 78.6837 58.0801C77.8037 57.8901 77.8036 57.9002 77.8036 56.9902C77.8036 49.0302 77.8036 41.0632 77.8036 33.0898C77.8036 32.4098 78.0136 32.17 78.6636 32.02C86.1559 30.4532 93.074 26.8591 98.6636 21.6299C99.857 20.4982 100.989 19.3031 102.054 18.0498C102.409 17.6046 102.874 17.2599 103.404 17.0498C104.154 17.0498 104.904 17.0498 105.654 17.0498C105.874 17.0498 105.954 17.0498 105.914 17.2998C105.904 17.4062 105.904 17.5137 105.914 17.6201L105.834 71.6699Z" fill="#FFDDDD"/>
    <path d="M41.7537 38.4399C42.1937 37.4399 50.5437 33.0298 51.8437 33.0298H62.6037C65.2537 33.0298 67.9037 33.0298 70.5537 33.0298C71.4268 33.0298 72.2988 32.97 73.1637 32.8501C73.7337 32.7701 73.8537 32.9702 73.8437 33.4702C73.8437 35.2402 73.8437 37.0098 73.8437 38.7798V56.27C73.8437 57.39 73.8937 57.3402 72.8437 57.2202C70.9709 57.0719 69.0913 57.0281 67.2137 57.0898C66.5337 57.0898 66.5237 57.09 66.8437 57.75C68.9437 61.93 71.0337 66.13 73.1437 70.31C73.4246 70.8346 73.5881 71.4138 73.6226 72.0078C73.6571 72.6018 73.562 73.1964 73.3437 73.75C73.1217 74.3101 72.7805 74.8151 72.3437 75.23L67.8237 79.7202C67.3453 80.2675 66.7288 80.6761 66.0385 80.9038C65.3482 81.1315 64.6095 81.1694 63.8994 81.0141C63.1893 80.8588 62.5339 80.516 62.0017 80.021C61.4695 79.5259 61.0799 78.8972 60.8737 78.2002C58.8037 72.7502 56.7637 67.2998 54.7137 61.8398C54.2037 60.4998 53.7137 59.1598 53.2137 57.8398C53.0237 57.2998 52.7637 57.0399 52.2137 57.1099C51.6637 57.1799 42.2137 52.7002 41.7937 51.7002L41.7537 38.4399Z" fill="#FFDDDD"/>
    <path d="M154.424 36.7598H157.224L158.544 29.3101H165.064L164.394 33.04H161.604L160.294 40.4902H158.494L160.964 47.9399H156.754L154.274 40.4902H153.774L152.454 47.9399H148.724L150.044 40.4902H149.544L144.424 47.9399H140.214L145.334 40.4902H143.524L144.834 33.04H142.034L142.704 29.3101H149.234L147.904 36.7598H150.704L152.024 29.3101H155.754L154.424 36.7598Z" fill="white"/>
    <path d="M170.474 29.3101L173.134 36.3101L178.294 29.3101H182.774L169.034 47.9399H164.564L170.214 40.2798L167.414 33.04H164.414L165.084 29.3101H170.474Z" fill="white"/>
    <path d="M187.314 40.4902L185.994 47.9399H182.264L184.924 33H183.064L183.734 29.27H198.634L196.634 40.4502L187.314 40.4902ZM188.624 33.04L187.964 36.7598H193.554L194.214 33.04H188.624Z" fill="white"/>
    <path d="M210.724 29.3101H214.444L211.144 47.9399H207.424L208.854 39.9399H202.334L200.904 47.9399H197.174L200.474 29.3101H204.194L203.064 35.8301H209.584L210.724 29.3101Z" fill="white"/>
    <path d="M224.584 40.4902H218.064L216.734 47.9399H213.014L216.304 29.3101H230.304L227.004 47.9399H223.274L224.584 40.4902ZM225.924 33H219.404L218.754 36.7202H225.274L225.924 33Z" fill="white"/>
    <path d="M239.484 35.2202L232.014 47.9399H227.924L238.864 29.3101H242.224L246.564 47.9399H242.464L239.484 35.2202Z" fill="white"/>
    <path d="M260.134 29.3101H263.864L260.564 47.9399H256.834L258.514 38.4399L250.984 44.2202L250.314 47.9399H246.584L249.884 29.3101H253.614L251.934 38.8101L259.464 33.04L260.134 29.3101Z" fill="white"/>
    <path d="M277.074 44.2202L276.404 47.9399H262.404L265.704 29.3101H279.704L279.034 33.04H268.784L266.784 44.2202H277.074Z" fill="white"/>
    <path d="M290.204 33L287.584 47.8999H283.854L286.484 33H279.924L280.594 29.27H297.364L296.694 33H290.204Z" fill="white"/>
    <path d="M308.584 29.3101H312.304L309.014 47.9399H305.284L306.964 38.4399L299.434 44.2202L298.764 47.9399H295.034L298.334 29.3101H302.064L300.384 38.8101L307.924 33L308.584 29.3101Z" fill="white"/>
    <path d="M317.174 40.4902H315.924L314.604 47.9399H310.924L314.224 29.3101H317.924L316.604 36.7598H321.264L322.584 29.3101H329.104L328.434 33.04H325.644L324.334 40.4902H321.784L325.784 47.9399H321.204L317.174 40.4902Z" fill="white"/>
    <path d="M339.214 40.4902H332.694L331.374 47.9399H327.644L330.944 29.3101H344.944L341.644 47.9399H337.924L339.214 40.4902ZM340.524 33.04H333.994L333.344 36.7598H339.864L340.524 33.04Z" fill="white"/>
    <path d="M152.924 58.3799H156.654L153.354 77.0098H149.624L151.304 67.5098L143.774 73.2798L143.104 77.0098H139.374L142.674 58.3799H146.404L144.724 67.8799L152.254 62.1001L152.924 58.3799Z" fill="white"/>
    <path d="M178.114 58.3799H181.834L178.544 77H174.814L176.244 69H169.724L168.294 77H164.564L167.864 58.3701H171.584L170.454 64.8901H176.974L178.114 58.3799Z" fill="white"/>
    <path d="M183.704 58.3799H198.604L195.314 77H180.404L183.704 58.3799ZM186.754 62.1001L184.804 73.2798H192.254L194.254 62.1001H186.754Z" fill="white"/>
    <path d="M214.444 58.3799L211.144 77.0098H197.144L200.444 58.3799H214.444ZM208.094 73.2798L208.744 69.5601H202.224L201.574 73.2798H208.094ZM210.044 62.1001H203.524L202.874 65.8301H209.394L210.044 62.1001Z" fill="white"/>
    <path d="M220.034 58.3799L218.714 65.8301H227.094L225.094 77.0098H213.014L216.304 58.3799H220.034ZM217.404 73.2798H222.064L222.714 69.5601H218.064L217.404 73.2798ZM229.784 77.0098H226.054L229.334 58.3799H233.064L229.784 77.0098Z" fill="white"/>
    <path d="M246.124 58.3799L245.454 62.1001H237.994L237.684 63.9702H245.134L244.464 67.6899H237.014L236.014 73.2798H243.464L242.794 77.0098H231.644L234.944 58.3799H246.124Z" fill="white"/>
    <path d="M259.534 66.7402L257.734 77.0098H254.004L257.304 58.3799H261.924L264.284 71.3101L271.284 58.3799H275.924L272.624 77.0098H268.924L270.724 66.7402L265.184 77H261.454L259.534 66.7402Z" fill="white"/>
    <path d="M288.984 58.3799L288.304 62.1001H280.854L280.534 63.9702H287.994L287.324 67.6899H279.864L278.864 73.2798H286.324L285.654 77.0098H274.504L277.794 58.3799H288.984Z" fill="white"/>
    <path d="M306.234 73.27H308.714L307.384 80.7598H303.664L304.314 77.0298H291.314L290.654 80.7598H286.924L288.244 73.27H290.704L299.444 58.3799H302.794L306.234 73.27ZM294.774 73.27H302.134L300.044 64.27L294.774 73.27Z" fill="white"/>
    <path d="M323.454 58.3799H327.174L323.924 77H320.204L321.874 67.5L314.354 73.27L313.684 77H309.924L313.224 58.3701H316.924L315.254 67.8701L322.784 62.0898L323.454 58.3799Z" fill="white"/>
    <path d="M337.314 69.5601H330.794L329.464 77.0098H325.744L329.044 58.3799H343.044L339.744 77.0098H336.024L337.314 69.5601ZM338.614 62.1001H332.094L331.444 65.8301H337.924L338.614 62.1001Z" fill="white"/>
</svg>
