<svg width="443" xmlns="http://www.w3.org/2000/svg" viewBox="0 0 442 114.4">
    <defs>
        <style>
            .cls-21{fill:#00b0e0;}.cls-2{fill:#b2e7f6;}.cls-3{font-size:24px;fill:#fff;font-family:RED_GaliverSans-BoldItalic,
            RED_Galiver Sans;font-weight:700;font-style:italic;}
        </style>
    </defs>
    <title>Asset 8</title>
    <g id="Layer_2" data-name="Layer 2">
        <g id="Слой_1" data-name="Слой 1">
            <polygon class="cls-21" points="0 32.07 442 0 152.53 114.4 0 32.07"/>
            <path class="cls-2"
                  d="M31.74,34.91A3.54,3.54,0,0,1,34,33.2q18.9-6.29,37.79-12.6a4,4,0,0,1,2.59,0l37.86,12.63a3.64,3.64,0,0,1,1.48.78,2.48,2.48,0,0,1-1,4.14c-1.83.69-3.71,1.27-5.57,1.89Q91,45.44,74.74,50.86a5,5,0,0,1-3.36,0Q52.77,44.63,34.13,38.45a3.78,3.78,0,0,1-2.39-1.77Z"/>
            <path class="cls-2"
                  d="M47.19,56.41V48.75c0-1,.05-1,1-.72,7.37,2.46,14.74,4.9,22.1,7.37a8.28,8.28,0,0,0,5.45,0c7.37-2.47,14.74-4.91,22.11-7.37,1-.34,1-.32,1,.74,0,5,0,10.05,0,15.08a3.29,3.29,0,0,1-1.11,2.57,34.5,34.5,0,0,1-21.15,9.83,34.93,34.93,0,0,1-28.38-9.86,3.29,3.29,0,0,1-1.09-2.58C47.21,61.36,47.19,58.89,47.19,56.41Z"/>
            <path class="cls-2"
                  d="M109.25,57.19c0,4,0,7.9,0,11.85a1.21,1.21,0,0,0,.77,1.3,7.36,7.36,0,0,1,4.4,6.94c0,4.22,0,8.44,0,12.66a2.48,2.48,0,0,1-2.77,2.79h-9.76A2.57,2.57,0,0,1,99,90c0-4.19-.06-8.38,0-12.57a7.5,7.5,0,0,1,4.51-7.07c.64-.3.65-.75.65-1.31V47.23c0-1.3,0-1.3,1.2-1.7,1-.33,2-.63,3-1,.69-.26.88-.08.88.64C109.23,49.18,109.25,53.18,109.25,57.19Z"/>
            <text class="cls-3" transform="translate(139.86 47.43)">ОБРАЗОВАТЕЛЬНЫЕ
                <tspan x="0" y="28.8">ТЕХНОЛОГИИ</tspan>
            </text>
        </g>
    </g>
</svg>
