<svg width="443" xmlns="http://www.w3.org/2000/svg" viewBox="0 0 451.01 114.4">
    <defs>
        <style>
            .cls-21{fill:#00b0e0;}.cls-2{fill:#b2e7f6;}.cls-3{font-size:24px;fill:#fff;font-family:RED_GaliverSans-BoldItalic,
            RED_Galiver Sans;font-weight:700;font-style:italic;}
        </style>
    </defs>
    <title>Asset 11</title>
    <g id="Layer_2" data-name="Layer 2">
        <g id="Слой_1" data-name="Слой 1">
            <polygon class="cls-21" points="0 32.07 442 0 152.53 114.4 0 32.07"/>
            <path class="cls-2"
                  d="M38.72,72.23v-45a2,2,0,0,1,.43,1q3.38,10.06,6.72,20.13a6.41,6.41,0,0,0,2.86,3.75,6.83,6.83,0,0,0,3.48.83c3.15,0,6.31,0,9.46,0,1.59,0,1.39-.18,1.4,1.39,0,1.93.71,2.63,2.64,2.63H79.94c2.67,0,3.17-.47,3.15-3.17,0-.68.22-.87.88-.86,3.32,0,6.63,0,9.94,0a8.21,8.21,0,0,0,1.86-.19,6,6,0,0,0,4.52-4.32q3.36-10.11,6.74-20.2a2.26,2.26,0,0,1,.43-1v45a2.85,2.85,0,0,0-.12.31,6.42,6.42,0,0,1-6.53,4.59c-18.48-.06-37,0-55.44,0-.31,0-.63,0-.94,0A6,6,0,0,1,41,75.79,6.8,6.8,0,0,1,38.72,72.23Z"/>
            <path class="cls-2"
                  d="M50.58,24.74H58c.9,0,.93,0,.91-.89a7.23,7.23,0,0,1,.8-4.08,5.73,5.73,0,0,1,5-3c5.57-.06,11.14-.05,16.71,0a6,6,0,0,1,5.8,5.76,12,12,0,0,1,0,1.47c0,.62.21.81.82.8,4.14,0,8.28,0,12.42,0h2.75c.83,0,.86.05.59.84q-2.28,6.86-4.58,13.72c-.87,2.6-1.73,5.21-2.61,7.81A2.23,2.23,0,0,1,94.06,49H84c-.87,0-.87,0-.88-.9a9.79,9.79,0,0,0-.06-1.33A2,2,0,0,0,80.83,45c-1.72,0-3.45,0-5.17,0q-5,0-9.93,0c-2,0-2.64.69-2.66,2.61,0,1.58.19,1.4-1.38,1.4H52a2.17,2.17,0,0,1-2.41-1.69L42.36,25.55c-.25-.76-.21-.8.57-.8Zm22.48,0c2.82,0,5.64,0,8.46,0,1.78,0,1.59.25,1.58-1.62a2.07,2.07,0,0,0-2.29-2.29H65.37a2.08,2.08,0,0,0-2.29,2.29c0,.23,0,.45,0,.67,0,.95,0,.95.92.95Z"/>
            <path class="cls-2"
                  d="M73.09,53c-1.78,0-3.57,0-5.36,0-.55,0-.76-.17-.74-.73,0-.93,0-1.87,0-2.81,0-.43.16-.59.59-.59h11c.43,0,.6.16.6.59q0,1.44,0,2.88c0,.49-.17.66-.66.66C76.72,53,74.91,53,73.09,53Z"/>
            <text class="cls-3" transform="translate(138.7 63.57)">ПРЕДПРИНИМАТЕЛЬСТВО</text>
        </g>
    </g>
</svg>
