<svg width="443" height="115" viewBox="0 0 443 115" fill="none" xmlns="http://www.w3.org/2000/svg">
    <path d="M0.273682 32.5801L442.234 0.509766L152.794 114.9L0.273682 32.5801Z" fill="#00A6E0"/>
    <path d="M55.4036 64.4798C52.4919 64.6131 49.5777 64.2755 46.7736 63.4798C44.5897 62.7588 42.6691 61.4054 41.2555 59.5912C39.8419 57.777 38.999 55.5839 38.8336 53.2899C38.5413 48.9698 39.3789 44.6481 41.2637 40.7499C43.7934 34.6098 47.9405 29.2702 53.2637 25.2997C57.8793 21.921 63.3812 19.9644 69.0936 19.6698C80.5536 18.9798 90.2637 22.9396 98.2937 31.0096C103.054 35.8096 105.724 41.7697 107.084 48.3397C109.25 57.9583 107.54 68.0433 102.324 76.41C98.3326 83.0165 92.0099 87.8868 84.6036 90.0599C81.1668 91.2317 77.4414 91.2491 73.9937 90.1097C69.2037 88.4397 66.3737 84.9598 64.9337 80.2298C64.1411 77.4811 63.8664 74.6088 64.1237 71.7596C64.1778 70.9602 64.1307 70.1576 63.9837 69.37C63.8021 68.0215 63.1374 66.7846 62.1131 65.889C61.0888 64.9934 59.7743 64.4998 58.4136 64.4999C57.4036 64.4199 56.4036 64.4798 55.4036 64.4798ZM58.1436 52.4198C59.7933 52.433 61.3807 51.7908 62.5565 50.6337C63.7324 49.4766 64.4004 47.8995 64.4136 46.2499C64.4269 44.6002 63.7843 43.0126 62.6272 41.8368C61.4701 40.6609 59.8933 39.9931 58.2437 39.9798C57.4268 39.9733 56.6167 40.1279 55.8596 40.4344C55.1024 40.741 54.413 41.1935 53.8308 41.7665C53.2486 42.3394 52.7849 43.0212 52.4663 43.7733C52.1476 44.5254 51.9802 45.3329 51.9736 46.1498C51.9671 46.9666 52.1215 47.7769 52.428 48.534C52.7345 49.2912 53.1871 49.9806 53.7601 50.5629C54.333 51.1451 55.015 51.6085 55.7672 51.9271C56.5193 52.2458 57.3268 52.4132 58.1436 52.4198ZM77.5037 72.8299C77.4657 73.6667 77.5971 74.5023 77.8901 75.287C78.183 76.0717 78.6315 76.7892 79.2084 77.3964C79.7854 78.0035 80.4791 78.4881 81.2479 78.8207C82.0166 79.1532 82.8447 79.3267 83.6823 79.3314C84.5199 79.3361 85.3497 79.1719 86.1222 78.848C86.8947 78.5242 87.5938 78.0478 88.1776 77.4471C88.7614 76.8465 89.2178 76.1338 89.5196 75.3524C89.8214 74.571 89.9622 73.7369 89.9337 72.8998C89.8789 71.2938 89.2048 69.7712 88.0525 68.6512C86.9002 67.5313 85.3591 66.901 83.7523 66.892C82.1454 66.8829 80.5974 67.496 79.4326 68.6029C78.2677 69.7098 77.5765 71.2247 77.5037 72.8299ZM77.5037 34.9798C77.5344 34.1726 77.4041 33.3671 77.1206 32.6107C76.8371 31.8543 76.4059 31.1618 75.8522 30.5736C75.2984 29.9854 74.6332 29.5135 73.8952 29.1849C73.1572 28.8563 72.3613 28.678 71.5537 28.66C70.7251 28.6133 69.8955 28.7328 69.1138 29.0116C68.3322 29.2904 67.6142 29.7225 67.0022 30.2831C66.3902 30.8436 65.8966 31.521 65.5504 32.2753C65.2042 33.0295 65.0124 33.8457 64.9864 34.6752C64.9604 35.5047 65.1006 36.3309 65.3988 37.1053C65.697 37.8798 66.1473 38.5866 66.7229 39.1844C67.2986 39.7822 67.988 40.2586 68.7507 40.5858C69.5133 40.913 70.3338 41.0844 71.1636 41.0897C71.9814 41.1179 72.7964 40.9816 73.5603 40.6883C74.3241 40.3951 75.0211 39.9509 75.6098 39.3827C76.1985 38.8145 76.6669 38.1337 76.9871 37.3807C77.3073 36.6278 77.4728 35.8181 77.4736 34.9999L77.5037 34.9798ZM81.9537 41.3099C81.9431 42.1308 82.0956 42.9454 82.4024 43.7069C82.7092 44.4684 83.1643 45.1617 83.741 45.746C84.3178 46.3302 85.0049 46.7936 85.7624 47.1102C86.5199 47.4268 87.3327 47.5898 88.1536 47.5897C89.7997 47.5692 91.373 46.9082 92.5398 45.7469C93.7066 44.5857 94.3752 43.0159 94.4036 41.37C94.4063 40.5477 94.2457 39.7332 93.931 38.9735C93.6164 38.2138 93.154 37.5238 92.5708 36.9442C91.9875 36.3646 91.2949 35.9068 90.5332 35.597C89.7715 35.2873 88.9559 35.1321 88.1337 35.14C87.316 35.1196 86.5026 35.2649 85.7426 35.5672C84.9826 35.8696 84.2917 36.3228 83.7114 36.8993C83.1312 37.4758 82.6737 38.1637 82.3664 38.9217C82.0592 39.6798 81.9086 40.4921 81.9237 41.3099H81.9537ZM87.2537 58.0599C87.2404 58.8813 87.3903 59.6973 87.6945 60.4603C87.9988 61.2234 88.4515 61.9184 89.0263 62.5052C89.601 63.0921 90.2866 63.5592 91.0431 63.8793C91.7996 64.1993 92.6122 64.3661 93.4337 64.37C95.0939 64.3607 96.6824 63.6921 97.8499 62.5116C99.0173 61.331 99.6679 59.7353 99.6586 58.0751C99.6494 56.4148 98.981 54.826 97.8004 53.6586C96.6199 52.4911 95.0239 51.8407 93.3637 51.85C91.728 51.8658 90.1648 52.5271 89.0148 53.6903C87.8647 54.8535 87.2209 56.4242 87.2236 58.0599H87.2537Z" fill="#C2E9F8"/>
    <path d="M152.504 28.4399H156.234L152.934 47.0801H149.204L150.884 37.5698L143.354 43.3501L142.684 47.0801H138.924L142.224 28.4399H145.954L144.274 37.9399L151.804 32.1699L152.504 28.4399Z" fill="white"/>
    <path d="M169.444 43.3501L168.774 47.0801H154.774L158.074 28.4399H172.074L171.394 32.1699H161.154L159.154 43.3501H169.444Z" fill="white"/>
    <path d="M176.924 39.6201H175.674L174.354 47.0801H170.624L173.924 28.4399H177.644L176.324 35.8901H180.984L182.304 28.4399H188.834L188.154 32.1699H185.364L184.064 39.6201H181.504L185.504 47.0801H180.924L176.924 39.6201Z" fill="white"/>
    <path d="M194.244 28.4399L196.904 35.4399L202.064 28.4399H206.544L192.804 47.0801H188.334L193.984 39.4199L191.184 32.1699H188.184L188.854 28.4399H194.244Z" fill="white"/>
    <path d="M218.824 43.3501L218.154 47.0801H204.154L207.454 28.4399H221.454L220.784 32.1699H210.534L208.534 43.3501H218.824Z" fill="white"/>
    <path d="M234.654 43.3501L233.984 47.0801H219.984L223.284 28.4399H237.284L236.614 32.1699H226.364L224.364 43.3501H234.654Z" fill="white"/>
    <path d="M247.794 32.1699L245.164 47.0801H241.444L244.074 32.1699H237.544L238.214 28.4399H254.984L254.314 32.1699H247.794Z" fill="white"/>
    <path d="M269.924 28.4399L266.624 47.0801H252.624L255.914 28.4399H269.924ZM263.574 43.3501L264.224 39.6201H257.704L257.044 43.3501H263.574ZM265.574 32.1699H259.054L258.404 35.8901H264.924L265.574 32.1699Z" fill="white"/>
    <path d="M271.754 28.4399H286.664L283.364 47.0801H268.464L271.754 28.4399ZM274.814 32.1699L272.814 43.3501H280.274L282.274 32.1699H274.814Z" fill="white"/>
    <path d="M152.504 57.5098H156.234L152.934 76.1401H149.204L150.884 66.6401L143.354 72.4199L142.684 76.1401H138.924L142.224 57.5098H145.954L144.274 67.0098L151.804 61.2402L152.504 57.5098Z" fill="white"/>
    <path d="M176.054 61.2402L173.434 76.1401H169.704L172.334 61.2402H165.804L166.484 57.5098H183.254L182.574 61.2402H176.054Z" fill="white"/>
    <path d="M198.154 57.5098L194.854 76.1401H180.924L184.224 57.5098H198.154ZM191.804 72.4199L192.454 68.6899H185.924L185.274 72.4199H191.804ZM193.804 61.2402H187.284L186.634 64.96H193.154L193.804 61.2402Z" fill="white"/>
    <path d="M200.024 57.5098H214.924L211.624 76.1401H196.724L200.024 57.5098ZM203.024 61.2402L201.024 72.4199H208.484L210.484 61.2402H203.024Z" fill="white"/>
    <path d="M220.404 68.6899L219.084 76.1401H215.354L217.984 61.2402H216.114L216.784 57.5098H231.694L229.694 68.6899H220.404ZM221.704 61.2402L221.054 64.96H226.644L227.294 61.2402H221.704Z" fill="white"/>
    <path d="M242.924 57.5098H246.654L243.354 76.1401H239.624L240.954 68.6899H231.634L233.634 57.5098H237.354L235.924 65H241.514L242.924 57.5098Z" fill="white"/>
    <path d="M259.644 57.5098L258.974 61.2402H251.524L251.204 63.1001H258.654L257.984 66.8301H250.534L249.534 72.4199H256.984L256.314 76.1401H245.164L248.464 57.5098H259.644Z" fill="white"/>
    <path d="M272.854 72.4199L272.184 76.1401H258.184L261.474 57.5098H275.474L274.804 61.2402H264.564L262.564 72.4199H272.854Z" fill="white"/>
    <path d="M285.994 61.2402L283.364 76.1401H279.644L282.264 61.2402H275.744L276.414 57.5098H293.184L292.514 61.2402H285.994Z" fill="white"/>
    <path d="M308.094 57.5098L304.794 76.1401H290.794L294.084 57.5098H308.094ZM301.734 72.4199L302.394 68.6899H295.864L295.214 72.4199H301.734ZM303.734 61.2402H297.214L296.564 64.96H303.084L303.734 61.2402Z" fill="white"/>
    <path d="M309.924 57.5098H324.834L321.534 76.1401H306.624L309.924 57.5098ZM312.984 61.2402L310.984 72.4199H318.434L320.434 61.2402H312.984Z" fill="white"/>
</svg>
