<svg width="443" height="115" viewBox="0 0 443 115" fill="none" xmlns="http://www.w3.org/2000/svg">
    <path d="M0.273682 32.0898L442.234 0.0297852L152.794 114.42L0.273682 32.0898Z" fill="#00A6E0"/>
    <path d="M64.3136 85H60.7836C60.6787 84.9641 60.5718 84.9343 60.4636 84.9102C57.4095 84.4126 54.6352 82.8362 52.6443 80.4673C50.6534 78.0985 49.5781 75.0942 49.6136 72C49.6136 71.38 49.3636 71.1899 48.8236 71.0699C46.7288 70.6225 44.7778 69.6622 43.1457 68.2749C41.5136 66.8877 40.2513 65.1174 39.4722 63.1221C38.6931 61.1268 38.4215 58.969 38.6818 56.8428C38.9421 54.7167 39.7261 52.6884 40.9636 50.94C41.1379 50.7545 41.2351 50.5095 41.2351 50.2549C41.2351 50.0004 41.1379 49.7553 40.9636 49.5699C39.7459 47.8237 38.9756 45.8054 38.7205 43.6919C38.4654 41.5784 38.7332 39.4346 39.5005 37.4488C40.2678 35.463 41.511 33.6957 43.1209 32.3028C44.7308 30.9099 46.6581 29.9338 48.7336 29.46C49.3236 29.32 49.6636 29.13 49.6036 28.46C49.5571 27.7914 49.594 27.1195 49.7136 26.46C50.0596 24.1858 51.0029 22.0439 52.4472 20.2535C53.8914 18.463 55.7849 17.0881 57.9344 16.2686C60.0838 15.4491 62.4123 15.2144 64.682 15.5889C66.9516 15.9634 69.0813 16.9334 70.8536 18.3999C71.0498 18.5493 71.205 18.7461 71.3047 18.9717C71.4044 19.1973 71.4453 19.4443 71.4236 19.69C71.4236 40.0433 71.4236 60.3998 71.4236 80.7598C71.4352 81.0161 71.3839 81.2716 71.2741 81.5035C71.1642 81.7353 70.9993 81.9365 70.7936 82.0899C68.9197 83.6008 66.6879 84.6033 64.3136 85Z" fill="#C2E9F8"/>
    <path d="M82.5037 85.0001C80.1492 84.6144 77.9324 83.6332 76.0637 82.15C75.838 81.9869 75.6574 81.7695 75.5385 81.5177C75.4196 81.2659 75.3663 80.988 75.3837 80.7101C75.3837 76.0501 75.3837 71.3901 75.3837 66.7101C75.3837 65.7901 75.3836 65.7899 76.3336 65.7799C77.2836 65.7699 78.1036 65.7799 78.9836 65.7799C79.256 65.7379 79.5345 65.7918 79.7715 65.9323C80.0086 66.0727 80.1896 66.2909 80.2836 66.5499C80.7828 67.5898 81.5822 68.4566 82.5786 69.0377C83.575 69.6188 84.7228 69.8878 85.8737 69.8102C87.1296 69.7721 88.341 69.3361 89.3331 68.5651C90.3252 67.794 91.0467 66.7278 91.3936 65.5201C91.8209 64.095 91.7034 62.5618 91.0641 61.2184C90.4247 59.875 89.3091 58.8173 87.9337 58.2501C86.552 57.6756 85.0054 57.6382 83.5975 58.1451C82.1896 58.6521 81.022 59.6669 80.3237 60.9904C80.2164 61.2792 80.0122 61.5219 79.7459 61.6769C79.4796 61.8319 79.1678 61.8893 78.8636 61.84C77.8636 61.78 76.9637 61.84 76.0137 61.84C75.5437 61.84 75.3837 61.6603 75.3837 61.2003C75.3837 58.4203 75.3837 55.6369 75.3837 52.8502C75.3837 52.3802 75.5736 52.2203 76.0236 52.2203C78.9436 52.2203 81.8636 52.2203 84.7836 52.2203C85.2636 52.2203 85.4337 52.48 85.6237 52.84C86.0826 53.8629 86.8286 54.7309 87.7712 55.338C88.7139 55.9451 89.8125 56.2652 90.9337 56.2599C91.7216 56.2743 92.5046 56.1335 93.2381 55.8453C93.9716 55.5572 94.6411 55.1276 95.2085 54.5807C95.7759 54.0338 96.2299 53.3803 96.5448 52.6578C96.8597 51.9354 97.0292 51.1582 97.0436 50.3702C97.0581 49.5823 96.9172 48.799 96.629 48.0656C96.3408 47.3321 95.911 46.6627 95.3641 46.0953C94.8171 45.528 94.1638 45.0738 93.4413 44.7589C92.7189 44.444 91.9416 44.2743 91.1536 44.2599C90.0109 44.2048 88.878 44.4936 87.9011 45.089C86.9242 45.6844 86.1483 46.5593 85.6736 47.6002C85.5884 47.827 85.4301 48.0189 85.2236 48.1456C85.0172 48.2724 84.7744 48.3265 84.5336 48.2999C81.7536 48.2999 78.9737 48.2999 76.1837 48.2999C75.5637 48.2999 75.3737 48.1104 75.3737 47.4904C75.3737 44.8237 75.3737 42.157 75.3737 39.4904C75.3737 38.8604 75.5837 38.6603 76.1937 38.6803C77.1937 38.6803 78.1937 38.6803 79.2437 38.6803C79.443 38.6551 79.645 38.6988 79.816 38.8043C79.987 38.9098 80.1167 39.0704 80.1837 39.2599C80.6346 40.2857 81.3734 41.1589 82.3106 41.7731C83.2478 42.3872 84.3431 42.7164 85.4636 42.7203C87.0549 42.7508 88.5932 42.1477 89.74 41.0441C90.8868 39.9404 91.5482 38.4264 91.5787 36.8351C91.6092 35.2438 91.0062 33.7055 89.9026 32.5587C88.7989 31.4119 87.285 30.7508 85.6937 30.7203C84.5624 30.6715 83.4421 30.9601 82.4752 31.5494C81.5083 32.1388 80.7386 33.002 80.2637 34.0299C80.1791 34.2702 80.015 34.4745 79.7986 34.609C79.5823 34.7435 79.3266 34.8005 79.0737 34.7701C78.0737 34.7201 77.0737 34.7701 76.0737 34.7701C75.6037 34.7701 75.4337 34.6003 75.4337 34.1403C75.4337 29.2469 75.4337 24.3601 75.4337 19.4801C75.439 19.2997 75.4871 19.1232 75.574 18.965C75.661 18.8068 75.7842 18.6712 75.9337 18.5699C78.345 16.5405 81.4115 15.4561 84.5626 15.5187C87.7136 15.5812 90.7347 16.7867 93.0637 18.9103C94.4177 20.1206 95.4934 21.6096 96.2167 23.2755C96.9401 24.9414 97.2938 26.7445 97.2537 28.5602C97.2338 28.6684 97.2364 28.7792 97.2614 28.8864C97.2863 28.9935 97.3331 29.0945 97.3988 29.1827C97.4645 29.271 97.5477 29.3444 97.6431 29.399C97.7386 29.4537 97.8443 29.4882 97.9537 29.5001C103.524 30.8601 106.874 34.3803 108.094 39.9503C108.094 40.1103 108.164 40.26 108.204 40.42V43.9401C107.853 46.1103 106.993 48.1665 105.694 49.9401C105.602 50.0413 105.551 50.1733 105.551 50.3102C105.551 50.447 105.602 50.5791 105.694 50.6803C106.99 52.4555 107.85 54.511 108.204 56.6803V60.2101C108.134 60.5401 108.064 60.8801 107.984 61.2101C107.48 63.6314 106.284 65.8545 104.541 67.6085C102.797 69.3626 100.582 70.5719 98.1636 71.09C97.4436 71.28 97.2437 71.5601 97.2437 72.2701C97.2637 74.1924 96.8424 76.0935 96.0119 77.8273C95.1814 79.561 93.9641 81.081 92.4537 82.2701C90.6095 83.7508 88.41 84.7228 86.0737 85.09L82.5037 85.0001Z" fill="#C2E9F8"/>
    <path d="M85.6136 34.5401C86.0265 34.5362 86.4313 34.6545 86.7769 34.8805C87.1226 35.1064 87.3935 35.4299 87.5556 35.8097C87.7177 36.1894 87.7637 36.6089 87.6877 37.0147C87.6117 37.4206 87.4172 37.7945 87.1287 38.0899C86.8403 38.3854 86.4707 38.5888 86.0668 38.6744C85.6628 38.76 85.2426 38.7244 84.8591 38.5714C84.4756 38.4184 84.1459 38.1552 83.9118 37.815C83.6776 37.4749 83.5495 37.0731 83.5436 36.6602C83.5355 36.3839 83.5832 36.1087 83.6837 35.8512C83.7843 35.5936 83.9356 35.3586 84.1288 35.1607C84.322 34.9629 84.553 34.806 84.8081 34.6993C85.0632 34.5927 85.3371 34.5387 85.6136 34.5401Z" fill="#C2E9F8"/>
    <path d="M93.1436 50.2597C93.1333 50.6746 92.9998 51.0773 92.76 51.416C92.5202 51.7546 92.1849 52.0141 91.7971 52.1616C91.4092 52.3091 90.9863 52.3379 90.582 52.2441C90.1778 52.1503 89.8106 51.9384 89.5273 51.6352C89.244 51.332 89.0573 50.9511 88.991 50.5415C88.9248 50.1318 88.982 49.7119 89.1553 49.3349C89.3287 48.9579 89.6103 48.6411 89.9644 48.4248C90.3185 48.2084 90.729 48.1023 91.1436 48.1201C91.4184 48.1194 91.6905 48.1755 91.9428 48.2846C92.195 48.3938 92.422 48.5535 92.6097 48.7544C92.7974 48.9552 92.9417 49.1926 93.0335 49.4516C93.1254 49.7107 93.1628 49.9855 93.1436 50.2597Z" fill="#C2E9F8"/>
    <path d="M87.7136 63.78C87.7136 64.1929 87.5913 64.5966 87.3621 64.9401C87.1328 65.2836 86.807 65.5517 86.4257 65.7101C86.0443 65.8686 85.6246 65.9106 85.2195 65.8307C84.8143 65.7509 84.442 65.5527 84.1493 65.2614C83.8566 64.9701 83.6567 64.5988 83.575 64.194C83.4932 63.7893 83.5332 63.3695 83.6898 62.9875C83.8465 62.6054 84.1128 62.2779 84.4552 62.047C84.7976 61.8162 85.2007 61.6921 85.6136 61.6901C85.8923 61.6759 86.1708 61.7201 86.4314 61.82C86.692 61.9198 86.9288 62.0733 87.1266 62.2702C87.3244 62.467 87.4787 62.703 87.5798 62.9631C87.6809 63.2231 87.7265 63.5012 87.7136 63.78Z" fill="#C2E9F8"/>
    <path d="M152.504 25.3599H156.234L152.924 44H149.194L150.634 36H144.104L142.674 44H138.924L142.224 25.3701H145.954L144.814 31.8901H151.334L152.504 25.3599Z" fill="white"/>
    <path d="M166.364 36.54H159.844L158.524 44H154.794L158.094 25.3701H172.094L168.794 44H165.064L166.364 36.54ZM167.674 29.0801H161.154L160.494 32.8101H167.024L167.674 29.0801Z" fill="white"/>
    <path d="M177.474 25.3599L180.134 32.3599L185.294 25.3599H189.774L176.034 44H171.564L177.214 36.3398L174.414 29.0898H171.414L172.094 25.3701L177.474 25.3599Z" fill="white"/>
    <path d="M193.704 36.54H192.454L191.134 43.9902H187.404L190.704 25.3599H194.424L193.104 32.8101H197.764L199.084 25.3599H205.614L204.934 29.0801H202.144L200.834 36.54H198.284L202.284 43.9902H197.704L193.704 36.54Z" fill="white"/>
    <path d="M215.744 36.54H209.224L207.924 44H204.194L207.494 25.3701H221.494L218.154 44H214.424L215.744 36.54ZM217.054 29.0801H210.534L209.874 32.8101H216.394L217.054 29.0801Z" fill="white"/>
    <path d="M152.504 54.4199H156.234L152.934 73.0601H149.204L150.884 63.5498L143.354 69.3301L142.684 73.0601H138.924L142.224 54.4199H145.954L144.274 63.9302L151.804 58.1499L152.504 54.4199Z" fill="white"/>
    <path d="M176.054 58.1499L173.434 73.0601H169.704L172.334 58.1499H165.804L166.484 54.4199H183.254L182.574 58.1499H176.054Z" fill="white"/>
    <path d="M195.364 54.4199L194.694 58.1499H187.234L186.924 60H194.374L193.704 63.73H186.244L185.244 69.3198H192.694L192.024 73.0498H180.924L184.224 54.4102L195.364 54.4199Z" fill="white"/>
    <path d="M200.924 54.4199L203.624 60.1602L208.374 54.4199H213.034L205.314 63.7402L209.734 73.0601H205.074L202.374 67.3198L197.624 73.0601H192.964L200.664 63.7402L198.014 58.1499H194.664L195.334 54.4199H200.924Z" fill="white"/>
    <path d="M224.244 54.4199H227.974L224.674 73.0601H220.924L222.364 65.0601H215.834L214.404 73.0601H210.674L213.974 54.4199H217.704L216.564 60.9502H223.084L224.244 54.4199Z" fill="white"/>
    <path d="M229.834 54.4199H244.734L241.444 73.0601H226.534L229.834 54.4199ZM232.884 58.1499L230.884 69.3301H238.334L240.334 58.1499H232.884Z" fill="white"/>
    <path d="M253.924 60.3301L246.454 73.0601H242.354L253.294 54.4199H256.644L260.984 73.0601H256.924L253.924 60.3301Z" fill="white"/>
    <path d="M264.344 54.4199H279.244L275.954 73.0601H261.044L264.344 54.4199ZM267.394 58.1499L265.394 69.3301H272.924L274.924 58.1499H267.394Z" fill="white"/>
    <path d="M284.074 69.3301H285.924L285.254 73.0601H277.804L278.474 69.3301H280.334L282.334 58.1499H280.474L281.144 54.4199H294.144L293.144 60.0098H289.424L289.734 58.1499H286.014L284.074 69.3301Z" fill="white"/>
    <path d="M306.264 54.4199H309.994L306.694 73.0601H302.924L304.604 63.5498L297.074 69.3301L296.404 73.0601H292.684L295.974 54.4199H299.704L298.024 63.9302L305.554 58.1499L306.264 54.4199Z" fill="white"/>
    <path d="M322.104 54.4199H325.834L322.534 73.0601H318.804L320.484 63.5498L312.954 69.3301L312.284 73.0601H308.554L311.854 54.4199H315.584L313.904 63.9302L321.434 58.1499L322.104 54.4199Z" fill="white"/>
</svg>
