<svg width="443" height="116" viewBox="0 0 443 116" fill="none" xmlns="http://www.w3.org/2000/svg">
    <path d="M0.763672 32.7998L442.724 0.72998L153.284 115.12L0.763672 32.7998Z" fill="#4FBBB7"/>
    <path d="M81.3934 91.2298H68.4635C68.4635 90.8298 68.4635 90.4296 68.4635 90.0296C68.4635 85.1896 68.4635 80.3398 68.4635 75.4998C68.4877 74.8101 68.3687 74.1228 68.1143 73.4813C67.8598 72.8397 67.4753 72.2579 66.985 71.7723C66.4946 71.2866 65.9091 70.9077 65.2651 70.6595C64.6212 70.4112 63.9328 70.2991 63.2434 70.3299C60.8734 70.3299 58.5134 70.3299 56.1534 70.3299C55.4247 70.2814 54.6941 70.3887 54.0104 70.6453C53.3266 70.9019 52.7055 71.3017 52.1886 71.8177C51.6717 72.3336 51.271 72.9542 51.0132 73.6375C50.7553 74.3208 50.6463 75.0508 50.6935 75.7796C50.6935 80.5796 50.6935 85.3797 50.6935 90.1697C50.6935 90.5297 50.6935 90.8798 50.6935 91.2298H39.9235C39.4485 91.0372 39.017 90.7514 38.6545 90.389C38.2921 90.0265 38.0061 89.5949 37.8135 89.1199V23.91L37.9735 23.5198C38.3565 22.2327 39.2103 21.1372 40.3649 20.4515C41.5195 19.7658 42.8901 19.5401 44.2035 19.8196C47.9435 20.3696 51.6935 20.9498 55.4335 21.5198L75.6234 24.5897C76.628 24.6662 77.6105 24.9239 78.5234 25.3499C79.4658 25.864 80.2393 26.6398 80.7504 27.5838C81.2614 28.5278 81.4882 29.5996 81.4034 30.6697V90.45C81.4134 90.71 81.4034 90.9998 81.3934 91.2298ZM52.0735 36.3899C52.8435 36.3899 53.6134 36.3899 54.3834 36.3899C54.6591 36.39 54.9321 36.3352 55.1864 36.2288C55.4407 36.1224 55.6714 35.9662 55.865 35.7698C56.0585 35.5735 56.2111 35.3406 56.3138 35.0848C56.4166 34.8289 56.4675 34.5553 56.4635 34.2796C56.4661 33.9986 56.4133 33.7199 56.3082 33.4593C56.2031 33.1986 56.0477 32.9611 55.8508 32.7606C55.654 32.56 55.4195 32.4003 55.1609 32.2903C54.9023 32.1804 54.6245 32.1225 54.3435 32.1199C52.8235 32.1199 51.3434 32.1199 49.7834 32.1199C49.5022 32.1169 49.2233 32.1712 48.9637 32.2796C48.7042 32.388 48.4695 32.5482 48.2739 32.7503C48.0783 32.9524 47.926 33.1924 47.8262 33.4554C47.7264 33.7184 47.6812 33.9986 47.6935 34.2796C47.6794 34.5565 47.7231 34.8334 47.8218 35.0926C47.9204 35.3517 48.0719 35.5875 48.2666 35.785C48.4613 35.9824 48.6948 36.1377 48.9525 36.24C49.2102 36.3424 49.4863 36.3898 49.7634 36.3797C50.5334 36.4097 51.3035 36.3899 52.0735 36.3899ZM52.0735 45.3899C52.8635 45.3899 53.6635 45.3899 54.4535 45.3899C55.0184 45.3899 55.5601 45.1654 55.9596 44.7659C56.359 44.3665 56.5835 43.8245 56.5835 43.2596C56.5835 42.6947 56.359 42.1532 55.9596 41.7537C55.5601 41.3543 55.0184 41.1297 54.4535 41.1297C52.8635 41.1297 51.2735 41.0797 49.6835 41.1297C49.4067 41.1372 49.1343 41.2006 48.8826 41.3157C48.6308 41.4309 48.4048 41.5957 48.2181 41.8001C48.0315 42.0045 47.8879 42.244 47.796 42.5052C47.7041 42.7663 47.6659 43.0434 47.6835 43.3196C47.6741 43.5881 47.7189 43.856 47.8152 44.1067C47.9115 44.3575 48.0572 44.5864 48.2439 44.7796C48.4306 44.9728 48.6543 45.1264 48.9016 45.2313C49.1489 45.3361 49.4148 45.3901 49.6835 45.3899C50.4935 45.4099 51.2634 45.3797 52.0334 45.3797L52.0735 45.3899ZM52.0735 54.3899C52.8635 54.3899 53.6635 54.3899 54.4535 54.3899C54.7292 54.3874 55.0017 54.3298 55.255 54.221C55.5084 54.1122 55.7375 53.9539 55.9292 53.7557C56.1209 53.5575 56.2713 53.3236 56.3716 53.0667C56.4719 52.8099 56.5201 52.5352 56.5134 52.2596C56.5169 51.7158 56.3112 51.1917 55.939 50.7952C55.5667 50.3988 55.0564 50.1605 54.5134 50.1297C52.9268 50.0897 51.3367 50.0897 49.7434 50.1297C49.468 50.1386 49.1972 50.2027 48.9468 50.3177C48.6964 50.4327 48.4714 50.5961 48.2852 50.7991C48.0989 51.0022 47.955 51.2404 47.8619 51.4998C47.7689 51.7592 47.7286 52.0347 47.7434 52.3099C47.7326 52.5792 47.7764 52.8479 47.8721 53.0999C47.9677 53.3519 48.1134 53.5819 48.3002 53.7762C48.487 53.9705 48.7111 54.1248 48.9591 54.2303C49.2071 54.3358 49.4739 54.3902 49.7434 54.3899C50.4834 54.3999 51.2534 54.3797 52.0234 54.3797L52.0735 54.3899ZM52.1234 63.3899C52.8934 63.3899 53.6635 63.3899 54.4335 63.3899C54.9887 63.3847 55.5193 63.1594 55.9091 62.764C56.2989 62.3686 56.5161 61.8348 56.5134 61.2796C56.5161 60.9986 56.4634 60.7199 56.3583 60.4593C56.2532 60.1986 56.0977 59.9611 55.9009 59.7606C55.704 59.56 55.4696 59.4003 55.2109 59.2903C54.9523 59.1804 54.6745 59.1225 54.3934 59.1199C52.8734 59.1199 51.3935 59.1199 49.8435 59.1199C49.5618 59.117 49.2824 59.1713 49.0223 59.2796C48.7623 59.3879 48.5269 59.5478 48.3306 59.7498C48.1342 59.9518 47.9809 60.1914 47.88 60.4544C47.7791 60.7174 47.7326 60.9981 47.7434 61.2796C47.728 61.5565 47.7704 61.8339 47.8678 62.0936C47.9652 62.3532 48.1156 62.5895 48.3093 62.7879C48.503 62.9863 48.7359 63.1423 48.9932 63.2459C49.2504 63.3495 49.5263 63.3987 49.8035 63.3899C50.5235 63.3899 51.3035 63.3699 52.0735 63.3699L52.1234 63.3899ZM67.1234 36.3899C67.8934 36.3899 68.6635 36.3899 69.4335 36.3899C69.9745 36.3529 70.4812 36.1119 70.8513 35.7156C71.2214 35.3193 71.4272 34.7969 71.4272 34.2547C71.4272 33.7124 71.2214 33.1906 70.8513 32.7942C70.4812 32.3979 69.9745 32.157 69.4335 32.1199C67.8935 32.1199 66.3535 32.1199 64.8035 32.1199C64.2386 32.1199 63.6968 32.344 63.2974 32.7435C62.8979 33.1429 62.6735 33.6849 62.6735 34.2498C62.6735 34.8147 62.8979 35.3567 63.2974 35.7562C63.6968 36.1556 64.2386 36.3797 64.8035 36.3797C65.4835 36.4097 66.2534 36.3899 67.0334 36.3899H67.1234ZM67.1234 45.3899C67.9134 45.3899 68.7134 45.3899 69.5034 45.3899C70.0683 45.3979 70.6134 45.1807 71.0184 44.7869C71.4235 44.3931 71.6555 43.8548 71.6635 43.2899C71.6714 42.7249 71.4546 42.1798 71.0608 41.7747C70.667 41.3696 70.1284 41.1377 69.5635 41.1297C67.9768 41.0897 66.3868 41.0897 64.7935 41.1297C64.2573 41.1648 63.7541 41.4003 63.3835 41.7894C63.013 42.1784 62.8024 42.6926 62.7935 43.2298C62.7954 43.7867 63.0114 44.3214 63.3967 44.7234C63.782 45.1255 64.3071 45.3643 64.8634 45.3899C65.4734 45.4099 66.2434 45.3797 67.0134 45.3797L67.1234 45.3899ZM67.1234 54.3899C67.9134 54.3899 68.7134 54.3899 69.5034 54.3899C70.0683 54.3899 70.6102 54.1654 71.0096 53.7659C71.4091 53.3665 71.6334 52.8245 71.6334 52.2596C71.6334 51.6947 71.4091 51.1532 71.0096 50.7537C70.6102 50.3543 70.0683 50.1297 69.5034 50.1297C67.9168 50.0897 66.3269 50.0897 64.7335 50.1297C64.1686 50.1297 63.6267 50.3543 63.2273 50.7537C62.8278 51.1532 62.6035 51.6947 62.6035 52.2596C62.6035 52.8245 62.8278 53.3665 63.2273 53.7659C63.6267 54.1654 64.1686 54.3899 64.7335 54.3899C65.4835 54.3999 66.2534 54.3797 67.0234 54.3797L67.1234 54.3899ZM67.1234 63.3899C67.8934 63.3899 68.6635 63.3899 69.4335 63.3899C69.9745 63.3529 70.4812 63.1119 70.8513 62.7156C71.2214 62.3193 71.4272 61.797 71.4272 61.2547C71.4272 60.7124 71.2214 60.1906 70.8513 59.7942C70.4812 59.3979 69.9745 59.157 69.4335 59.1199C67.8935 59.1199 66.3435 59.1199 64.8035 59.1199C64.2625 59.157 63.7557 59.3979 63.3856 59.7942C63.0155 60.1906 62.8097 60.7124 62.8097 61.2547C62.8097 61.797 63.0155 62.3193 63.3856 62.7156C63.7557 63.1119 64.2625 63.3529 64.8035 63.3899C65.4835 63.3899 66.2534 63.3699 67.0334 63.3699L67.1234 63.3899Z" fill="#E2F3F4"/>
    <path d="M84.2035 91.2299C84.2035 90.9199 84.2035 90.62 84.2035 90.31V48.5297C84.2035 47.2197 84.2034 47.1999 85.5234 47.4799C92.1234 48.8499 98.7035 50.25 105.303 51.6C106.627 51.8317 107.821 52.5366 108.664 53.5834C109.507 54.6302 109.94 55.9474 109.883 57.29C109.813 66.58 109.883 75.8799 109.883 85.1699C109.883 88.5299 108.883 89.9799 105.753 91.2299H84.2035ZM96.3335 59.7997C95.6135 59.7997 94.8835 59.7997 94.1635 59.7997C93.8641 59.7795 93.5638 59.8212 93.2811 59.9218C92.9985 60.0224 92.7394 60.1798 92.5201 60.3847C92.3009 60.5896 92.1262 60.8375 92.0067 61.1127C91.8872 61.388 91.8256 61.6847 91.8256 61.9848C91.8256 62.2848 91.8872 62.5816 92.0067 62.8569C92.1262 63.1321 92.3009 63.38 92.5201 63.5849C92.7394 63.7898 92.9985 63.9476 93.2811 64.0483C93.5638 64.1489 93.8641 64.1901 94.1635 64.1699C95.5735 64.1699 96.9734 64.1699 98.3834 64.1699C98.6828 64.1901 98.9832 64.1489 99.2659 64.0483C99.5485 63.9476 99.8075 63.7898 100.027 63.5849C100.246 63.38 100.421 63.1321 100.54 62.8569C100.66 62.5816 100.721 62.2848 100.721 61.9848C100.721 61.6847 100.66 61.388 100.54 61.1127C100.421 60.8375 100.246 60.5896 100.027 60.3847C99.8075 60.1798 99.5485 60.0224 99.2659 59.9218C98.9832 59.8212 98.6828 59.7795 98.3834 59.7997C97.6934 59.7797 97.0135 59.7997 96.3335 59.7997ZM96.3335 68.7997C95.6635 68.7997 94.9835 68.7997 94.3335 68.7997C94.0277 68.778 93.7206 68.8187 93.431 68.9194C93.1414 69.02 92.8754 69.1784 92.649 69.3852C92.4227 69.5919 92.2407 69.8427 92.1143 70.122C91.9878 70.4013 91.9195 70.7032 91.9135 71.0097C91.9445 71.6137 92.2134 72.1813 92.6611 72.5878C93.1089 72.9944 93.6993 73.2073 94.3035 73.1801C95.6635 73.1801 97.0234 73.1801 98.3734 73.1801C98.6786 73.2093 98.9866 73.1743 99.2775 73.0776C99.5684 72.9808 99.8359 72.8243 100.063 72.6181C100.29 72.4119 100.471 72.1602 100.595 71.8798C100.719 71.5995 100.783 71.2967 100.783 70.9902C100.783 70.6836 100.719 70.3804 100.595 70.1C100.471 69.8197 100.29 69.5679 100.063 69.3617C99.8359 69.1555 99.5684 68.9991 99.2775 68.9023C98.9866 68.8055 98.6786 68.7705 98.3734 68.7997C97.6334 68.7797 96.9735 68.7997 96.3135 68.7997H96.3335ZM96.2834 82.1699C96.9934 82.1699 97.6934 82.1699 98.3934 82.1699C98.6928 82.1901 98.9932 82.1489 99.2759 82.0483C99.5586 81.9476 99.8175 81.7898 100.037 81.5849C100.256 81.38 100.431 81.1321 100.55 80.8569C100.67 80.5816 100.731 80.2848 100.731 79.9848C100.731 79.6847 100.67 79.388 100.55 79.1127C100.431 78.8375 100.256 78.5896 100.037 78.3847C99.8175 78.1798 99.5586 78.0224 99.2759 77.9218C98.9932 77.8212 98.6928 77.7795 98.3934 77.7997C97.0134 77.7997 95.6334 77.7997 94.2534 77.7997C93.9532 77.7808 93.6522 77.8229 93.3687 77.9233C93.0851 78.0237 92.8247 78.1805 92.6033 78.3842C92.3819 78.5879 92.204 78.8341 92.0803 79.1083C91.9566 79.3826 91.8896 79.6791 91.8834 79.9799C91.9094 80.5839 92.1732 81.1532 92.6172 81.5634C93.0612 81.9737 93.6493 82.1915 94.2534 82.1699C94.9234 82.1899 95.5934 82.1699 96.2634 82.1699H96.2834Z" fill="#E2F3F4"/>
    <path d="M145.527 48.763L148.192 55.7506L153.353 48.763H157.825L144.092 67.3965H139.62L145.266 59.7381L142.471 52.4897H139.452L140.123 48.763H145.527ZM162.373 59.9431L161.05 67.3965H157.324L159.951 52.4897H158.088L158.759 48.763H173.665L171.69 59.9431H162.373ZM163.678 52.4897L163.026 56.2164H168.616L169.268 52.4897H163.678ZM176.63 63.6698H183.152L183.804 59.9431H177.282L176.63 63.6698ZM187.251 56.2164C187.512 56.2164 187.717 56.3096 187.866 56.4959C188.015 56.6698 188.065 56.8872 188.015 57.1481L186.375 66.4648C186.325 66.7257 186.195 66.9493 185.984 67.1356C185.773 67.3095 185.537 67.3965 185.276 67.3965H172.232L175.53 48.763H189.506L188.835 52.4897H178.586L177.934 56.2164H187.251ZM200.957 52.4897H194.436L193.784 56.2164H200.305L200.957 52.4897ZM199.653 59.9431H193.131L191.808 67.3965H188.082L191.38 48.763H205.355L202.057 67.3965H198.33L199.653 59.9431ZM217.478 48.763H221.204L217.906 67.3965H214.18L215.614 59.3841H209.093L207.658 67.3965H203.931L207.229 48.763H210.956L209.819 55.2847H216.341L217.478 48.763ZM233.327 48.763H237.054L233.756 67.3965H230.029L231.706 57.8934L224.178 63.6698L223.507 67.3965H219.78L223.079 48.763H226.805L225.128 58.2661L232.656 52.4897L233.327 48.763ZM250.276 63.6698L249.605 67.3965H235.63L238.928 48.763H252.903L252.232 52.4897H241.984L240.027 63.6698H250.276ZM263.423 52.4897L260.796 67.3965H257.069L259.697 52.4897H253.175L253.846 48.763H270.616L269.945 52.4897H263.423ZM281.798 48.763H285.524L282.226 67.3965H278.5L280.177 57.8934L272.649 63.6698L271.978 67.3965H268.251L271.549 48.763H275.276L273.599 58.2661L281.127 52.4897L281.798 48.763ZM290.399 59.9431H289.15L287.827 67.3965H284.101L287.399 48.763H291.125L289.802 56.2164H294.461L295.784 48.763H302.305L301.635 52.4897H298.84L297.535 59.9431H294.983L298.951 67.3965H294.368L290.399 59.9431ZM313.748 52.4897H307.227L306.574 56.2164H313.096L313.748 52.4897ZM312.444 59.9431H305.922L304.599 67.3965H300.873L304.171 48.763H318.146L314.848 67.3965H311.121L312.444 59.9431Z" fill="white"/>
</svg>
