<svg width="534" height="94" viewBox="0 0 534 94" fill="none" xmlns="http://www.w3.org/2000/svg">
    <path d="M229.594 4.83984H236.494L230.384 39.3699H223.484L226.144 24.5198H214.054L211.394 39.3699H204.494L210.604 4.83984H217.504L215.404 16.9297H227.484L229.594 4.83984Z" fill="#1760aa"/>
    <path d="M255.274 25.5598H243.194L240.744 39.3699H233.834L239.944 4.83984H265.844L259.734 39.3699H252.824L255.274 25.5598ZM257.694 11.7498H245.614L244.404 18.6497H256.484L257.694 11.7498Z" fill="#1760aa"/>
    <path d="M283.924 39.3699L288.784 11.7498H278.404L273.544 39.3699H266.634L271.504 11.7498H268.054L269.294 4.83984H296.924L290.814 39.3699H283.924Z" fill="#1760aa"/>
    <path d="M307.064 25.5598L304.614 39.3699H297.714L302.574 11.7498H299.124L300.364 4.83984H327.984L324.324 25.5598H307.064ZM309.484 11.7498L308.274 18.6497H318.634L319.844 11.7498H309.484Z" fill="#1760aa"/>
    <path d="M346.774 25.5598H334.684L332.234 39.3699H325.324L331.444 4.83984H357.334L351.224 39.3699H344.324L346.774 25.5598ZM349.184 11.7498H337.104L335.894 18.6497H347.974L349.184 11.7498Z" fill="#1760aa"/>
    <path d="M386.684 4.83984L380.574 39.3699H354.674L360.784 4.83984H386.684ZM374.924 32.4597L376.134 25.5598H364.034L362.824 32.4597H374.924ZM378.554 11.7498H366.454L365.244 18.6497H377.324L378.554 11.7498Z" fill="#1760aa"/>
    <path d="M403.734 15.7898L389.924 39.3699H382.324L402.594 4.83984H408.804L416.804 39.3699H409.204L403.734 15.7898Z" fill="#1760aa"/>
    <path d="M443.714 4.83984L442.474 11.7498H428.664L428.074 15.1997H441.924L440.684 22.0999H426.834L425.034 32.4597H438.844L437.604 39.3699H416.924L423.034 4.83984H443.714Z" fill="#1760aa"/>
    <path d="M466.154 4.83984H473.064L466.924 39.3699H460.014L462.674 24.5198H450.624L447.924 39.3699H441.014L447.124 4.83984H454.034L451.924 16.9297H464.014L466.154 4.83984Z" fill="#1760aa"/>
    <path d="M495.504 4.83984H502.404L496.294 39.3699H489.394L492.504 21.7598L478.504 32.4597L477.264 39.3699H470.354L476.464 4.83984H483.364L480.264 22.4497L494.264 11.7498L495.504 4.83984Z" fill="#1760aa"/>
    <path d="M533.484 4.83984L527.374 39.3699H520.464L522.914 25.5598H521.294L510.074 39.3699H501.574L512.804 25.5598H505.654L508.074 11.7498H504.614L505.864 4.83984H533.484ZM514.974 11.7498L513.764 18.6497H524.124L525.334 11.7498H514.974Z" fill="#1760aa"/>
    <path d="M225.204 93.2297L230.074 65.6099H219.714L214.854 93.2297H207.924L212.794 65.6099H209.344L210.584 58.6997H238.224L232.114 93.2297H225.204Z" fill="#1760aa"/>
    <path d="M248.374 79.4197L245.924 93.2297H239.014L243.884 65.6099H240.434L241.674 58.6997H269.294L265.634 79.4197H248.374ZM250.794 65.6099L249.584 72.5098H259.924L261.124 65.6099H250.794Z" fill="#1760aa"/>
    <path d="M272.744 58.6997H300.364L294.254 93.2297H266.634L272.744 58.6997ZM278.414 65.6099L274.784 86.3198H288.594L292.224 65.6099H278.414Z" fill="#1760aa"/>
    <path d="M324.534 58.6997L323.294 65.6099H309.484L308.894 69.0598H322.704L321.464 75.9597H307.654L305.854 86.3198H319.664L318.424 93.2297H297.714L303.824 58.6997H324.534Z" fill="#1760aa"/>
    <path d="M333.544 79.4197H331.234L328.784 93.2297H321.924L328.034 58.6997H334.924L332.474 72.5098H341.104L343.554 58.6997H355.634L354.394 65.6099H349.214L346.804 79.4197H342.074L349.424 93.2297H340.924L333.544 79.4197Z" fill="#1760aa"/>
    <path d="M375.084 65.6099L370.214 93.2297H363.304L368.174 65.6099H356.094L357.334 58.6997H388.404L387.164 65.6099H375.084Z" fill="#1760aa"/>
    <path d="M390.134 58.6997H417.754L411.644 93.2297H384.024L390.134 58.6997ZM395.794 65.6099L392.174 86.3198H405.984L409.604 65.6099H395.794Z" fill="#1760aa"/>
    <path d="M447.104 58.6997L440.984 93.2297H415.094L421.204 58.6997H447.104ZM435.324 86.3198L436.534 79.4197H424.454L423.244 86.3198H435.324ZM438.954 65.6099H426.864L425.654 72.5098H437.744L438.954 65.6099Z" fill="#1760aa"/>
    <path d="M182.174 0.969727L37.8137 30.02L40.8936 86.1396L182.174 0.969727Z" fill="#3D7FBB"/>
    <path d="M182.174 0.969727L37.8137 30.02L0.843628 4.5L182.174 0.969727Z" fill="white"/>
    <path d="M182.174 0.969727L59.5936 37.0601L40.8936 86.1396L182.174 0.969727Z" fill="#eb5953"/>
    <path d="M182.174 0.969727L59.5936 37.0601L120.774 58.6299L182.174 0.969727Z" fill="white"/>
</svg>
