<svg width="443" height="115" viewBox="0 0 443 115" fill="none" xmlns="http://www.w3.org/2000/svg">
    <path d="M0.763672 32.5801L442.724 0.509766L153.284 114.9L0.763672 32.5801Z" fill="#4CBBB8"/>
    <path d="M108.844 42.4599C108.584 44.2099 108.324 45.9601 107.904 47.6801C107.744 48.3501 107.424 48.53 106.774 48.52C100.014 48.52 93.2535 48.52 86.4935 48.52C84.6635 48.52 84.0935 48.9001 83.4335 50.6201L80.2236 59.0297C80.1136 59.2997 80.0936 59.6098 79.8236 59.7998C79.5536 59.6298 79.5235 59.3401 79.4335 59.1001L70.0836 34.6201C69.989 34.2476 69.8014 33.9052 69.5384 33.625C69.2754 33.3447 68.9455 33.1359 68.5798 33.018C68.214 32.9001 67.8244 32.8768 67.4472 32.9506C67.0701 33.0245 66.7178 33.1928 66.4235 33.4399C66.0562 33.785 65.7841 34.2192 65.6335 34.7002C63.9835 39.0102 62.3236 43.3201 60.7036 47.6401C60.6454 47.9231 60.4818 48.1732 60.246 48.3403C60.0103 48.5074 59.7199 48.5789 59.4335 48.54C53.2635 48.54 47.0935 48.54 40.9335 48.54C40.4435 48.54 40.0835 48.5399 39.9335 47.8999C38.3735 41.7799 38.3636 35.7198 40.8536 29.8398C43.2336 24.2198 47.1035 20.0398 53.0035 18.0498C55.3311 17.2587 57.8049 16.9919 60.2476 17.2685C62.6904 17.5451 65.0417 18.3584 67.1335 19.6499C69.4277 21.0111 71.4902 22.7296 73.2435 24.7402C73.8935 25.4602 73.9135 25.4502 74.5635 24.7402C76.6037 22.4007 79.0668 20.4667 81.8236 19.04C84.915 17.4851 88.4031 16.8978 91.8333 17.3544C95.2635 17.8111 98.4765 19.2906 101.054 21.6001C105.232 25.314 107.924 30.4148 108.633 35.9599C108.703 36.4499 108.784 36.9601 108.854 37.4301L108.844 42.4599Z" fill="#E2F3F4"/>
    <path d="M52.1837 53.0603H61.4637C62.0607 53.1342 62.6641 52.9866 63.1597 52.6457C63.6554 52.3048 64.009 51.7941 64.1536 51.2102C65.2736 48.2602 66.4136 45.3101 67.5436 42.3601C67.6236 42.1601 67.6136 41.8203 67.8636 41.8103C68.1136 41.8003 68.1337 42.1401 68.2037 42.3401C71.3237 50.5001 74.437 58.66 77.5436 66.82C77.6539 67.3006 77.9118 67.7348 78.2813 68.0613C78.6508 68.3877 79.1133 68.5902 79.6037 68.6404C80.1203 68.7072 80.6435 68.5851 81.0772 68.2966C81.5109 68.0081 81.8257 67.5723 81.9637 67.07C82.9637 64.55 83.9036 62.0704 84.8736 59.4904C85.5836 57.6205 86.3136 55.7601 87.0036 53.8801C87.057 53.6172 87.2091 53.385 87.4285 53.2307C87.648 53.0763 87.9182 53.0114 88.1837 53.05C93.8237 53.05 99.4637 53.05 105.104 53.05C106.014 53.05 106.034 53.0504 105.654 53.9104C103.498 58.4874 100.663 62.7117 97.2436 66.4402C90.9036 73.4402 83.3136 78.9204 75.2436 83.7004C74.8624 83.9807 74.4017 84.1316 73.9286 84.1316C73.4555 84.1316 72.9948 83.9807 72.6136 83.7004C64.885 79.3576 57.814 73.9364 51.6136 67.6003C47.8054 63.6686 44.6582 59.1467 42.2936 54.2102L42.1136 53.8401C41.8036 53.1401 41.8437 53.07 42.6037 53.07L52.1837 53.0603Z" fill="#E2F3F4"/>
    <path d="M142.744 25.8398H153.924L152.604 33.2998L150.404 35.1602L151.924 37L150.594 44.46H139.414L140.414 38.8701H144.144L143.824 40.73H147.554L148.204 37H144.474L145.134 33.2798H148.924L149.584 29.5498H145.854L145.534 31.4102H141.804L142.744 25.8398Z" fill="white"/>
    <path d="M171.184 40.73H173.654L172.334 48.2202H168.614L169.264 44.5H156.264L155.614 48.2202H151.884L153.214 40.73H155.674L164.414 25.8398H167.764L171.184 40.73ZM159.724 40.73H167.084L164.994 31.73L159.724 40.73Z" fill="white"/>
    <path d="M178.154 25.8398H193.054L189.754 44.48H174.854L178.154 25.8398ZM181.154 29.5698L179.154 40.75H186.614L188.614 29.5698H181.154Z" fill="white"/>
    <path d="M198.534 37L197.214 44.46H193.484L196.114 29.5498H194.244L194.914 25.8198H209.824L207.824 37H198.534ZM199.834 29.5498L199.184 33.2798H204.774L205.424 29.5498H199.834Z" fill="white"/>
    <path d="M211.694 25.8398H226.594L223.294 44.48H208.394L211.694 25.8398ZM214.694 29.5698L212.694 40.75H220.154L222.154 29.5698H214.694Z" fill="white"/>
    <path d="M242.434 25.8398L239.134 44.48H225.134L228.424 25.8398H242.434ZM236.084 40.75L236.734 37.02H230.214L229.554 40.75H236.084ZM238.034 29.5698H231.514L230.864 33.2998H237.384L238.034 29.5698Z" fill="white"/>
    <path d="M248.024 25.8398L246.704 33.2998H255.084L253.084 44.48H240.974L244.264 25.8398H248.024ZM245.394 40.75H250.054L250.704 37.02H246.054L245.394 40.75ZM257.774 44.48H254.044L257.324 25.8398H261.054L257.774 44.48Z" fill="white"/>
    <path d="M273.184 25.8398H276.924L273.624 44.48H269.924L271.594 34.9702L264.074 40.75L263.404 44.48H259.674L262.974 25.8398H266.694L265.024 35.3501L272.544 29.5698L273.184 25.8398ZM267.924 24L266.394 22.1401L266.884 19.3398H269.674L269.364 21.2002H272.154L272.474 19.3398H275.264L274.784 22.1401L272.584 24H267.924Z" fill="white"/>
    <path d="M142.744 54.9102H157.654L154.354 73.54H139.444L142.744 54.9102ZM145.804 58.6401L143.804 69.8198H151.254L153.254 58.6401H145.804Z" fill="white"/>
    <path d="M171.234 62.3599C171.352 62.3544 171.469 62.3771 171.577 62.4258C171.685 62.4744 171.78 62.5479 171.854 62.6401C171.928 62.7311 171.98 62.8376 172.006 62.9521C172.032 63.0667 172.031 63.1857 172.004 63.2998L170.364 72.6099C170.314 72.8686 170.177 73.1022 169.974 73.27C169.777 73.4422 169.525 73.5381 169.264 73.54H156.264L159.564 54.9102H173.564L172.894 58.6401H162.644L161.994 62.3599H171.234ZM160.614 69.8198H167.134L167.794 66.0898H161.264L160.614 69.8198Z" fill="white"/>
    <path d="M178.974 66.0898L177.644 73.54H173.924L176.544 58.6401H174.684L175.354 54.9102H190.264L188.264 66.0898H178.974ZM180.274 58.6401L179.624 62.3599H185.214L185.864 58.6401H180.274Z" fill="white"/>
    <path d="M200.394 66.0898H193.924L192.604 73.54H188.874L192.174 54.9102H206.174L202.874 73.54H199.144L200.394 66.0898ZM201.704 58.6401H195.184L194.534 62.3599H201.054L201.704 58.6401Z" fill="white"/>
    <path d="M207.924 54.9102H219.104L217.784 62.3599L215.584 64.23L217.124 66.0898L215.804 73.54H204.624L205.624 67.9502H209.344L209.034 69.8198H212.754L213.414 66.0898H209.684L210.334 62.3599H214.064L214.714 58.6401H210.994L210.674 60.5H206.944L207.924 54.9102Z" fill="white"/>
    <path d="M242.044 62.3599H244.834L246.164 54.9102H252.684L252.014 58.6401H249.214L247.914 66.0898H246.104L248.584 73.54H244.374L241.894 66.0898H241.394L240.064 73.54H236.344L237.664 66.0898H237.164L232.034 73.54H227.824L232.954 66.0898H231.144L232.444 58.6401H229.654L230.324 54.9102H236.844L235.524 62.3599H238.314L239.644 54.9102H243.364L242.044 62.3599Z" fill="white"/>
    <path d="M264.794 54.9102H268.524L265.224 73.54H261.494L263.174 64.04L255.644 69.8198L254.974 73.54H251.244L254.544 54.9102H258.274L256.594 64.4102L264.124 58.6401L264.794 54.9102Z" fill="white"/>
    <path d="M270.384 54.9102H281.564L280.244 62.3599L278.044 64.23L279.594 66.0898L278.264 73.54H267.084L268.084 67.9502H271.814L271.494 69.8198H275.224L275.874 66.0898H272.144L272.794 62.3599H276.524L277.174 58.6401H273.454L273.134 60.5H269.404L270.384 54.9102Z" fill="white"/>
    <path d="M293.674 54.9102H297.404L294.104 73.54H290.374L291.814 65.54H285.294L283.854 73.54H280.134L283.424 54.9102H287.154L286.014 61.4302H292.544L293.674 54.9102Z" fill="white"/>
    <path d="M309.514 54.9102H313.244L309.944 73.54H306.214L307.894 64.04L300.364 69.8198L299.694 73.54H295.924L299.224 54.9102H302.954L301.274 64.4102L308.804 58.6401L309.514 54.9102Z" fill="white"/>
</svg>
